<svg width="128" height="128" viewBox="0 0 128 128" fill="none" xmlns="http://www.w3.org/2000/svg">
<path d="M53.3333 5.33337H48V10.6667H53.3333V5.33337Z" fill="black"/>
<path d="M58.6667 5.33337H53.3334V10.6667H58.6667V5.33337Z" fill="black"/>
<path d="M64 5.33337H58.6667V10.6667H64V5.33337Z" fill="black"/>
<path d="M69.3334 5.33337H64V10.6667H69.3334V5.33337Z" fill="black"/>
<path d="M74.6667 5.33337H69.3333V10.6667H74.6667V5.33337Z" fill="black"/>
<path d="M80 5.33337H74.6667V10.6667H80V5.33337Z" fill="black"/>
<path d="M48 10.6667H42.6667V16.0001H48V10.6667Z" fill="black"/>
<path d="M53.3333 10.6667H48V16.0001H53.3333V10.6667Z" fill="black"/>
<path d="M58.6667 10.6667H53.3334V16.0001H58.6667V10.6667Z" fill="#5FB05B"/>
<path d="M64 10.6667H58.6667V16.0001H64V10.6667Z" fill="#82D680"/>
<path d="M69.3334 10.6667H64V16.0001H69.3334V10.6667Z" fill="#82D680"/>
<path d="M74.6667 10.6667H69.3333V16.0001H74.6667V10.6667Z" fill="#5FB05B"/>
<path d="M80 10.6667H74.6667V16.0001H80V10.6667Z" fill="black"/>
<path d="M85.3334 10.6667H80V16.0001H85.3334V10.6667Z" fill="black"/>
<path d="M48 16H42.6667V21.3333H48V16Z" fill="black"/>
<path d="M53.3333 16H48V21.3333H53.3333V16Z" fill="#5FB05B"/>
<path d="M58.6667 16H53.3334V21.3333H58.6667V16Z" fill="#5FB05B"/>
<path d="M64 16H58.6667V21.3333H64V16Z" fill="#82D680"/>
<path d="M69.3334 16H64V21.3333H69.3334V16Z" fill="#82D680"/>
<path d="M74.6667 16H69.3333V21.3333H74.6667V16Z" fill="#5FB05B"/>
<path d="M80 16H74.6667V21.3333H80V16Z" fill="#5FB05B"/>
<path d="M85.3334 16H80V21.3333H85.3334V16Z" fill="black"/>
<path d="M48 21.3334H42.6667V26.6667H48V21.3334Z" fill="black"/>
<path d="M53.3333 21.3334H48V26.6667H53.3333V21.3334Z" fill="#5FB05B"/>
<path d="M58.6667 21.3334H53.3334V26.6667H58.6667V21.3334Z" fill="#5FB05B"/>
<path d="M64 21.3334H58.6667V26.6667H64V21.3334Z" fill="#82D680"/>
<path d="M69.3334 21.3334H64V26.6667H69.3334V21.3334Z" fill="#82D680"/>
<path d="M74.6667 21.3334H69.3333V26.6667H74.6667V21.3334Z" fill="#5FB05B"/>
<path d="M80 21.3334H74.6667V26.6667H80V21.3334Z" fill="#5FB05B"/>
<path d="M85.3334 21.3334H80V26.6667H85.3334V21.3334Z" fill="black"/>
<path d="M101.333 21.3334H96V26.6667H101.333V21.3334Z" fill="black"/>
<path d="M106.667 21.3334H101.333V26.6667H106.667V21.3334Z" fill="black"/>
<path d="M112 21.3334H106.667V26.6667H112V21.3334Z" fill="black"/>
<path d="M48 26.6667H42.6667V32.0001H48V26.6667Z" fill="black"/>
<path d="M53.3333 26.6667H48V32.0001H53.3333V26.6667Z" fill="#5FB05B"/>
<path d="M58.6667 26.6667H53.3334V32.0001H58.6667V26.6667Z" fill="#5FB05B"/>
<path d="M64 26.6667H58.6667V32.0001H64V26.6667Z" fill="#82D680"/>
<path d="M69.3334 26.6667H64V32.0001H69.3334V26.6667Z" fill="#82D680"/>
<path d="M74.6667 26.6667H69.3333V32.0001H74.6667V26.6667Z" fill="#5FB05B"/>
<path d="M80 26.6667H74.6667V32.0001H80V26.6667Z" fill="#5FB05B"/>
<path d="M85.3334 26.6667H80V32.0001H85.3334V26.6667Z" fill="black"/>
<path d="M96 26.6667H90.6667V32.0001H96V26.6667Z" fill="black"/>
<path d="M101.333 26.6667H96V32.0001H101.333V26.6667Z" fill="#5FB05B"/>
<path d="M106.667 26.6667H101.333V32.0001H106.667V26.6667Z" fill="#82D680"/>
<path d="M112 26.6667H106.667V32.0001H112V26.6667Z" fill="black"/>
<path d="M117.333 26.6667H112V32.0001H117.333V26.6667Z" fill="black"/>
<path d="M21.3333 32H16V37.3333H21.3333V32Z" fill="black"/>
<path d="M26.6667 32H21.3334V37.3333H26.6667V32Z" fill="black"/>
<path d="M32 32H26.6667V37.3333H32V32Z" fill="black"/>
<path d="M48 32H42.6667V37.3333H48V32Z" fill="black"/>
<path d="M53.3333 32H48V37.3333H53.3333V32Z" fill="#5FB05B"/>
<path d="M58.6667 32H53.3334V37.3333H58.6667V32Z" fill="#5FB05B"/>
<path d="M64 32H58.6667V37.3333H64V32Z" fill="#82D680"/>
<path d="M69.3334 32H64V37.3333H69.3334V32Z" fill="#82D680"/>
<path d="M74.6667 32H69.3333V37.3333H74.6667V32Z" fill="#5FB05B"/>
<path d="M80 32H74.6667V37.3333H80V32Z" fill="#5FB05B"/>
<path d="M85.3334 32H80V37.3333H85.3334V32Z" fill="black"/>
<path d="M96 32H90.6667V37.3333H96V32Z" fill="black"/>
<path d="M101.333 32H96V37.3333H101.333V32Z" fill="#5FB05B"/>
<path d="M106.667 32H101.333V37.3333H106.667V32Z" fill="#5FB05B"/>
<path d="M112 32H106.667V37.3333H112V32Z" fill="#82D680"/>
<path d="M117.333 32H112V37.3333H117.333V32Z" fill="black"/>
<path d="M16 37.3334H10.6667V42.6667H16V37.3334Z" fill="black"/>
<path d="M21.3333 37.3334H16V42.6667H21.3333V37.3334Z" fill="#5FB05B"/>
<path d="M26.6667 37.3334H21.3334V42.6667H26.6667V37.3334Z" fill="#5FB05B"/>
<path d="M32 37.3334H26.6667V42.6667H32V37.3334Z" fill="#82D680"/>
<path d="M37.3333 37.3334H32V42.6667H37.3333V37.3334Z" fill="black"/>
<path d="M48 37.3334H42.6667V42.6667H48V37.3334Z" fill="black"/>
<path d="M53.3333 37.3334H48V42.6667H53.3333V37.3334Z" fill="#5FB05B"/>
<path d="M58.6667 37.3334H53.3334V42.6667H58.6667V37.3334Z" fill="#5FB05B"/>
<path d="M64 37.3334H58.6667V42.6667H64V37.3334Z" fill="#82D680"/>
<path d="M69.3334 37.3334H64V42.6667H69.3334V37.3334Z" fill="#82D680"/>
<path d="M74.6667 37.3334H69.3333V42.6667H74.6667V37.3334Z" fill="#5FB05B"/>
<path d="M80 37.3334H74.6667V42.6667H80V37.3334Z" fill="#5FB05B"/>
<path d="M85.3334 37.3334H80V42.6667H85.3334V37.3334Z" fill="black"/>
<path d="M96 37.3334H90.6667V42.6667H96V37.3334Z" fill="black"/>
<path d="M101.333 37.3334H96V42.6667H101.333V37.3334Z" fill="#5FB05B"/>
<path d="M106.667 37.3334H101.333V42.6667H106.667V37.3334Z" fill="#5FB05B"/>
<path d="M112 37.3334H106.667V42.6667H112V37.3334Z" fill="#82D680"/>
<path d="M117.333 37.3334H112V42.6667H117.333V37.3334Z" fill="black"/>
<path d="M16 42.6667H10.6667V48.0001H16V42.6667Z" fill="black"/>
<path d="M21.3333 42.6667H16V48.0001H21.3333V42.6667Z" fill="#5FB05B"/>
<path d="M26.6667 42.6667H21.3334V48.0001H26.6667V42.6667Z" fill="#5FB05B"/>
<path d="M32 42.6667H26.6667V48.0001H32V42.6667Z" fill="#82D680"/>
<path d="M37.3333 42.6667H32V48.0001H37.3333V42.6667Z" fill="black"/>
<path d="M48 42.6667H42.6667V48.0001H48V42.6667Z" fill="black"/>
<path d="M53.3333 42.6667H48V48.0001H53.3333V42.6667Z" fill="#5FB05B"/>
<path d="M58.6667 42.6667H53.3334V48.0001H58.6667V42.6667Z" fill="#5FB05B"/>
<path d="M64 42.6667H58.6667V48.0001H64V42.6667Z" fill="#82D680"/>
<path d="M69.3334 42.6667H64V48.0001H69.3334V42.6667Z" fill="#82D680"/>
<path d="M74.6667 42.6667H69.3333V48.0001H74.6667V42.6667Z" fill="#5FB05B"/>
<path d="M80 42.6667H74.6667V48.0001H80V42.6667Z" fill="#5FB05B"/>
<path d="M85.3334 42.6667H80V48.0001H85.3334V42.6667Z" fill="black"/>
<path d="M96 42.6667H90.6667V48.0001H96V42.6667Z" fill="black"/>
<path d="M101.333 42.6667H96V48.0001H101.333V42.6667Z" fill="#5FB05B"/>
<path d="M106.667 42.6667H101.333V48.0001H106.667V42.6667Z" fill="#5FB05B"/>
<path d="M112 42.6667H106.667V48.0001H112V42.6667Z" fill="#82D680"/>
<path d="M117.333 42.6667H112V48.0001H117.333V42.6667Z" fill="black"/>
<path d="M16 48H10.6667V53.3333H16V48Z" fill="black"/>
<path d="M21.3333 48H16V53.3333H21.3333V48Z" fill="#5FB05B"/>
<path d="M26.6667 48H21.3334V53.3333H26.6667V48Z" fill="#5FB05B"/>
<path d="M32 48H26.6667V53.3333H32V48Z" fill="#82D680"/>
<path d="M37.3333 48H32V53.3333H37.3333V48Z" fill="black"/>
<path d="M48 48H42.6667V53.3333H48V48Z" fill="black"/>
<path d="M53.3333 48H48V53.3333H53.3333V48Z" fill="#5FB05B"/>
<path d="M58.6667 48H53.3334V53.3333H58.6667V48Z" fill="#5FB05B"/>
<path d="M64 48H58.6667V53.3333H64V48Z" fill="#82D680"/>
<path d="M69.3334 48H64V53.3333H69.3334V48Z" fill="#82D680"/>
<path d="M74.6667 48H69.3333V53.3333H74.6667V48Z" fill="#5FB05B"/>
<path d="M80 48H74.6667V53.3333H80V48Z" fill="#5FB05B"/>
<path d="M85.3334 48H80V53.3333H85.3334V48Z" fill="black"/>
<path d="M90.6667 48H85.3334V53.3333H90.6667V48Z" fill="black"/>
<path d="M96 48H90.6667V53.3333H96V48Z" fill="black"/>
<path d="M101.333 48H96V53.3333H101.333V48Z" fill="#5FB05B"/>
<path d="M106.667 48H101.333V53.3333H106.667V48Z" fill="#4D9055"/>
<path d="M112 48H106.667V53.3333H112V48Z" fill="#82D680"/>
<path d="M117.333 48H112V53.3333H117.333V48Z" fill="black"/>
<path d="M16 53.3334H10.6667V58.6667H16V53.3334Z" fill="black"/>
<path d="M21.3333 53.3334H16V58.6667H21.3333V53.3334Z" fill="#5FB05B"/>
<path d="M26.6667 53.3334H21.3334V58.6667H26.6667V53.3334Z" fill="#5FB05B"/>
<path d="M32 53.3334H26.6667V58.6667H32V53.3334Z" fill="#82D680"/>
<path d="M37.3333 53.3334H32V58.6667H37.3333V53.3334Z" fill="black"/>
<path d="M48 53.3334H42.6667V58.6667H48V53.3334Z" fill="black"/>
<path d="M53.3333 53.3334H48V58.6667H53.3333V53.3334Z" fill="#5FB05B"/>
<path d="M58.6667 53.3334H53.3334V58.6667H58.6667V53.3334Z" fill="#5FB05B"/>
<path d="M64 53.3334H58.6667V58.6667H64V53.3334Z" fill="#82D680"/>
<path d="M69.3334 53.3334H64V58.6667H69.3334V53.3334Z" fill="#82D680"/>
<path d="M74.6667 53.3334H69.3333V58.6667H74.6667V53.3334Z" fill="#5FB05B"/>
<path d="M80 53.3334H74.6667V58.6667H80V53.3334Z" fill="#5FB05B"/>
<path d="M85.3334 53.3334H80V58.6667H85.3334V53.3334Z" fill="#5FB05B"/>
<path d="M90.6667 53.3334H85.3334V58.6667H90.6667V53.3334Z" fill="#5FB05B"/>
<path d="M96 53.3334H90.6667V58.6667H96V53.3334Z" fill="#5FB05B"/>
<path d="M101.333 53.3334H96V58.6667H101.333V53.3334Z" fill="#4D9055"/>
<path d="M106.667 53.3334H101.333V58.6667H106.667V53.3334Z" fill="#4D9055"/>
<path d="M112 53.3334H106.667V58.6667H112V53.3334Z" fill="black"/>
<path d="M117.333 53.3334H112V58.6667H117.333V53.3334Z" fill="black"/>
<path d="M16 58.6667H10.6667V64.0001H16V58.6667Z" fill="black"/>
<path d="M21.3333 58.6667H16V64.0001H21.3333V58.6667Z" fill="#5FB05B"/>
<path d="M26.6667 58.6667H21.3334V64.0001H26.6667V58.6667Z" fill="#5FB05B"/>
<path d="M32 58.6667H26.6667V64.0001H32V58.6667Z" fill="#82D680"/>
<path d="M37.3333 58.6667H32V64.0001H37.3333V58.6667Z" fill="black"/>
<path d="M48 58.6667H42.6667V64.0001H48V58.6667Z" fill="black"/>
<path d="M53.3333 58.6667H48V64.0001H53.3333V58.6667Z" fill="#5FB05B"/>
<path d="M58.6667 58.6667H53.3334V64.0001H58.6667V58.6667Z" fill="#5FB05B"/>
<path d="M64 58.6667H58.6667V64.0001H64V58.6667Z" fill="#82D680"/>
<path d="M69.3334 58.6667H64V64.0001H69.3334V58.6667Z" fill="#82D680"/>
<path d="M74.6667 58.6667H69.3333V64.0001H74.6667V58.6667Z" fill="#5FB05B"/>
<path d="M80 58.6667H74.6667V64.0001H80V58.6667Z" fill="#5FB05B"/>
<path d="M85.3334 58.6667H80V64.0001H85.3334V58.6667Z" fill="#5FB05B"/>
<path d="M90.6667 58.6667H85.3334V64.0001H90.6667V58.6667Z" fill="#4D9055"/>
<path d="M96 58.6667H90.6667V64.0001H96V58.6667Z" fill="#4D9055"/>
<path d="M101.333 58.6667H96V64.0001H101.333V58.6667Z" fill="#4D9055"/>
<path d="M106.667 58.6667H101.333V64.0001H106.667V58.6667Z" fill="black"/>
<path d="M112 58.6667H106.667V64.0001H112V58.6667Z" fill="black"/>
<path d="M16 64H10.6667V69.3333H16V64Z" fill="black"/>
<path d="M21.3333 64H16V69.3333H21.3333V64Z" fill="#5FB05B"/>
<path d="M26.6667 64H21.3334V69.3333H26.6667V64Z" fill="#5FB05B"/>
<path d="M32 64H26.6667V69.3333H32V64Z" fill="#82D680"/>
<path d="M37.3333 64H32V69.3333H37.3333V64Z" fill="black"/>
<path d="M48 64H42.6667V69.3333H48V64Z" fill="black"/>
<path d="M53.3333 64H48V69.3333H53.3333V64Z" fill="#5FB05B"/>
<path d="M58.6667 64H53.3334V69.3333H58.6667V64Z" fill="#5FB05B"/>
<path d="M64 64H58.6667V69.3333H64V64Z" fill="#82D680"/>
<path d="M69.3334 64H64V69.3333H69.3334V64Z" fill="#82D680"/>
<path d="M74.6667 64H69.3333V69.3333H74.6667V64Z" fill="#5FB05B"/>
<path d="M80 64H74.6667V69.3333H80V64Z" fill="#5FB05B"/>
<path d="M85.3334 64H80V69.3333H85.3334V64Z" fill="#4D9055"/>
<path d="M90.6667 64H85.3334V69.3333H90.6667V64Z" fill="#4D9055"/>
<path d="M96 64H90.6667V69.3333H96V64Z" fill="#4D9055"/>
<path d="M101.333 64H96V69.3333H101.333V64Z" fill="black"/>
<path d="M106.667 64H101.333V69.3333H106.667V64Z" fill="black"/>
<path d="M16 69.3334H10.6667V74.6667H16V69.3334Z" fill="black"/>
<path d="M21.3333 69.3334H16V74.6667H21.3333V69.3334Z" fill="#5FB05B"/>
<path d="M26.6667 69.3334H21.3334V74.6667H26.6667V69.3334Z" fill="#5FB05B"/>
<path d="M32 69.3334H26.6667V74.6667H32V69.3334Z" fill="#82D680"/>
<path d="M37.3333 69.3334H32V74.6667H37.3333V69.3334Z" fill="black"/>
<path d="M42.6667 69.3334H37.3334V74.6667H42.6667V69.3334Z" fill="black"/>
<path d="M48 69.3334H42.6667V74.6667H48V69.3334Z" fill="black"/>
<path d="M53.3333 69.3334H48V74.6667H53.3333V69.3334Z" fill="#5FB05B"/>
<path d="M58.6667 69.3334H53.3334V74.6667H58.6667V69.3334Z" fill="#5FB05B"/>
<path d="M64 69.3334H58.6667V74.6667H64V69.3334Z" fill="#82D680"/>
<path d="M69.3334 69.3334H64V74.6667H69.3334V69.3334Z" fill="#82D680"/>
<path d="M74.6667 69.3334H69.3333V74.6667H74.6667V69.3334Z" fill="#5FB05B"/>
<path d="M80 69.3334H74.6667V74.6667H80V69.3334Z" fill="#4D9055"/>
<path d="M85.3334 69.3334H80V74.6667H85.3334V69.3334Z" fill="#4D9055"/>
<path d="M90.6667 69.3334H85.3334V74.6667H90.6667V69.3334Z" fill="black"/>
<path d="M96 69.3334H90.6667V74.6667H96V69.3334Z" fill="black"/>
<path d="M16 74.6667H10.6667V80.0001H16V74.6667Z" fill="black"/>
<path d="M21.3333 74.6667H16V80.0001H21.3333V74.6667Z" fill="#4D9055"/>
<path d="M26.6667 74.6667H21.3334V80.0001H26.6667V74.6667Z" fill="#4D9055"/>
<path d="M32 74.6667H26.6667V80.0001H32V74.6667Z" fill="#5FB05B"/>
<path d="M37.3333 74.6667H32V80.0001H37.3333V74.6667Z" fill="#82D680"/>
<path d="M42.6667 74.6667H37.3334V80.0001H42.6667V74.6667Z" fill="black"/>
<path d="M48 74.6667H42.6667V80.0001H48V74.6667Z" fill="black"/>
<path d="M53.3333 74.6667H48V80.0001H53.3333V74.6667Z" fill="#5FB05B"/>
<path d="M58.6667 74.6667H53.3334V80.0001H58.6667V74.6667Z" fill="#5FB05B"/>
<path d="M64 74.6667H58.6667V80.0001H64V74.6667Z" fill="#82D680"/>
<path d="M69.3334 74.6667H64V80.0001H69.3334V74.6667Z" fill="#82D680"/>
<path d="M74.6667 74.6667H69.3333V80.0001H74.6667V74.6667Z" fill="#4D9055"/>
<path d="M80 74.6667H74.6667V80.0001H80V74.6667Z" fill="#4D9055"/>
<path d="M85.3334 74.6667H80V80.0001H85.3334V74.6667Z" fill="black"/>
<path d="M21.3333 80H16V85.3333H21.3333V80Z" fill="black"/>
<path d="M26.6667 80H21.3334V85.3333H26.6667V80Z" fill="#4D9055"/>
<path d="M32 80H26.6667V85.3333H32V80Z" fill="#4D9055"/>
<path d="M37.3333 80H32V85.3333H37.3333V80Z" fill="#5FB05B"/>
<path d="M42.6667 80H37.3334V85.3333H42.6667V80Z" fill="#82D680"/>
<path d="M48 80H42.6667V85.3333H48V80Z" fill="#5FB05B"/>
<path d="M53.3333 80H48V85.3333H53.3333V80Z" fill="#5FB05B"/>
<path d="M58.6667 80H53.3334V85.3333H58.6667V80Z" fill="#5FB05B"/>
<path d="M64 80H58.6667V85.3333H64V80Z" fill="#82D680"/>
<path d="M69.3334 80H64V85.3333H69.3334V80Z" fill="#82D680"/>
<path d="M74.6667 80H69.3333V85.3333H74.6667V80Z" fill="#4D9055"/>
<path d="M80 80H74.6667V85.3333H80V80Z" fill="#4D9055"/>
<path d="M85.3334 80H80V85.3333H85.3334V80Z" fill="black"/>
<path d="M26.6667 85.3334H21.3334V90.6667H26.6667V85.3334Z" fill="black"/>
<path d="M32 85.3334H26.6667V90.6667H32V85.3334Z" fill="black"/>
<path d="M37.3333 85.3334H32V90.6667H37.3333V85.3334Z" fill="#4D9055"/>
<path d="M42.6667 85.3334H37.3334V90.6667H42.6667V85.3334Z" fill="#5FB05B"/>
<path d="M48 85.3334H42.6667V90.6667H48V85.3334Z" fill="#5FB05B"/>
<path d="M53.3333 85.3334H48V90.6667H53.3333V85.3334Z" fill="#5FB05B"/>
<path d="M58.6667 85.3334H53.3334V90.6667H58.6667V85.3334Z" fill="#5FB05B"/>
<path d="M64 85.3334H58.6667V90.6667H64V85.3334Z" fill="#82D680"/>
<path d="M69.3334 85.3334H64V90.6667H69.3334V85.3334Z" fill="#82D680"/>
<path d="M74.6667 85.3334H69.3333V90.6667H74.6667V85.3334Z" fill="#4D9055"/>
<path d="M80 85.3334H74.6667V90.6667H80V85.3334Z" fill="#4D9055"/>
<path d="M85.3334 85.3334H80V90.6667H85.3334V85.3334Z" fill="black"/>
<path d="M37.3333 90.6667H32V96.0001H37.3333V90.6667Z" fill="black"/>
<path d="M42.6667 90.6667H37.3334V96.0001H42.6667V90.6667Z" fill="#4D9055"/>
<path d="M48 90.6667H42.6667V96.0001H48V90.6667Z" fill="#5FB05B"/>
<path d="M53.3333 90.6667H48V96.0001H53.3333V90.6667Z" fill="#5FB05B"/>
<path d="M58.6667 90.6667H53.3334V96.0001H58.6667V90.6667Z" fill="#5FB05B"/>
<path d="M64 90.6667H58.6667V96.0001H64V90.6667Z" fill="#82D680"/>
<path d="M69.3334 90.6667H64V96.0001H69.3334V90.6667Z" fill="#82D680"/>
<path d="M74.6667 90.6667H69.3333V96.0001H74.6667V90.6667Z" fill="#4D9055"/>
<path d="M80 90.6667H74.6667V96.0001H80V90.6667Z" fill="#4D9055"/>
<path d="M85.3334 90.6667H80V96.0001H85.3334V90.6667Z" fill="black"/>
<path d="M42.6667 96H37.3334V101.333H42.6667V96Z" fill="black"/>
<path d="M48 96H42.6667V101.333H48V96Z" fill="black"/>
<path d="M53.3333 96H48V101.333H53.3333V96Z" fill="#4D9055"/>
<path d="M58.6667 96H53.3334V101.333H58.6667V96Z" fill="#5FB05B"/>
<path d="M64 96H58.6667V101.333H64V96Z" fill="#82D680"/>
<path d="M69.3334 96H64V101.333H69.3334V96Z" fill="#82D680"/>
<path d="M74.6667 96H69.3333V101.333H74.6667V96Z" fill="#4D9055"/>
<path d="M80 96H74.6667V101.333H80V96Z" fill="#4D9055"/>
<path d="M85.3334 96H80V101.333H85.3334V96Z" fill="black"/>
<path d="M48 101.333H42.6667V106.667H48V101.333Z" fill="black"/>
<path d="M53.3333 101.333H48V106.667H53.3333V101.333Z" fill="#4D9055"/>
<path d="M58.6667 101.333H53.3334V106.667H58.6667V101.333Z" fill="#5FB05B"/>
<path d="M64 101.333H58.6667V106.667H64V101.333Z" fill="#82D680"/>
<path d="M69.3334 101.333H64V106.667H69.3334V101.333Z" fill="#82D680"/>
<path d="M74.6667 101.333H69.3333V106.667H74.6667V101.333Z" fill="#4D9055"/>
<path d="M80 101.333H74.6667V106.667H80V101.333Z" fill="#4D9055"/>
<path d="M85.3334 101.333H80V106.667H85.3334V101.333Z" fill="black"/>
<path d="M48 106.667H42.6667V112H48V106.667Z" fill="black"/>
<path d="M53.3333 106.667H48V112H53.3333V106.667Z" fill="#4D9055"/>
<path d="M58.6667 106.667H53.3334V112H58.6667V106.667Z" fill="#5FB05B"/>
<path d="M64 106.667H58.6667V112H64V106.667Z" fill="#5FB05B"/>
<path d="M69.3334 106.667H64V112H69.3334V106.667Z" fill="#82D680"/>
<path d="M74.6667 106.667H69.3333V112H74.6667V106.667Z" fill="#4D9055"/>
<path d="M80 106.667H74.6667V112H80V106.667Z" fill="#4D9055"/>
<path d="M85.3334 106.667H80V112H85.3334V106.667Z" fill="black"/>
<path d="M48 112H42.6667V117.333H48V112Z" fill="black"/>
<path d="M53.3333 112H48V117.333H53.3333V112Z" fill="#4D9055"/>
<path d="M58.6667 112H53.3334V117.333H58.6667V112Z" fill="#4D9055"/>
<path d="M64 112H58.6667V117.333H64V112Z" fill="#4D9055"/>
<path d="M69.3334 112H64V117.333H69.3334V112Z" fill="#4D9055"/>
<path d="M74.6667 112H69.3333V117.333H74.6667V112Z" fill="#4D9055"/>
<path d="M80 112H74.6667V117.333H80V112Z" fill="#4D9055"/>
<path d="M85.3334 112H80V117.333H85.3334V112Z" fill="black"/>
<path d="M53.3333 117.333H48V122.667H53.3333V117.333Z" fill="black"/>
<path d="M58.6667 117.333H53.3334V122.667H58.6667V117.333Z" fill="black"/>
<path d="M64 117.333H58.6667V122.667H64V117.333Z" fill="black"/>
<path d="M69.3334 117.333H64V122.667H69.3334V117.333Z" fill="black"/>
<path d="M74.6667 117.333H69.3333V122.667H74.6667V117.333Z" fill="black"/>
<path d="M80 117.333H74.6667V122.667H80V117.333Z" fill="black"/>
</svg>
