<svg width="24" height="24" viewBox="0 0 24 24" fill="none" xmlns="http://www.w3.org/2000/svg">
<rect width="1" height="1" transform="translate(0 8)" fill="black"/>
<rect width="1" height="1" transform="translate(0 9)" fill="black"/>
<rect width="1" height="1" transform="translate(0 10)" fill="black"/>
<rect width="1" height="1" transform="translate(0 11)" fill="black"/>
<rect width="1" height="1" transform="translate(0 12)" fill="black"/>
<rect width="1" height="1" transform="translate(1 6)" fill="black"/>
<rect width="1" height="1" transform="translate(1 7)" fill="black"/>
<rect width="1" height="1" transform="translate(1 8)" fill="#B4D69C"/>
<rect width="1" height="1" transform="translate(1 9)" fill="#557B2F"/>
<rect width="1" height="1" transform="translate(1 10)" fill="#557B2F"/>
<rect width="1" height="1" transform="translate(1 11)" fill="#557B2F"/>
<rect width="1" height="1" transform="translate(1 12)" fill="#557B2F"/>
<rect width="1" height="1" transform="translate(1 13)" fill="black"/>
<rect width="1" height="1" transform="translate(1 14)" fill="black"/>
<rect width="1" height="1" transform="translate(1 15)" fill="black"/>
<rect width="1" height="1" transform="translate(2 5)" fill="black"/>
<rect width="1" height="1" transform="translate(2 6)" fill="#B4D69C"/>
<rect width="1" height="1" transform="translate(2 7)" fill="#557B2F"/>
<rect width="1" height="1" transform="translate(2 8)" fill="#557B2F"/>
<rect width="1" height="1" transform="translate(2 9)" fill="#557B2F"/>
<rect width="1" height="1" transform="translate(2 10)" fill="#557B2F"/>
<rect width="1" height="1" transform="translate(2 11)" fill="#557B2F"/>
<rect width="1" height="1" transform="translate(2 12)" fill="#557B2F"/>
<rect width="1" height="1" transform="translate(2 13)" fill="#385713"/>
<rect width="1" height="1" transform="translate(2 14)" fill="#385713"/>
<rect width="1" height="1" transform="translate(2 15)" fill="#385713"/>
<rect width="1" height="1" transform="translate(2 16)" fill="black"/>
<rect width="1" height="1" transform="translate(3 4)" fill="black"/>
<rect width="1" height="1" transform="translate(3 5)" fill="#557B2F"/>
<rect width="1" height="1" transform="translate(3 6)" fill="#557B2F"/>
<rect width="1" height="1" transform="translate(3 7)" fill="#557B2F"/>
<rect width="1" height="1" transform="translate(3 8)" fill="#557B2F"/>
<rect width="1" height="1" transform="translate(3 9)" fill="#557B2F"/>
<rect width="1" height="1" transform="translate(3 10)" fill="#B4D69C"/>
<rect width="1" height="1" transform="translate(3 11)" fill="#B4D69C"/>
<rect width="1" height="1" transform="translate(3 12)" fill="#557B2F"/>
<rect width="1" height="1" transform="translate(3 13)" fill="#557B2F"/>
<rect width="1" height="1" transform="translate(3 14)" fill="#557B2F"/>
<rect width="1" height="1" transform="translate(3 15)" fill="black"/>
<rect width="1" height="1" transform="translate(4 2)" fill="black"/>
<rect width="1" height="1" transform="translate(4 4)" fill="black"/>
<rect width="1" height="1" transform="translate(4 5)" fill="#557B2F"/>
<rect width="1" height="1" transform="translate(4 6)" fill="#557B2F"/>
<rect width="1" height="1" transform="translate(4 7)" fill="#B4D69C"/>
<rect width="1" height="1" transform="translate(4 8)" fill="#B4D69C"/>
<rect width="1" height="1" transform="translate(4 9)" fill="#B4D69C"/>
<rect width="1" height="1" transform="translate(4 10)" fill="#B4D69C"/>
<rect width="1" height="1" transform="translate(4 11)" fill="#557B2F"/>
<rect width="1" height="1" transform="translate(4 12)" fill="#385713"/>
<rect width="1" height="1" transform="translate(4 13)" fill="#557B2F"/>
<rect width="1" height="1" transform="translate(4 14)" fill="black"/>
<rect width="1" height="1" transform="translate(4 15)" fill="black"/>
<rect width="1" height="1" transform="translate(5 1)" fill="black"/>
<rect width="1" height="1" transform="translate(5 2)" fill="#5C4A39"/>
<rect width="1" height="1" transform="translate(5 3)" fill="black"/>
<rect width="1" height="1" transform="translate(5 4)" fill="#557B2F"/>
<rect width="1" height="1" transform="translate(5 5)" fill="#B4D69C"/>
<rect width="1" height="1" transform="translate(5 6)" fill="#B4D69C"/>
<rect width="1" height="1" transform="translate(5 7)" fill="#B4D69C"/>
<rect width="1" height="1" transform="translate(5 8)" fill="#B4D69C"/>
<rect width="1" height="1" transform="translate(5 9)" fill="#B4D69C"/>
<rect width="1" height="1" transform="translate(5 10)" fill="#385713"/>
<rect width="1" height="1" transform="translate(5 11)" fill="#385713"/>
<rect width="1" height="1" transform="translate(5 12)" fill="#385713"/>
<rect width="1" height="1" transform="translate(5 13)" fill="#D29945"/>
<rect width="1" height="1" transform="translate(5 14)" fill="#D29945"/>
<rect width="1" height="1" transform="translate(5 15)" fill="#F5CD45"/>
<rect width="1" height="1" transform="translate(5 16)" fill="black"/>
<rect width="1" height="1" transform="translate(6 2)" fill="black"/>
<rect width="1" height="1" transform="translate(6 3)" fill="#5C4A39"/>
<rect width="1" height="1" transform="translate(6 4)" fill="#D29945"/>
<rect width="1" height="1" transform="translate(6 5)" fill="#D29945"/>
<rect width="1" height="1" transform="translate(6 6)" fill="#B4D69C"/>
<rect width="1" height="1" transform="translate(6 7)" fill="#B4D69C"/>
<rect width="1" height="1" transform="translate(6 8)" fill="#B4D69C"/>
<rect width="1" height="1" transform="translate(6 9)" fill="#D29945"/>
<rect width="1" height="1" transform="translate(6 10)" fill="#D29945"/>
<rect width="1" height="1" transform="translate(6 11)" fill="#D29945"/>
<rect width="1" height="1" transform="translate(6 12)" fill="#D29945"/>
<rect width="1" height="1" transform="translate(6 13)" fill="#D29945"/>
<rect width="1" height="1" transform="translate(6 14)" fill="#D29945"/>
<rect width="1" height="1" transform="translate(6 15)" fill="#D29945"/>
<rect width="1" height="1" transform="translate(6 16)" fill="#F5CD45"/>
<rect width="1" height="1" transform="translate(6 17)" fill="black"/>
<rect width="1" height="1" transform="translate(7 2)" fill="black"/>
<rect width="1" height="1" transform="translate(7 3)" fill="#B4D69C"/>
<rect width="1" height="1" transform="translate(7 4)" fill="#F5CD45"/>
<rect width="1" height="1" transform="translate(7 5)" fill="#F5CD45"/>
<rect width="1" height="1" transform="translate(7 6)" fill="#D29945"/>
<rect width="1" height="1" transform="translate(7 7)" fill="#D29945"/>
<rect width="1" height="1" transform="translate(7 8)" fill="#D29945"/>
<rect width="1" height="1" transform="translate(7 9)" fill="#F5CD45"/>
<rect width="1" height="1" transform="translate(7 10)" fill="#F5CD45"/>
<rect width="1" height="1" transform="translate(7 11)" fill="#F5CD45"/>
<rect width="1" height="1" transform="translate(7 12)" fill="#D29945"/>
<rect width="1" height="1" transform="translate(7 13)" fill="#D29945"/>
<rect width="1" height="1" transform="translate(7 14)" fill="#D29945"/>
<rect width="1" height="1" transform="translate(7 15)" fill="#D29945"/>
<rect width="1" height="1" transform="translate(7 16)" fill="#D29945"/>
<rect width="1" height="1" transform="translate(7 17)" fill="#F5CD45"/>
<rect width="1" height="1" transform="translate(7 18)" fill="black"/>
<rect width="1" height="1" transform="translate(8 1)" fill="black"/>
<rect width="1" height="1" transform="translate(8 2)" fill="#B4D69C"/>
<rect width="1" height="1" transform="translate(8 3)" fill="#557B2F"/>
<rect width="1" height="1" transform="translate(8 4)" fill="#F5CD45"/>
<rect width="1" height="1" transform="translate(8 5)" fill="#F5CD45"/>
<rect width="1" height="1" transform="translate(8 6)" fill="#FCEE87"/>
<rect width="1" height="1" transform="translate(8 7)" fill="#FCEE87"/>
<rect width="1" height="1" transform="translate(8 8)" fill="#F5CD45"/>
<rect width="1" height="1" transform="translate(8 9)" fill="#F5CD45"/>
<rect width="1" height="1" transform="translate(8 10)" fill="#F5CD45"/>
<rect width="1" height="1" transform="translate(8 11)" fill="#F5CD45"/>
<rect width="1" height="1" transform="translate(8 12)" fill="#F5CD45"/>
<rect width="1" height="1" transform="translate(8 13)" fill="#F5CD45"/>
<rect width="1" height="1" transform="translate(8 14)" fill="#D29945"/>
<rect width="1" height="1" transform="translate(8 15)" fill="#D29945"/>
<rect width="1" height="1" transform="translate(8 16)" fill="#D29945"/>
<rect width="1" height="1" transform="translate(8 17)" fill="#D29945"/>
<rect width="1" height="1" transform="translate(8 18)" fill="#F5CD45"/>
<rect width="1" height="1" transform="translate(8 19)" fill="black"/>
<rect width="1" height="1" transform="translate(9)" fill="black"/>
<rect width="1" height="1" transform="translate(9 1)" fill="#557B2F"/>
<rect width="1" height="1" transform="translate(9 2)" fill="#557B2F"/>
<rect width="1" height="1" transform="translate(9 3)" fill="#557B2F"/>
<rect width="1" height="1" transform="translate(9 4)" fill="#F5CD45"/>
<rect width="1" height="1" transform="translate(9 5)" fill="#F5CD45"/>
<rect width="1" height="1" transform="translate(9 6)" fill="#FCEE87"/>
<rect width="1" height="1" transform="translate(9 7)" fill="#FCEE87"/>
<rect width="1" height="1" transform="translate(9 8)" fill="#FCEE87"/>
<rect width="1" height="1" transform="translate(9 9)" fill="#FCEE87"/>
<rect width="1" height="1" transform="translate(9 10)" fill="#F5CD45"/>
<rect width="1" height="1" transform="translate(9 11)" fill="#F5CD45"/>
<rect width="1" height="1" transform="translate(9 12)" fill="#F5CD45"/>
<rect width="1" height="1" transform="translate(9 13)" fill="#F5CD45"/>
<rect width="1" height="1" transform="translate(9 14)" fill="#F5CD45"/>
<rect width="1" height="1" transform="translate(9 15)" fill="#D29945"/>
<rect width="1" height="1" transform="translate(9 16)" fill="#D29945"/>
<rect width="1" height="1" transform="translate(9 17)" fill="#D29945"/>
<rect width="1" height="1" transform="translate(9 18)" fill="#F5CD45"/>
<rect width="1" height="1" transform="translate(9 19)" fill="black"/>
<rect width="1" height="1" transform="translate(10)" fill="black"/>
<rect width="1" height="1" transform="translate(10 1)" fill="#385713"/>
<rect width="1" height="1" transform="translate(10 2)" fill="#385713"/>
<rect width="1" height="1" transform="translate(10 3)" fill="#557B2F"/>
<rect width="1" height="1" transform="translate(10 4)" fill="#F5CD45"/>
<rect width="1" height="1" transform="translate(10 5)" fill="#F5CD45"/>
<rect width="1" height="1" transform="translate(10 6)" fill="#FCEE87"/>
<rect width="1" height="1" transform="translate(10 7)" fill="#FCEE87"/>
<rect width="1" height="1" transform="translate(10 8)" fill="#FCEE87"/>
<rect width="1" height="1" transform="translate(10 9)" fill="#FCEE87"/>
<rect width="1" height="1" transform="translate(10 10)" fill="#FCEE87"/>
<rect width="1" height="1" transform="translate(10 11)" fill="#F5CD45"/>
<rect width="1" height="1" transform="translate(10 12)" fill="#F5CD45"/>
<rect width="1" height="1" transform="translate(10 13)" fill="#F5CD45"/>
<rect width="1" height="1" transform="translate(10 14)" fill="#F5CD45"/>
<rect width="1" height="1" transform="translate(10 15)" fill="#F5CD45"/>
<rect width="1" height="1" transform="translate(10 16)" fill="#D29945"/>
<rect width="1" height="1" transform="translate(10 17)" fill="#D29945"/>
<rect width="1" height="1" transform="translate(10 18)" fill="#D29945"/>
<rect width="1" height="1" transform="translate(10 19)" fill="#F5CD45"/>
<rect width="1" height="1" transform="translate(10 20)" fill="black"/>
<rect width="1" height="1" transform="translate(11)" fill="black"/>
<rect width="1" height="1" transform="translate(11 1)" fill="#385713"/>
<rect width="1" height="1" transform="translate(11 2)" fill="#385713"/>
<rect width="1" height="1" transform="translate(11 3)" fill="#557B2F"/>
<rect width="1" height="1" transform="translate(11 4)" fill="#D29945"/>
<rect width="1" height="1" transform="translate(11 5)" fill="#F5CD45"/>
<rect width="1" height="1" transform="translate(11 6)" fill="#FCEE87"/>
<rect width="1" height="1" transform="translate(11 7)" fill="#FCEE87"/>
<rect width="1" height="1" transform="translate(11 8)" fill="#FCEE87"/>
<rect width="1" height="1" transform="translate(11 9)" fill="#FCEE87"/>
<rect width="1" height="1" transform="translate(11 10)" fill="#FCEE87"/>
<rect width="1" height="1" transform="translate(11 11)" fill="#F5CD45"/>
<rect width="1" height="1" transform="translate(11 12)" fill="#F5CD45"/>
<rect width="1" height="1" transform="translate(11 13)" fill="#F5CD45"/>
<rect width="1" height="1" transform="translate(11 14)" fill="#F5CD45"/>
<rect width="1" height="1" transform="translate(11 15)" fill="#F5CD45"/>
<rect width="1" height="1" transform="translate(11 16)" fill="#F5CD45"/>
<rect width="1" height="1" transform="translate(11 17)" fill="#D29945"/>
<rect width="1" height="1" transform="translate(11 18)" fill="#D29945"/>
<rect width="1" height="1" transform="translate(11 19)" fill="#F5CD45"/>
<rect width="1" height="1" transform="translate(11 20)" fill="black"/>
<rect width="1" height="1" transform="translate(12 1)" fill="black"/>
<rect width="1" height="1" transform="translate(12 2)" fill="#385713"/>
<rect width="1" height="1" transform="translate(12 3)" fill="#557B2F"/>
<rect width="1" height="1" transform="translate(12 4)" fill="#D29945"/>
<rect width="1" height="1" transform="translate(12 5)" fill="#F5CD45"/>
<rect width="1" height="1" transform="translate(12 6)" fill="#FCEE87"/>
<rect width="1" height="1" transform="translate(12 7)" fill="#FCEE87"/>
<rect width="1" height="1" transform="translate(12 8)" fill="#FCEE87"/>
<rect width="1" height="1" transform="translate(12 9)" fill="#FCEE87"/>
<rect width="1" height="1" transform="translate(12 10)" fill="#FCEE87"/>
<rect width="1" height="1" transform="translate(12 11)" fill="#FCEE87"/>
<rect width="1" height="1" transform="translate(12 12)" fill="#F5CD45"/>
<rect width="1" height="1" transform="translate(12 13)" fill="#F5CD45"/>
<rect width="1" height="1" transform="translate(12 14)" fill="#F5CD45"/>
<rect width="1" height="1" transform="translate(12 15)" fill="#F5CD45"/>
<rect width="1" height="1" transform="translate(12 16)" fill="#F5CD45"/>
<rect width="1" height="1" transform="translate(12 17)" fill="#D29945"/>
<rect width="1" height="1" transform="translate(12 18)" fill="#D29945"/>
<rect width="1" height="1" transform="translate(12 19)" fill="#D29945"/>
<rect width="1" height="1" transform="translate(12 20)" fill="#F5CD45"/>
<rect width="1" height="1" transform="translate(12 21)" fill="black"/>
<rect width="1" height="1" transform="translate(13 1)" fill="black"/>
<rect width="1" height="1" transform="translate(13 2)" fill="#385713"/>
<rect width="1" height="1" transform="translate(13 3)" fill="#557B2F"/>
<rect width="1" height="1" transform="translate(13 4)" fill="#D29945"/>
<rect width="1" height="1" transform="translate(13 5)" fill="#F5CD45"/>
<rect width="1" height="1" transform="translate(13 6)" fill="#FCEE87"/>
<rect width="1" height="1" transform="translate(13 7)" fill="#FCEE87"/>
<rect width="1" height="1" transform="translate(13 8)" fill="#FCEE87"/>
<rect width="1" height="1" transform="translate(13 9)" fill="#FCEE87"/>
<rect width="1" height="1" transform="translate(13 10)" fill="#FCEE87"/>
<rect width="1" height="1" transform="translate(13 11)" fill="#FCEE87"/>
<rect width="1" height="1" transform="translate(13 12)" fill="#FCEE87"/>
<rect width="1" height="1" transform="translate(13 13)" fill="#F5CD45"/>
<rect width="1" height="1" transform="translate(13 14)" fill="#F5CD45"/>
<rect width="1" height="1" transform="translate(13 15)" fill="#F5CD45"/>
<rect width="1" height="1" transform="translate(13 16)" fill="#F5CD45"/>
<rect width="1" height="1" transform="translate(13 17)" fill="#F5CD45"/>
<rect width="1" height="1" transform="translate(13 18)" fill="#D29945"/>
<rect width="1" height="1" transform="translate(13 19)" fill="#D29945"/>
<rect width="1" height="1" transform="translate(13 20)" fill="#D29945"/>
<rect width="1" height="1" transform="translate(13 21)" fill="black"/>
<rect width="1" height="1" transform="translate(14 1)" fill="black"/>
<rect width="1" height="1" transform="translate(14 2)" fill="#557B2F"/>
<rect width="1" height="1" transform="translate(14 3)" fill="black"/>
<rect width="1" height="1" transform="translate(14 4)" fill="#D29945"/>
<rect width="1" height="1" transform="translate(14 5)" fill="#F5CD45"/>
<rect width="1" height="1" transform="translate(14 6)" fill="#FCEE87"/>
<rect width="1" height="1" transform="translate(14 7)" fill="#FCEE87"/>
<rect width="1" height="1" transform="translate(14 8)" fill="#FCEE87"/>
<rect width="1" height="1" transform="translate(14 9)" fill="#FCEE87"/>
<rect width="1" height="1" transform="translate(14 10)" fill="#FCEE87"/>
<rect width="1" height="1" transform="translate(14 11)" fill="#FCEE87"/>
<rect width="1" height="1" transform="translate(14 12)" fill="#FCEE87"/>
<rect width="1" height="1" transform="translate(14 13)" fill="#F5CD45"/>
<rect width="1" height="1" transform="translate(14 14)" fill="#F5CD45"/>
<rect width="1" height="1" transform="translate(14 15)" fill="#F5CD45"/>
<rect width="1" height="1" transform="translate(14 16)" fill="#F5CD45"/>
<rect width="1" height="1" transform="translate(14 17)" fill="#F5CD45"/>
<rect width="1" height="1" transform="translate(14 18)" fill="#D29945"/>
<rect width="1" height="1" transform="translate(14 19)" fill="#D29945"/>
<rect width="1" height="1" transform="translate(14 20)" fill="#D29945"/>
<rect width="1" height="1" transform="translate(14 21)" fill="black"/>
<rect width="1" height="1" transform="translate(15 1)" fill="black"/>
<rect width="1" height="1" transform="translate(15 2)" fill="black"/>
<rect width="1" height="1" transform="translate(15 3)" fill="black"/>
<rect width="1" height="1" transform="translate(15 4)" fill="#D29945"/>
<rect width="1" height="1" transform="translate(15 5)" fill="#F5CD45"/>
<rect width="1" height="1" transform="translate(15 6)" fill="#F5CD45"/>
<rect width="1" height="1" transform="translate(15 7)" fill="#FCEE87"/>
<rect width="1" height="1" transform="translate(15 8)" fill="#FCEE87"/>
<rect width="1" height="1" transform="translate(15 9)" fill="#FCEE87"/>
<rect width="1" height="1" transform="translate(15 10)" fill="#FCEE87"/>
<rect width="1" height="1" transform="translate(15 11)" fill="#FCEE87"/>
<rect width="1" height="1" transform="translate(15 12)" fill="#FCEE87"/>
<rect width="1" height="1" transform="translate(15 13)" fill="#FCEE87"/>
<rect width="1" height="1" transform="translate(15 14)" fill="#F5CD45"/>
<rect width="1" height="1" transform="translate(15 15)" fill="#F5CD45"/>
<rect width="1" height="1" transform="translate(15 16)" fill="#F5CD45"/>
<rect width="1" height="1" transform="translate(15 17)" fill="#F5CD45"/>
<rect width="1" height="1" transform="translate(15 18)" fill="#D29945"/>
<rect width="1" height="1" transform="translate(15 19)" fill="#D29945"/>
<rect width="1" height="1" transform="translate(15 20)" fill="#D29945"/>
<rect width="1" height="1" transform="translate(15 21)" fill="black"/>
<rect width="1" height="1" transform="translate(16 4)" fill="black"/>
<rect width="1" height="1" transform="translate(16 5)" fill="#D29945"/>
<rect width="1" height="1" transform="translate(16 6)" fill="#F5CD45"/>
<rect width="1" height="1" transform="translate(16 7)" fill="#F5CD45"/>
<rect width="1" height="1" transform="translate(16 8)" fill="#F5CD45"/>
<rect width="1" height="1" transform="translate(16 9)" fill="#FCEE87"/>
<rect width="1" height="1" transform="translate(16 10)" fill="#FCEE87"/>
<rect width="1" height="1" transform="translate(16 11)" fill="#FCEE87"/>
<rect width="1" height="1" transform="translate(16 12)" fill="#FCEE87"/>
<rect width="1" height="1" transform="translate(16 13)" fill="#F5CD45"/>
<rect width="1" height="1" transform="translate(16 14)" fill="#F5CD45"/>
<rect width="1" height="1" transform="translate(16 15)" fill="#F5CD45"/>
<rect width="1" height="1" transform="translate(16 16)" fill="#F5CD45"/>
<rect width="1" height="1" transform="translate(16 17)" fill="#F5CD45"/>
<rect width="1" height="1" transform="translate(16 18)" fill="#D29945"/>
<rect width="1" height="1" transform="translate(16 19)" fill="#D29945"/>
<rect width="1" height="1" transform="translate(16 20)" fill="black"/>
<rect width="1" height="1" transform="translate(17 5)" fill="black"/>
<rect width="1" height="1" transform="translate(17 6)" fill="#D29945"/>
<rect width="1" height="1" transform="translate(17 7)" fill="#F5CD45"/>
<rect width="1" height="1" transform="translate(17 8)" fill="#F5CD45"/>
<rect width="1" height="1" transform="translate(17 9)" fill="#F5CD45"/>
<rect width="1" height="1" transform="translate(17 10)" fill="#F5CD45"/>
<rect width="1" height="1" transform="translate(17 11)" fill="#F5CD45"/>
<rect width="1" height="1" transform="translate(17 12)" fill="#F5CD45"/>
<rect width="1" height="1" transform="translate(17 13)" fill="#F5CD45"/>
<rect width="1" height="1" transform="translate(17 14)" fill="#F5CD45"/>
<rect width="1" height="1" transform="translate(17 15)" fill="#F5CD45"/>
<rect width="1" height="1" transform="translate(17 16)" fill="#F5CD45"/>
<rect width="1" height="1" transform="translate(17 17)" fill="#F5CD45"/>
<rect width="1" height="1" transform="translate(17 18)" fill="#D29945"/>
<rect width="1" height="1" transform="translate(17 19)" fill="#D29945"/>
<rect width="1" height="1" transform="translate(17 20)" fill="black"/>
<rect width="1" height="1" transform="translate(18 6)" fill="black"/>
<rect width="1" height="1" transform="translate(18 7)" fill="#D29945"/>
<rect width="1" height="1" transform="translate(18 8)" fill="#D29945"/>
<rect width="1" height="1" transform="translate(18 9)" fill="#F5CD45"/>
<rect width="1" height="1" transform="translate(18 10)" fill="#F5CD45"/>
<rect width="1" height="1" transform="translate(18 11)" fill="#F5CD45"/>
<rect width="1" height="1" transform="translate(18 12)" fill="#F5CD45"/>
<rect width="1" height="1" transform="translate(18 13)" fill="#F5CD45"/>
<rect width="1" height="1" transform="translate(18 14)" fill="#F5CD45"/>
<rect width="1" height="1" transform="translate(18 15)" fill="#F5CD45"/>
<rect width="1" height="1" transform="translate(18 16)" fill="#D29945"/>
<rect width="1" height="1" transform="translate(18 17)" fill="#D29945"/>
<rect width="1" height="1" transform="translate(18 18)" fill="#D29945"/>
<rect width="1" height="1" transform="translate(18 19)" fill="#D29945"/>
<rect width="1" height="1" transform="translate(18 20)" fill="black"/>
<rect width="1" height="1" transform="translate(19 7)" fill="black"/>
<rect width="1" height="1" transform="translate(19 8)" fill="black"/>
<rect width="1" height="1" transform="translate(19 9)" fill="#D29945"/>
<rect width="1" height="1" transform="translate(19 10)" fill="#D29945"/>
<rect width="1" height="1" transform="translate(19 11)" fill="#D29945"/>
<rect width="1" height="1" transform="translate(19 12)" fill="#F5CD45"/>
<rect width="1" height="1" transform="translate(19 13)" fill="#F5CD45"/>
<rect width="1" height="1" transform="translate(19 14)" fill="#D29945"/>
<rect width="1" height="1" transform="translate(19 15)" fill="#D29945"/>
<rect width="1" height="1" transform="translate(19 16)" fill="#D29945"/>
<rect width="1" height="1" transform="translate(19 17)" fill="#D29945"/>
<rect width="1" height="1" transform="translate(19 18)" fill="black"/>
<rect width="1" height="1" transform="translate(19 19)" fill="black"/>
<rect width="1" height="1" transform="translate(20 9)" fill="black"/>
<rect width="1" height="1" transform="translate(20 10)" fill="black"/>
<rect width="1" height="1" transform="translate(20 11)" fill="#D29945"/>
<rect width="1" height="1" transform="translate(20 12)" fill="#D29945"/>
<rect width="1" height="1" transform="translate(20 13)" fill="#D29945"/>
<rect width="1" height="1" transform="translate(20 14)" fill="#D29945"/>
<rect width="1" height="1" transform="translate(20 15)" fill="black"/>
<rect width="1" height="1" transform="translate(20 16)" fill="black"/>
<rect width="1" height="1" transform="translate(20 17)" fill="black"/>
<rect width="1" height="1" transform="translate(21 11)" fill="black"/>
<rect width="1" height="1" transform="translate(21 12)" fill="black"/>
<rect width="1" height="1" transform="translate(21 13)" fill="black"/>
<rect width="1" height="1" transform="translate(21 14)" fill="black"/>
</svg>
