<svg width="128" height="128" viewBox="0 0 128 128" fill="none" xmlns="http://www.w3.org/2000/svg">
<path d="M58.6667 5.33337H64H69.3334H74.6667H80H85.3334H90.6667V10.6667H85.3334H80H74.6667H69.3334H64H58.6667V5.33337Z" fill="black"/>
<path d="M48 10.6666H53.3333H58.6667V16H53.3333H48V10.6666Z" fill="black"/>
<path d="M90.6667 10.6666H96V16V21.3333H90.6667V16V10.6666Z" fill="black"/>
<path d="M42.6667 16H48V21.3333V26.6667H42.6667V21.3333V16Z" fill="black"/>
<path d="M32 21.3334H37.3333V26.6667H32V21.3334Z" fill="black"/>
<path d="M85.3333 21.3334H90.6666V26.6667H85.3333V21.3334Z" fill="black"/>
<path d="M26.6667 26.6666H32V32V37.3333V42.6666H26.6667V37.3333V32V26.6666Z" fill="black"/>
<path d="M37.3333 26.6666H42.6666V32H37.3333V26.6666Z" fill="black"/>
<path d="M74.6667 26.6666H80H85.3334V32H90.6667V37.3333H85.3334H80V32H74.6667V26.6666Z" fill="black"/>
<path d="M90.6667 37.3334H96V42.6667H90.6667V37.3334Z" fill="black"/>
<path d="M21.3333 42.6666H26.6666V48H21.3333V42.6666Z" fill="black"/>
<path d="M96 42.6666H101.333V48H96V42.6666Z" fill="black"/>
<path d="M16 48H21.3333V53.3333H16V48Z" fill="black"/>
<path d="M101.333 48H106.667V53.3333V58.6667H101.333V53.3333V48Z" fill="black"/>
<path d="M10.6667 53.3334H16V58.6667V64V69.3334H10.6667V64V58.6667V53.3334Z" fill="black"/>
<path d="M106.667 58.6666H112V64V69.3333V74.6666V80V85.3333V90.6666H106.667V85.3333V80V74.6666V69.3333V64V58.6666Z" fill="black"/>
<path d="M5.33331 69.3334H10.6666V74.6667V80V85.3334V90.6667H5.33331V85.3334V80V74.6667V69.3334Z" fill="black"/>
<path d="M10.6667 90.6666H16V96V101.333H10.6667V96V90.6666Z" fill="black"/>
<path d="M101.333 90.6666H106.667V96V101.333H101.333V96V90.6666Z" fill="black"/>
<path d="M16 101.333H21.3333V106.667H16V101.333Z" fill="black"/>
<path d="M96 101.333H101.333V106.667H96V101.333Z" fill="black"/>
<path d="M21.3333 106.667H26.6666V112H21.3333V106.667Z" fill="black"/>
<path d="M90.6667 106.667H96V112H90.6667V106.667Z" fill="black"/>
<path d="M26.6667 112H32V117.333H26.6667V112Z" fill="black"/>
<path d="M85.3333 112H90.6666V117.333H85.3333V112Z" fill="black"/>
<path d="M32 117.333H37.3333H42.6667V122.667H37.3333H32V117.333Z" fill="black"/>
<path d="M74.6667 117.333H80H85.3334V122.667H80H74.6667V117.333Z" fill="black"/>
<path d="M42.6667 122.667H48H53.3334H58.6667H64H69.3334H74.6667V128H69.3334H64H58.6667H53.3334H48H42.6667V122.667Z" fill="black"/>
<path d="M58.6666 10.6666H64V16H69.3333H74.6666H80V21.3333H74.6666H69.3333H64H58.6666H53.3333V16H58.6666V10.6666Z" fill="#8C9C37"/>
<path d="M85.3333 16H90.6666V21.3333H85.3333V16Z" fill="#8C9C37"/>
<path d="M80 21.3334H85.3333V26.6667H80V21.3334Z" fill="#8C9C37"/>
<path d="M32 26.6666H37.3333V32V37.3333H32V32V26.6666Z" fill="#8C9C37"/>
<path d="M69.3333 26.6666H74.6666V32H69.3333V26.6666Z" fill="#8C9C37"/>
<path d="M53.3333 32H58.6666V37.3333H53.3333V32Z" fill="#8C9C37"/>
<path d="M37.3333 37.3334H42.6666V42.6667H37.3333V37.3334Z" fill="#8C9C37"/>
<path d="M42.6667 42.6666H48V48H42.6667V42.6666Z" fill="#8C9C37"/>
<path d="M64 10.6666H69.3333H74.6667H80H85.3333H90.6667V16H85.3333H80H74.6667H69.3333H64V10.6666Z" fill="#AEBF6B"/>
<path d="M48 16H53.3333V21.3333H58.6666H64H69.3333H74.6666H80V16H85.3333V21.3333H80V26.6667H74.6666H69.3333V32H64H58.6666H53.3333V37.3333H48V42.6667H42.6666V37.3333H37.3333V32H42.6666V26.6667H48V21.3333V16Z" fill="#567A13"/>
<path d="M58.6666 32H64H69.3333V37.3333H74.6666H80V42.6667H85.3333H90.6666V48H96V53.3333V58.6667H101.333V64V69.3333V74.6667V80V85.3333V90.6667V96H96V101.333H90.6666V106.667H85.3333V112H80V117.333H74.6666H69.3333H64H58.6666H53.3333H48H42.6666H37.3333V112H32V106.667H26.6666V101.333H21.3333V96H26.6666H32H37.3333H42.6666H48H53.3333V90.6667H58.6666V85.3333H64V80H69.3333V74.6667H74.6666V69.3333V64V58.6667V53.3333V48H69.3333V42.6667H64V37.3333H58.6666V32Z" fill="#C85E16"/>
<path d="M69.3333 32H74.6666V37.3333H69.3333V32Z" fill="#C77F4A"/>
<path d="M48 37.3334H53.3333V42.6667H48V37.3334Z" fill="#C77F4A"/>
<path d="M80 37.3334H85.3333V42.6667H80V37.3334Z" fill="#C77F4A"/>
<path d="M37.3333 42.6666H42.6666V48H37.3333V42.6666Z" fill="#C77F4A"/>
<path d="M96 53.3334H101.333V58.6667H96V53.3334Z" fill="#C77F4A"/>
<path d="M101.333 69.3334H106.667V74.6667V80H101.333V74.6667V69.3334Z" fill="#C77F4A"/>
<path d="M21.3333 101.333H26.6666V106.667H21.3333V101.333Z" fill="#C77F4A"/>
<path d="M26.6667 106.667H32V112H26.6667V106.667Z" fill="#C77F4A"/>
<path d="M32 112H37.3333V117.333H32V112Z" fill="#C77F4A"/>
<path d="M42.6667 117.333H48H53.3334H58.6667H64V122.667H58.6667H53.3334H48H42.6667V117.333Z" fill="#C77F4A"/>
<path d="M74.6667 32H80V37.3333H74.6667V32Z" fill="#DC9264"/>
<path d="M85.3333 37.3334H90.6666V42.6667H85.3333V37.3334Z" fill="#DC9264"/>
<path d="M90.6667 42.6666H96V48H90.6667V42.6666Z" fill="#DC9264"/>
<path d="M96 48H101.333V53.3333H96V48Z" fill="#DC9264"/>
<path d="M101.333 58.6666H106.667V64V69.3333H101.333V64V58.6666Z" fill="#DC9264"/>
<path d="M10.6667 74.6666H16V80V85.3333V90.6666H10.6667V85.3333V80V74.6666Z" fill="#DC9264"/>
<path d="M101.333 80H106.667V85.3333V90.6667H101.333V85.3333V80Z" fill="#DC9264"/>
<path d="M16 90.6666H21.3333V96V101.333H16V96V90.6666Z" fill="#DC9264"/>
<path d="M96 96H101.333V101.333H96V96Z" fill="#DC9264"/>
<path d="M90.6667 101.333H96V106.667H90.6667V101.333Z" fill="#DC9264"/>
<path d="M85.3333 106.667H90.6666V112H85.3333V106.667Z" fill="#DC9264"/>
<path d="M80 112H85.3333V117.333H80V112Z" fill="#DC9264"/>
<path d="M64 117.333H69.3333H74.6667V122.667H69.3333H64V117.333Z" fill="#DC9264"/>
<path d="M32 37.3334H37.3334V42.6667V48H42.6667V53.3334H48V48V42.6667H53.3334V48V53.3334H58.6667V58.6667V64H64V69.3334H58.6667V74.6667H53.3334V80H48V85.3334H42.6667H37.3334H32H26.6667V80H21.3334H16V74.6667H10.6667V69.3334H16V64V58.6667V53.3334H21.3334V48H26.6667V42.6667H32V37.3334Z" fill="#FEB75D"/>
<path d="M53.3333 37.3334H58.6667H64V42.6667H69.3333V48H74.6667V53.3334V58.6667V64V69.3334V74.6667H69.3333V80H64V85.3334H58.6667V90.6667H53.3333V96H48H42.6667H37.3333H32H26.6667H21.3333V90.6667H16V85.3334V80H21.3333H26.6667V85.3334H32H37.3333H42.6667H48V80H53.3333V74.6667H58.6667V69.3334H64V64H58.6667V58.6667V53.3334H53.3333V48V42.6667V37.3334Z" fill="#FA8B2C"/>
<path d="M42.6667 48H48V53.3333H42.6667V48Z" fill="#FA8B2C"/>
</svg>
