<svg width="128" height="128" viewBox="0 0 128 128" fill="none" xmlns="http://www.w3.org/2000/svg">
<path d="M64 8H60V12H64V8Z" fill="#DA5473"/>
<path d="M68 8H64V12H68V8Z" fill="#DA5473"/>
<path d="M36 12H32V16H36V12Z" fill="#E9356E"/>
<path d="M40 12H36V16H40V12Z" fill="#E9356E"/>
<path d="M56 12H52V16H56V12Z" fill="#DA5473"/>
<path d="M60 12H56V16H60V12Z" fill="#DA5473"/>
<path d="M64 12H60V16H64V12Z" fill="#F91B53"/>
<path d="M68 12H64V16H68V12Z" fill="#F91B53"/>
<path d="M72 12H68V16H72V12Z" fill="#DA5473"/>
<path d="M76 12H72V16H76V12Z" fill="#DA5473"/>
<path d="M92 12H88V16H92V12Z" fill="#FF4C86"/>
<path d="M96 12H92V16H96V12Z" fill="#FF4C86"/>
<path d="M36 16H32V20H36V16Z" fill="#E9356E"/>
<path d="M40 16H36V20H40V16Z" fill="#E9356E"/>
<path d="M44 16H40V20H44V16Z" fill="#DA5473"/>
<path d="M52 16H48V20H52V16Z" fill="#DA5473"/>
<path d="M56 16H52V20H56V16Z" fill="#F91B53"/>
<path d="M60 16H56V20H60V16Z" fill="#F91B53"/>
<path d="M64 16H60V20H64V16Z" fill="#F91B53"/>
<path d="M68 16H64V20H68V16Z" fill="#F91B53"/>
<path d="M72 16H68V20H72V16Z" fill="#F91B53"/>
<path d="M76 16H72V20H76V16Z" fill="#F91B53"/>
<path d="M80 16H76V20H80V16Z" fill="#DA5473"/>
<path d="M88 16H84V20H88V16Z" fill="#DA5473"/>
<path d="M92 16H88V20H92V16Z" fill="#FF4C86"/>
<path d="M96 16H92V20H96V16Z" fill="#FF4C86"/>
<path d="M36 20H32V24H36V20Z" fill="#E9356E"/>
<path d="M40 20H36V24H40V20Z" fill="#E9356E"/>
<path d="M44 20H40V24H44V20Z" fill="#E9356E"/>
<path d="M48 20H44V24H48V20Z" fill="#DA5473"/>
<path d="M52 20H48V24H52V20Z" fill="#F91B53"/>
<path d="M56 20H52V24H56V20Z" fill="#F91B53"/>
<path d="M60 20H56V24H60V20Z" fill="#F91B53"/>
<path d="M64 20H60V24H64V20Z" fill="#F91B53"/>
<path d="M68 20H64V24H68V20Z" fill="#F91B53"/>
<path d="M72 20H68V24H72V20Z" fill="#F91B53"/>
<path d="M76 20H72V24H76V20Z" fill="#F91B53"/>
<path d="M80 20H76V24H80V20Z" fill="#F91B53"/>
<path d="M84 20H80V24H84V20Z" fill="#DA5473"/>
<path d="M88 20H84V24H88V20Z" fill="#FF4C86"/>
<path d="M92 20H88V24H92V20Z" fill="#FF4C86"/>
<path d="M96 20H92V24H96V20Z" fill="#FF4C86"/>
<path d="M40 24H36V28H40V24Z" fill="#E9356E"/>
<path d="M44 24H40V28H44V24Z" fill="#E9356E"/>
<path d="M48 24H44V28H48V24Z" fill="#DA5473"/>
<path d="M52 24H48V28H52V24Z" fill="#F91B53"/>
<path d="M56 24H52V28H56V24Z" fill="#F91B53"/>
<path d="M60 24H56V28H60V24Z" fill="#F91B53"/>
<path d="M64 24H60V28H64V24Z" fill="#F91B53"/>
<path d="M68 24H64V28H68V24Z" fill="#F91B53"/>
<path d="M72 24H68V28H72V24Z" fill="#F91B53"/>
<path d="M76 24H72V28H76V24Z" fill="#F91B53"/>
<path d="M80 24H76V28H80V24Z" fill="#F91B53"/>
<path d="M84 24H80V28H84V24Z" fill="#DA5473"/>
<path d="M88 24H84V28H88V24Z" fill="#FF4C86"/>
<path d="M92 24H88V28H92V24Z" fill="#FF4C86"/>
<path d="M40 28H36V32H40V28Z" fill="#E9356E"/>
<path d="M44 28H40V32H44V28Z" fill="#E9356E"/>
<path d="M48 28H44V32H48V28Z" fill="#DA5473"/>
<path d="M52 28H48V32H52V28Z" fill="#DA5473"/>
<path d="M56 28H52V32H56V28Z" fill="#F91B53"/>
<path d="M60 28H56V32H60V28Z" fill="#F91B53"/>
<path d="M64 28H60V32H64V28Z" fill="#F91B53"/>
<path d="M68 28H64V32H68V28Z" fill="#F91B53"/>
<path d="M72 28H68V32H72V28Z" fill="#F91B53"/>
<path d="M76 28H72V32H76V28Z" fill="#F91B53"/>
<path d="M80 28H76V32H80V28Z" fill="#DA5473"/>
<path d="M84 28H80V32H84V28Z" fill="#FF4C86"/>
<path d="M88 28H84V32H88V28Z" fill="#FF4C86"/>
<path d="M92 28H88V32H92V28Z" fill="#FF4C86"/>
<path d="M40 32H36V36H40V32Z" fill="#E9356E"/>
<path d="M44 32H40V36H44V32Z" fill="#E9356E"/>
<path d="M48 32H44V36H48V32Z" fill="#E9356E"/>
<path d="M52 32H48V36H52V32Z" fill="#DA5473"/>
<path d="M56 32H52V36H56V32Z" fill="#DA5473"/>
<path d="M60 32H56V36H60V32Z" fill="#F91B53"/>
<path d="M64 32H60V36H64V32Z" fill="#F91B53"/>
<path d="M68 32H64V36H68V32Z" fill="#F91B53"/>
<path d="M72 32H68V36H72V32Z" fill="#F91B53"/>
<path d="M76 32H72V36H76V32Z" fill="#DA5473"/>
<path d="M80 32H76V36H80V32Z" fill="#FF4C86"/>
<path d="M84 32H80V36H84V32Z" fill="#FF4C86"/>
<path d="M88 32H84V36H88V32Z" fill="#FF4C86"/>
<path d="M92 32H88V36H92V32Z" fill="#FF7CA3"/>
<path d="M40 36H36V40H40V36Z" fill="#E9356E"/>
<path d="M44 36H40V40H44V36Z" fill="#E9356E"/>
<path d="M48 36H44V40H48V36Z" fill="#E9356E"/>
<path d="M52 36H48V40H52V36Z" fill="#E9356E"/>
<path d="M56 36H52V40H56V36Z" fill="#DA5473"/>
<path d="M60 36H56V40H60V36Z" fill="#DA5473"/>
<path d="M64 36H60V40H64V36Z" fill="#F91B53"/>
<path d="M68 36H64V40H68V36Z" fill="#F91B53"/>
<path d="M72 36H68V40H72V36Z" fill="#DA5473"/>
<path d="M76 36H72V40H76V36Z" fill="#FF4C86"/>
<path d="M80 36H76V40H80V36Z" fill="#FF4C86"/>
<path d="M84 36H80V40H84V36Z" fill="#FF7CA3"/>
<path d="M88 36H84V40H88V36Z" fill="#FF7CA3"/>
<path d="M92 36H88V40H92V36Z" fill="#FF7CA3"/>
<path d="M40 40H36V44H40V40Z" fill="#E9356E"/>
<path d="M44 40H40V44H44V40Z" fill="#E9356E"/>
<path d="M48 40H44V44H48V40Z" fill="#E9356E"/>
<path d="M52 40H48V44H52V40Z" fill="#E9356E"/>
<path d="M56 40H52V44H56V40Z" fill="#E9356E"/>
<path d="M60 40H56V44H60V40Z" fill="#DA5473"/>
<path d="M64 40H60V44H64V40Z" fill="#F91B53"/>
<path d="M68 40H64V44H68V40Z" fill="#DA5473"/>
<path d="M72 40H68V44H72V40Z" fill="#FF4C86"/>
<path d="M76 40H72V44H76V40Z" fill="#FF7CA3"/>
<path d="M80 40H76V44H80V40Z" fill="#FF7CA3"/>
<path d="M84 40H80V44H84V40Z" fill="#FF7CA3"/>
<path d="M88 40H84V44H88V40Z" fill="#FF7CA3"/>
<path d="M92 40H88V44H92V40Z" fill="#FF7CA3"/>
<path d="M40 44H36V48H40V44Z" fill="#E9356E"/>
<path d="M44 44H40V48H44V44Z" fill="#E9356E"/>
<path d="M48 44H44V48H48V44Z" fill="#E9356E"/>
<path d="M52 44H48V48H52V44Z" fill="#E9356E"/>
<path d="M56 44H52V48H56V44Z" fill="#E9356E"/>
<path d="M60 44H56V48H60V44Z" fill="#DA5473"/>
<path d="M64 44H60V48H64V44Z" fill="#DA5473"/>
<path d="M68 44H64V48H68V44Z" fill="#FF7CA3"/>
<path d="M72 44H68V48H72V44Z" fill="#FF7CA3"/>
<path d="M76 44H72V48H76V44Z" fill="#FF7CA3"/>
<path d="M80 44H76V48H80V44Z" fill="#FF7CA3"/>
<path d="M84 44H80V48H84V44Z" fill="#FF7CA3"/>
<path d="M88 44H84V48H88V44Z" fill="#FF7CA3"/>
<path d="M92 44H88V48H92V44Z" fill="#FF7CA3"/>
<path d="M40 48H36V52H40V48Z" fill="#DA5473"/>
<path d="M44 48H40V52H44V48Z" fill="#DA5473"/>
<path d="M48 48H44V52H48V48Z" fill="#E9356E"/>
<path d="M52 48H48V52H52V48Z" fill="#E9356E"/>
<path d="M56 48H52V52H56V48Z" fill="#E9356E"/>
<path d="M60 48H56V52H60V48Z" fill="#DA5473"/>
<path d="M64 48H60V52H64V48Z" fill="#DA5473"/>
<path d="M68 48H64V52H68V48Z" fill="#FF7CA3"/>
<path d="M72 48H68V52H72V48Z" fill="#FF7CA3"/>
<path d="M76 48H72V52H76V48Z" fill="#FF7CA3"/>
<path d="M80 48H76V52H80V48Z" fill="#FF7CA3"/>
<path d="M84 48H80V52H84V48Z" fill="#FF7CA3"/>
<path d="M88 48H84V52H88V48Z" fill="#FF7CA3"/>
<path d="M92 48H88V52H92V48Z" fill="#FF7CA3"/>
<path d="M40 52H36V56H40V52Z" fill="#DA5473"/>
<path d="M44 52H40V56H44V52Z" fill="#DA5473"/>
<path d="M48 52H44V56H48V52Z" fill="#DA5473"/>
<path d="M52 52H48V56H52V52Z" fill="#DA5473"/>
<path d="M56 52H52V56H56V52Z" fill="#E9356E"/>
<path d="M60 52H56V56H60V52Z" fill="#E9356E"/>
<path d="M64 52H60V56H64V52Z" fill="#DA5473"/>
<path d="M68 52H64V56H68V52Z" fill="#DA5473"/>
<path d="M72 52H68V56H72V52Z" fill="#FF7CA3"/>
<path d="M76 52H72V56H76V52Z" fill="#FF7CA3"/>
<path d="M80 52H76V56H80V52Z" fill="#FF7CA3"/>
<path d="M84 52H80V56H84V52Z" fill="#FF7CA3"/>
<path d="M88 52H84V56H88V52Z" fill="#FF7CA3"/>
<path d="M92 52H88V56H92V52Z" fill="#FF7CA3"/>
<path d="M28 56H24V60H28V56Z" fill="#648A4A"/>
<path d="M40 56H36V60H40V56Z" fill="#DA5473"/>
<path d="M44 56H40V60H44V56Z" fill="#DA5473"/>
<path d="M48 56H44V60H48V56Z" fill="#DA5473"/>
<path d="M52 56H48V60H52V56Z" fill="#DA5473"/>
<path d="M56 56H52V60H56V56Z" fill="#DA5473"/>
<path d="M60 56H56V60H60V56Z" fill="#DA5473"/>
<path d="M64 56H60V60H64V56Z" fill="#DA5473"/>
<path d="M68 56H64V60H68V56Z" fill="#DA5473"/>
<path d="M72 56H68V60H72V56Z" fill="#FF7CA3"/>
<path d="M76 56H72V60H76V56Z" fill="#FF7CA3"/>
<path d="M80 56H76V60H80V56Z" fill="#FF7CA3"/>
<path d="M84 56H80V60H84V56Z" fill="#FF7CA3"/>
<path d="M88 56H84V60H88V56Z" fill="#FF7CA3"/>
<path d="M92 56H88V60H92V56Z" fill="#FF7CA3"/>
<path d="M108 56H104V60H108V56Z" fill="#648A4A"/>
<path d="M28 60H24V64H28V60Z" fill="#648A4A"/>
<path d="M32 60H28V64H32V60Z" fill="#648A4A"/>
<path d="M44 60H40V64H44V60Z" fill="#DA5473"/>
<path d="M48 60H44V64H48V60Z" fill="#DA5473"/>
<path d="M52 60H48V64H52V60Z" fill="#DA5473"/>
<path d="M56 60H52V64H56V60Z" fill="#DA5473"/>
<path d="M60 60H56V64H60V60Z" fill="#DA5473"/>
<path d="M64 60H60V64H64V60Z" fill="#DA5473"/>
<path d="M68 60H64V64H68V60Z" fill="#DA5473"/>
<path d="M72 60H68V64H72V60Z" fill="#DA5473"/>
<path d="M76 60H72V64H76V60Z" fill="#FF7CA3"/>
<path d="M80 60H76V64H80V60Z" fill="#FF7CA3"/>
<path d="M84 60H80V64H84V60Z" fill="#FF7CA3"/>
<path d="M88 60H84V64H88V60Z" fill="#FF7CA3"/>
<path d="M92 60H88V64H92V60Z" fill="#FF7CA3"/>
<path d="M104 60H100V64H104V60Z" fill="#648A4A"/>
<path d="M108 60H104V64H108V60Z" fill="#648A4A"/>
<path d="M28 64H24V68H28V64Z" fill="#A6D851"/>
<path d="M32 64H28V68H32V64Z" fill="#648A4A"/>
<path d="M36 64H32V68H36V64Z" fill="#648A4A"/>
<path d="M48 64H44V68H48V64Z" fill="#DA5473"/>
<path d="M52 64H48V68H52V64Z" fill="#DA5473"/>
<path d="M56 64H52V68H56V64Z" fill="#DA5473"/>
<path d="M60 64H56V68H60V64Z" fill="#DA5473"/>
<path d="M64 64H60V68H64V64Z" fill="#DA5473"/>
<path d="M68 64H64V68H68V64Z" fill="#DA5473"/>
<path d="M72 64H68V68H72V64Z" fill="#DA5473"/>
<path d="M76 64H72V68H76V64Z" fill="#DA5473"/>
<path d="M80 64H76V68H80V64Z" fill="#FF7CA3"/>
<path d="M84 64H80V68H84V64Z" fill="#FF7CA3"/>
<path d="M88 64H84V68H88V64Z" fill="#FF7CA3"/>
<path d="M100 64H96V68H100V64Z" fill="#648A4A"/>
<path d="M104 64H100V68H104V64Z" fill="#648A4A"/>
<path d="M108 64H104V68H108V64Z" fill="#A6D851"/>
<path d="M28 68H24V72H28V68Z" fill="#A6D851"/>
<path d="M32 68H28V72H32V68Z" fill="#A6D851"/>
<path d="M36 68H32V72H36V68Z" fill="#648A4A"/>
<path d="M40 68H36V72H40V68Z" fill="#648A4A"/>
<path d="M52 68H48V72H52V68Z" fill="#DA5473"/>
<path d="M56 68H52V72H56V68Z" fill="#DA5473"/>
<path d="M60 68H56V72H60V68Z" fill="#DA5473"/>
<path d="M64 68H60V72H64V68Z" fill="#DA5473"/>
<path d="M68 68H64V72H68V68Z" fill="#DA5473"/>
<path d="M72 68H68V72H72V68Z" fill="#DA5473"/>
<path d="M76 68H72V72H76V68Z" fill="#DA5473"/>
<path d="M80 68H76V72H80V68Z" fill="#FF7CA3"/>
<path d="M84 68H80V72H84V68Z" fill="#FF7CA3"/>
<path d="M96 68H92V72H96V68Z" fill="#648A4A"/>
<path d="M100 68H96V72H100V68Z" fill="#648A4A"/>
<path d="M104 68H100V72H104V68Z" fill="#A6D851"/>
<path d="M108 68H104V72H108V68Z" fill="#A6D851"/>
<path d="M28 72H24V76H28V72Z" fill="#648A4A"/>
<path d="M32 72H28V76H32V72Z" fill="#A6D851"/>
<path d="M36 72H32V76H36V72Z" fill="#A6D851"/>
<path d="M40 72H36V76H40V72Z" fill="#648A4A"/>
<path d="M44 72H40V76H44V72Z" fill="#648A4A"/>
<path d="M60 72H56V76H60V72Z" fill="#DA5473"/>
<path d="M64 72H60V76H64V72Z" fill="#DA5473"/>
<path d="M68 72H64V76H68V72Z" fill="#DA5473"/>
<path d="M72 72H68V76H72V72Z" fill="#DA5473"/>
<path d="M76 72H72V76H76V72Z" fill="#DA5473"/>
<path d="M92 72H88V76H92V72Z" fill="#648A4A"/>
<path d="M96 72H92V76H96V72Z" fill="#648A4A"/>
<path d="M100 72H96V76H100V72Z" fill="#A6D851"/>
<path d="M104 72H100V76H104V72Z" fill="#A6D851"/>
<path d="M108 72H104V76H108V72Z" fill="#648A4A"/>
<path d="M32 76H28V80H32V76Z" fill="#648A4A"/>
<path d="M36 76H32V80H36V76Z" fill="#A6D851"/>
<path d="M40 76H36V80H40V76Z" fill="#A6D851"/>
<path d="M44 76H40V80H44V76Z" fill="#648A4A"/>
<path d="M48 76H44V80H48V76Z" fill="#648A4A"/>
<path d="M64 76H60V80H64V76Z" fill="#648A4A"/>
<path d="M68 76H64V80H68V76Z" fill="#A6D851"/>
<path d="M72 76H68V80H72V76Z" fill="#648A4A"/>
<path d="M88 76H84V80H88V76Z" fill="#648A4A"/>
<path d="M92 76H88V80H92V76Z" fill="#648A4A"/>
<path d="M96 76H92V80H96V76Z" fill="#A6D851"/>
<path d="M100 76H96V80H100V76Z" fill="#A6D851"/>
<path d="M104 76H100V80H104V76Z" fill="#648A4A"/>
<path d="M36 80H32V84H36V80Z" fill="#648A4A"/>
<path d="M40 80H36V84H40V80Z" fill="#A6D851"/>
<path d="M44 80H40V84H44V80Z" fill="#648A4A"/>
<path d="M48 80H44V84H48V80Z" fill="#648A4A"/>
<path d="M52 80H48V84H52V80Z" fill="#648A4A"/>
<path d="M64 80H60V84H64V80Z" fill="#648A4A"/>
<path d="M68 80H64V84H68V80Z" fill="#A6D851"/>
<path d="M72 80H68V84H72V80Z" fill="#648A4A"/>
<path d="M84 80H80V84H84V80Z" fill="#648A4A"/>
<path d="M88 80H84V84H88V80Z" fill="#648A4A"/>
<path d="M92 80H88V84H92V80Z" fill="#A6D851"/>
<path d="M96 80H92V84H96V80Z" fill="#A6D851"/>
<path d="M100 80H96V84H100V80Z" fill="#648A4A"/>
<path d="M40 84H36V88H40V84Z" fill="#648A4A"/>
<path d="M44 84H40V88H44V84Z" fill="#A6D851"/>
<path d="M48 84H44V88H48V84Z" fill="#648A4A"/>
<path d="M52 84H48V88H52V84Z" fill="#648A4A"/>
<path d="M56 84H52V88H56V84Z" fill="#648A4A"/>
<path d="M64 84H60V88H64V84Z" fill="#648A4A"/>
<path d="M68 84H64V88H68V84Z" fill="#A6D851"/>
<path d="M72 84H68V88H72V84Z" fill="#648A4A"/>
<path d="M80 84H76V88H80V84Z" fill="#648A4A"/>
<path d="M84 84H80V88H84V84Z" fill="#648A4A"/>
<path d="M88 84H84V88H88V84Z" fill="#648A4A"/>
<path d="M92 84H88V88H92V84Z" fill="#A6D851"/>
<path d="M96 84H92V88H96V84Z" fill="#648A4A"/>
<path d="M44 88H40V92H44V88Z" fill="#648A4A"/>
<path d="M48 88H44V92H48V88Z" fill="#A6D851"/>
<path d="M52 88H48V92H52V88Z" fill="#648A4A"/>
<path d="M56 88H52V92H56V88Z" fill="#648A4A"/>
<path d="M64 88H60V92H64V88Z" fill="#648A4A"/>
<path d="M68 88H64V92H68V88Z" fill="#A6D851"/>
<path d="M72 88H68V92H72V88Z" fill="#648A4A"/>
<path d="M80 88H76V92H80V88Z" fill="#648A4A"/>
<path d="M84 88H80V92H84V88Z" fill="#648A4A"/>
<path d="M88 88H84V92H88V88Z" fill="#A6D851"/>
<path d="M92 88H88V92H92V88Z" fill="#648A4A"/>
<path d="M48 92H44V96H48V92Z" fill="#648A4A"/>
<path d="M52 92H48V96H52V92Z" fill="#A6D851"/>
<path d="M56 92H52V96H56V92Z" fill="#648A4A"/>
<path d="M60 92H56V96H60V92Z" fill="#648A4A"/>
<path d="M64 92H60V96H64V92Z" fill="#648A4A"/>
<path d="M68 92H64V96H68V92Z" fill="#A6D851"/>
<path d="M72 92H68V96H72V92Z" fill="#648A4A"/>
<path d="M76 92H72V96H76V92Z" fill="#648A4A"/>
<path d="M80 92H76V96H80V92Z" fill="#648A4A"/>
<path d="M84 92H80V96H84V92Z" fill="#A6D851"/>
<path d="M88 92H84V96H88V92Z" fill="#648A4A"/>
<path d="M52 96H48V100H52V96Z" fill="#648A4A"/>
<path d="M56 96H52V100H56V96Z" fill="#A6D851"/>
<path d="M60 96H56V100H60V96Z" fill="#648A4A"/>
<path d="M64 96H60V100H64V96Z" fill="#648A4A"/>
<path d="M68 96H64V100H68V96Z" fill="#A6D851"/>
<path d="M72 96H68V100H72V96Z" fill="#648A4A"/>
<path d="M76 96H72V100H76V96Z" fill="#648A4A"/>
<path d="M80 96H76V100H80V96Z" fill="#A6D851"/>
<path d="M84 96H80V100H84V96Z" fill="#648A4A"/>
<path d="M56 100H52V104H56V100Z" fill="#648A4A"/>
<path d="M60 100H56V104H60V100Z" fill="#648A4A"/>
<path d="M64 100H60V104H64V100Z" fill="#648A4A"/>
<path d="M68 100H64V104H68V100Z" fill="#A6D851"/>
<path d="M72 100H68V104H72V100Z" fill="#648A4A"/>
<path d="M76 100H72V104H76V100Z" fill="#648A4A"/>
<path d="M80 100H76V104H80V100Z" fill="#648A4A"/>
<path d="M60 104H56V108H60V104Z" fill="#648A4A"/>
<path d="M64 104H60V108H64V104Z" fill="#648A4A"/>
<path d="M68 104H64V108H68V104Z" fill="#A6D851"/>
<path d="M72 104H68V108H72V104Z" fill="#648A4A"/>
<path d="M76 104H72V108H76V104Z" fill="#648A4A"/>
<path d="M60 108H56V112H60V108Z" fill="#648A4A"/>
<path d="M64 108H60V112H64V108Z" fill="#648A4A"/>
<path d="M68 108H64V112H68V108Z" fill="#A6D851"/>
<path d="M72 108H68V112H72V108Z" fill="#648A4A"/>
<path d="M76 108H72V112H76V108Z" fill="#648A4A"/>
<path d="M64 112H60V116H64V112Z" fill="#648A4A"/>
<path d="M68 112H64V116H68V112Z" fill="#A6D851"/>
<path d="M72 112H68V116H72V112Z" fill="#648A4A"/>
<path d="M68 116H64V120H68V116Z" fill="#A6D851"/>
<path d="M64 4H60V8H64V4Z" fill="black"/>
<path d="M68 4H64V8H68V4Z" fill="black"/>
<path d="M36 8H32V12H36V8Z" fill="black"/>
<path d="M40 8H36V12H40V8Z" fill="black"/>
<path d="M56 8H52V12H56V8Z" fill="black"/>
<path d="M60 8H56V12H60V8Z" fill="black"/>
<path d="M72 8H68V12H72V8Z" fill="black"/>
<path d="M76 8H72V12H76V8Z" fill="black"/>
<path d="M92 8H88V12H92V8Z" fill="black"/>
<path d="M96 8H92V12H96V8Z" fill="black"/>
<path d="M32 12H28V16H32V12Z" fill="black"/>
<path d="M44 12H40V16H44V12Z" fill="black"/>
<path d="M52 12H48V16H52V12Z" fill="black"/>
<path d="M80 12H76V16H80V12Z" fill="black"/>
<path d="M88 12H84V16H88V12Z" fill="black"/>
<path d="M100 12H96V16H100V12Z" fill="black"/>
<path d="M32 16H28V20H32V16Z" fill="black"/>
<path d="M48 16H44V20H48V16Z" fill="black"/>
<path d="M84 16H80V20H84V16Z" fill="black"/>
<path d="M100 16H96V20H100V16Z" fill="black"/>
<path d="M32 20H28V24H32V20Z" fill="black"/>
<path d="M100 20H96V24H100V20Z" fill="black"/>
<path d="M32 24H28V28H32V24Z" fill="black"/>
<path d="M36 24H32V28H36V24Z" fill="black"/>
<path d="M96 24H92V28H96V24Z" fill="black"/>
<path d="M100 24H96V28H100V24Z" fill="black"/>
<path d="M36 28H32V32H36V28Z" fill="black"/>
<path d="M96 28H92V32H96V28Z" fill="black"/>
<path d="M36 32H32V36H36V32Z" fill="black"/>
<path d="M96 32H92V36H96V32Z" fill="black"/>
<path d="M36 36H32V40H36V36Z" fill="black"/>
<path d="M96 36H92V40H96V36Z" fill="black"/>
<path d="M36 40H32V44H36V40Z" fill="black"/>
<path d="M96 40H92V44H96V40Z" fill="black"/>
<path d="M36 44H32V48H36V44Z" fill="black"/>
<path d="M96 44H92V48H96V44Z" fill="black"/>
<path d="M36 48H32V52H36V48Z" fill="black"/>
<path d="M96 48H92V52H96V48Z" fill="black"/>
<path d="M28 52H24V56H28V52Z" fill="black"/>
<path d="M36 52H32V56H36V52Z" fill="black"/>
<path d="M96 52H92V56H96V52Z" fill="black"/>
<path d="M108 52H104V56H108V52Z" fill="black"/>
<path d="M24 56H20V60H24V56Z" fill="black"/>
<path d="M32 56H28V60H32V56Z" fill="black"/>
<path d="M36 56H32V60H36V56Z" fill="black"/>
<path d="M96 56H92V60H96V56Z" fill="black"/>
<path d="M104 56H100V60H104V56Z" fill="black"/>
<path d="M112 56H108V60H112V56Z" fill="black"/>
<path d="M24 60H20V64H24V60Z" fill="black"/>
<path d="M36 60H32V64H36V60Z" fill="black"/>
<path d="M40 60H36V64H40V60Z" fill="black"/>
<path d="M92 60H88V64H92V60Z" fill="black"/>
<path d="M96 60H92V64H96V60Z" fill="black"/>
<path d="M100 60H96V64H100V60Z" fill="black"/>
<path d="M112 60H108V64H112V60Z" fill="black"/>
<path d="M24 64H20V68H24V64Z" fill="black"/>
<path d="M40 64H36V68H40V64Z" fill="black"/>
<path d="M44 64H40V68H44V64Z" fill="black"/>
<path d="M92 64H88V68H92V64Z" fill="black"/>
<path d="M96 64H92V68H96V64Z" fill="black"/>
<path d="M112 64H108V68H112V64Z" fill="black"/>
<path d="M24 68H20V72H24V68Z" fill="black"/>
<path d="M44 68H40V72H44V68Z" fill="black"/>
<path d="M48 68H44V72H48V68Z" fill="black"/>
<path d="M88 68H84V72H88V68Z" fill="black"/>
<path d="M92 68H88V72H92V68Z" fill="black"/>
<path d="M112 68H108V72H112V68Z" fill="black"/>
<path d="M24 72H20V76H24V72Z" fill="black"/>
<path d="M48 72H44V76H48V72Z" fill="black"/>
<path d="M52 72H48V76H52V72Z" fill="black"/>
<path d="M56 72H52V76H56V72Z" fill="black"/>
<path d="M80 72H76V76H80V72Z" fill="black"/>
<path d="M84 72H80V76H84V72Z" fill="black"/>
<path d="M88 72H84V76H88V72Z" fill="black"/>
<path d="M112 72H108V76H112V72Z" fill="black"/>
<path d="M28 76H24V80H28V76Z" fill="black"/>
<path d="M52 76H48V80H52V76Z" fill="black"/>
<path d="M60 76H56V80H60V76Z" fill="black"/>
<path d="M76 76H72V80H76V76Z" fill="black"/>
<path d="M84 76H80V80H84V76Z" fill="black"/>
<path d="M108 76H104V80H108V76Z" fill="black"/>
<path d="M32 80H28V84H32V80Z" fill="black"/>
<path d="M56 80H52V84H56V80Z" fill="black"/>
<path d="M60 80H56V84H60V80Z" fill="black"/>
<path d="M76 80H72V84H76V80Z" fill="black"/>
<path d="M80 80H76V84H80V80Z" fill="black"/>
<path d="M104 80H100V84H104V80Z" fill="black"/>
<path d="M36 84H32V88H36V84Z" fill="black"/>
<path d="M60 84H56V88H60V84Z" fill="black"/>
<path d="M76 84H72V88H76V84Z" fill="black"/>
<path d="M100 84H96V88H100V84Z" fill="black"/>
<path d="M40 88H36V92H40V88Z" fill="black"/>
<path d="M60 88H56V92H60V88Z" fill="black"/>
<path d="M76 88H72V92H76V88Z" fill="black"/>
<path d="M96 88H92V92H96V88Z" fill="black"/>
<path d="M44 92H40V96H44V92Z" fill="black"/>
<path d="M60 92H56V96H60V92Z" fill="black"/>
<path d="M92 92H88V96H92V92Z" fill="black"/>
<path d="M48 96H44V100H48V96Z" fill="black"/>
<path d="M88 96H84V100H88V96Z" fill="black"/>
<path d="M52 100H48V104H52V100Z" fill="black"/>
<path d="M84 100H80V104H84V100Z" fill="black"/>
<path d="M56 104H52V108H56V104Z" fill="black"/>
<path d="M80 104H76V108H80V104Z" fill="black"/>
<path d="M56 108H52V112H56V108Z" fill="black"/>
<path d="M80 108H76V112H80V108Z" fill="black"/>
<path d="M60 112H56V116H60V112Z" fill="black"/>
<path d="M76 112H72V116H76V112Z" fill="black"/>
<path d="M64 116H60V120H64V116Z" fill="black"/>
<path d="M72 116H68V120H72V116Z" fill="black"/>
<path d="M64 120H60V124H64V120Z" fill="black"/>
<path d="M68 120H64V124H68V120Z" fill="black"/>
<path d="M72 120H68V124H72V120Z" fill="black"/>
</svg>
