<svg width="24" height="24" viewBox="0 0 24 24" fill="none" xmlns="http://www.w3.org/2000/svg">
<rect width="1" height="1" transform="translate(2 12)" fill="black"/>
<rect width="1" height="1" transform="translate(2 13)" fill="black"/>
<rect width="1" height="1" transform="translate(2 14)" fill="black"/>
<rect width="1" height="1" transform="translate(2 15)" fill="black"/>
<rect width="1" height="1" transform="translate(2 16)" fill="black"/>
<rect width="1" height="1" transform="translate(2 17)" fill="black"/>
<rect width="1" height="1" transform="translate(3 11)" fill="black"/>
<rect width="1" height="1" transform="translate(3 12)" fill="#F0DFC4"/>
<rect width="1" height="1" transform="translate(3 13)" fill="#FBF3E4"/>
<rect width="1" height="1" transform="translate(3 14)" fill="#C8A072"/>
<rect width="1" height="1" transform="translate(3 15)" fill="#C8A072"/>
<rect width="1" height="1" transform="translate(3 16)" fill="#C8A072"/>
<rect width="1" height="1" transform="translate(3 17)" fill="#C8A072"/>
<rect width="1" height="1" transform="translate(3 18)" fill="black"/>
<rect width="1" height="1" transform="translate(3 19)" fill="black"/>
<rect width="1" height="1" transform="translate(4 11)" fill="black"/>
<rect width="1" height="1" transform="translate(4 12)" fill="#FBF3E4"/>
<rect width="1" height="1" transform="translate(4 13)" fill="#F0DFC4"/>
<rect width="1" height="1" transform="translate(4 14)" fill="#F0DFC4"/>
<rect width="1" height="1" transform="translate(4 15)" fill="#F0DFC4"/>
<rect width="1" height="1" transform="translate(4 16)" fill="#F0DFC4"/>
<rect width="1" height="1" transform="translate(4 17)" fill="#C8A072"/>
<rect width="1" height="1" transform="translate(4 18)" fill="#C8A072"/>
<rect width="1" height="1" transform="translate(4 19)" fill="#C8A072"/>
<rect width="1" height="1" transform="translate(4 20)" fill="black"/>
<rect width="1" height="1" transform="translate(4 21)" fill="black"/>
<rect width="1" height="1" transform="translate(5 3)" fill="black"/>
<rect width="1" height="1" transform="translate(5 4)" fill="black"/>
<rect width="1" height="1" transform="translate(5 5)" fill="black"/>
<rect width="1" height="1" transform="translate(5 6)" fill="black"/>
<rect width="1" height="1" transform="translate(5 7)" fill="black"/>
<rect width="1" height="1" transform="translate(5 8)" fill="black"/>
<rect width="1" height="1" transform="translate(5 9)" fill="black"/>
<rect width="1" height="1" transform="translate(5 10)" fill="black"/>
<rect width="1" height="1" transform="translate(5 11)" fill="black"/>
<rect width="1" height="1" transform="translate(5 12)" fill="#FBF3E4"/>
<rect width="1" height="1" transform="translate(5 13)" fill="#F0DFC4"/>
<rect width="1" height="1" transform="translate(5 14)" fill="#F0DFC4"/>
<rect width="1" height="1" transform="translate(5 15)" fill="#F0DFC4"/>
<rect width="1" height="1" transform="translate(5 16)" fill="#F0DFC4"/>
<rect width="1" height="1" transform="translate(5 17)" fill="#F0DFC4"/>
<rect width="1" height="1" transform="translate(5 18)" fill="#C8A072"/>
<rect width="1" height="1" transform="translate(5 19)" fill="#C8A072"/>
<rect width="1" height="1" transform="translate(5 20)" fill="#C8A072"/>
<rect width="1" height="1" transform="translate(5 21)" fill="#C8A072"/>
<rect width="1" height="1" transform="translate(5 22)" fill="black"/>
<rect width="1" height="1" transform="translate(6 2)" fill="black"/>
<rect width="1" height="1" transform="translate(6 3)" fill="#C8A072"/>
<rect width="1" height="1" transform="translate(6 4)" fill="#C8A072"/>
<rect width="1" height="1" transform="translate(6 5)" fill="#C8A072"/>
<rect width="1" height="1" transform="translate(6 6)" fill="#C8A072"/>
<rect width="1" height="1" transform="translate(6 7)" fill="#C8A072"/>
<rect width="1" height="1" transform="translate(6 8)" fill="#C8A072"/>
<rect width="1" height="1" transform="translate(6 9)" fill="#C8A072"/>
<rect width="1" height="1" transform="translate(6 10)" fill="#C8A072"/>
<rect width="1" height="1" transform="translate(6 11)" fill="#F0DFC4"/>
<rect width="1" height="1" transform="translate(6 12)" fill="#FBF3E4"/>
<rect width="1" height="1" transform="translate(6 13)" fill="#F0DFC4"/>
<rect width="1" height="1" transform="translate(6 14)" fill="#F0DFC4"/>
<rect width="1" height="1" transform="translate(6 15)" fill="#F0DFC4"/>
<rect width="1" height="1" transform="translate(6 16)" fill="#F0DFC4"/>
<rect width="1" height="1" transform="translate(6 17)" fill="#F0DFC4"/>
<rect width="1" height="1" transform="translate(6 18)" fill="#F0DFC4"/>
<rect width="1" height="1" transform="translate(6 19)" fill="#F0DFC4"/>
<rect width="1" height="1" transform="translate(6 20)" fill="#C8A072"/>
<rect width="1" height="1" transform="translate(6 21)" fill="#C8A072"/>
<rect width="1" height="1" transform="translate(6 22)" fill="black"/>
<rect width="1" height="1" transform="translate(7 1)" fill="black"/>
<rect width="1" height="1" transform="translate(7 2)" fill="#C8A072"/>
<rect width="1" height="1" transform="translate(7 3)" fill="#F0DFC4"/>
<rect width="1" height="1" transform="translate(7 4)" fill="#F0DFC4"/>
<rect width="1" height="1" transform="translate(7 5)" fill="#F0DFC4"/>
<rect width="1" height="1" transform="translate(7 6)" fill="#F0DFC4"/>
<rect width="1" height="1" transform="translate(7 7)" fill="#F0DFC4"/>
<rect width="1" height="1" transform="translate(7 8)" fill="#F0DFC4"/>
<rect width="1" height="1" transform="translate(7 9)" fill="#C8A072"/>
<rect width="1" height="1" transform="translate(7 10)" fill="#C8A072"/>
<rect width="1" height="1" transform="translate(7 11)" fill="#F0DFC4"/>
<rect width="1" height="1" transform="translate(7 12)" fill="#FBF3E4"/>
<rect width="1" height="1" transform="translate(7 13)" fill="#C8A072"/>
<rect width="1" height="1" transform="translate(7 14)" fill="#C8A072"/>
<rect width="1" height="1" transform="translate(7 15)" fill="#C8A072"/>
<rect width="1" height="1" transform="translate(7 16)" fill="#C8A072"/>
<rect width="1" height="1" transform="translate(7 17)" fill="#C8A072"/>
<rect width="1" height="1" transform="translate(7 18)" fill="#C8A072"/>
<rect width="1" height="1" transform="translate(7 19)" fill="#C8A072"/>
<rect width="1" height="1" transform="translate(7 20)" fill="#C8A072"/>
<rect width="1" height="1" transform="translate(7 21)" fill="#C8A072"/>
<rect width="1" height="1" transform="translate(7 22)" fill="black"/>
<rect width="1" height="1" transform="translate(8 1)" fill="black"/>
<rect width="1" height="1" transform="translate(8 2)" fill="#F0DFC4"/>
<rect width="1" height="1" transform="translate(8 3)" fill="#FBF3E4"/>
<rect width="1" height="1" transform="translate(8 4)" fill="#FBF3E4"/>
<rect width="1" height="1" transform="translate(8 5)" fill="#FBF3E4"/>
<rect width="1" height="1" transform="translate(8 6)" fill="#FBF3E4"/>
<rect width="1" height="1" transform="translate(8 7)" fill="#FBF3E4"/>
<rect width="1" height="1" transform="translate(8 8)" fill="#FBF3E4"/>
<rect width="1" height="1" transform="translate(8 9)" fill="#F0DFC4"/>
<rect width="1" height="1" transform="translate(8 10)" fill="#F0DFC4"/>
<rect width="1" height="1" transform="translate(8 11)" fill="#F0DFC4"/>
<rect width="1" height="1" transform="translate(8 12)" fill="#D49725"/>
<rect width="1" height="1" transform="translate(8 13)" fill="#D49725"/>
<rect width="1" height="1" transform="translate(8 14)" fill="#D49725"/>
<rect width="1" height="1" transform="translate(8 15)" fill="#D49725"/>
<rect width="1" height="1" transform="translate(8 16)" fill="#D49725"/>
<rect width="1" height="1" transform="translate(8 17)" fill="black"/>
<rect width="1" height="1" transform="translate(8 18)" fill="black"/>
<rect width="1" height="1" transform="translate(8 19)" fill="black"/>
<rect width="1" height="1" transform="translate(8 20)" fill="black"/>
<rect width="1" height="1" transform="translate(8 21)" fill="black"/>
<rect width="1" height="1" transform="translate(9 2)" fill="black"/>
<rect width="1" height="1" transform="translate(9 3)" fill="#F0DFC4"/>
<rect width="1" height="1" transform="translate(9 4)" fill="#F0DFC4"/>
<rect width="1" height="1" transform="translate(9 5)" fill="#F0DFC4"/>
<rect width="1" height="1" transform="translate(9 6)" fill="#F0DFC4"/>
<rect width="1" height="1" transform="translate(9 7)" fill="#F0DFC4"/>
<rect width="1" height="1" transform="translate(9 8)" fill="#F0DFC4"/>
<rect width="1" height="1" transform="translate(9 9)" fill="#FBF3E4"/>
<rect width="1" height="1" transform="translate(9 10)" fill="#F0DFC4"/>
<rect width="1" height="1" transform="translate(9 11)" fill="#F0DFC4"/>
<rect width="1" height="1" transform="translate(9 12)" fill="#D49725"/>
<rect width="1" height="1" transform="translate(9 13)" fill="#D49725"/>
<rect width="1" height="1" transform="translate(9 14)" fill="#D49725"/>
<rect width="1" height="1" transform="translate(9 15)" fill="#D49725"/>
<rect width="1" height="1" transform="translate(9 16)" fill="#D49725"/>
<rect width="1" height="1" transform="translate(9 17)" fill="#D49725"/>
<rect width="1" height="1" transform="translate(9 18)" fill="black"/>
<rect width="1" height="1" transform="translate(10 3)" fill="black"/>
<rect width="1" height="1" transform="translate(10 4)" fill="black"/>
<rect width="1" height="1" transform="translate(10 5)" fill="black"/>
<rect width="1" height="1" transform="translate(10 6)" fill="black"/>
<rect width="1" height="1" transform="translate(10 7)" fill="black"/>
<rect width="1" height="1" transform="translate(10 8)" fill="black"/>
<rect width="1" height="1" transform="translate(10 9)" fill="#C8A072"/>
<rect width="1" height="1" transform="translate(10 10)" fill="#F0DFC4"/>
<rect width="1" height="1" transform="translate(10 11)" fill="#F3AC2C"/>
<rect width="1" height="1" transform="translate(10 12)" fill="#F3AC2C"/>
<rect width="1" height="1" transform="translate(10 13)" fill="#FEDF67"/>
<rect width="1" height="1" transform="translate(10 14)" fill="#FEDF67"/>
<rect width="1" height="1" transform="translate(10 15)" fill="#FEDF67"/>
<rect width="1" height="1" transform="translate(10 16)" fill="#FEDF67"/>
<rect width="1" height="1" transform="translate(10 17)" fill="#D49725"/>
<rect width="1" height="1" transform="translate(10 18)" fill="#D49725"/>
<rect width="1" height="1" transform="translate(10 19)" fill="black"/>
<rect width="1" height="1" transform="translate(11 9)" fill="black"/>
<rect width="1" height="1" transform="translate(11 10)" fill="#F3AC2C"/>
<rect width="1" height="1" transform="translate(11 11)" fill="#F3AC2C"/>
<rect width="1" height="1" transform="translate(11 12)" fill="#F3AC2C"/>
<rect width="1" height="1" transform="translate(11 13)" fill="#F3AC2C"/>
<rect width="1" height="1" transform="translate(11 14)" fill="#FEDF67"/>
<rect width="1" height="1" transform="translate(11 15)" fill="#FEDF67"/>
<rect width="1" height="1" transform="translate(11 16)" fill="#FEDF67"/>
<rect width="1" height="1" transform="translate(11 17)" fill="#FEDF67"/>
<rect width="1" height="1" transform="translate(11 18)" fill="#FEDF67"/>
<rect width="1" height="1" transform="translate(11 19)" fill="#FEDF67"/>
<rect width="1" height="1" transform="translate(11 20)" fill="black"/>
<rect width="1" height="1" transform="translate(12 8)" fill="black"/>
<rect width="1" height="1" transform="translate(12 9)" fill="#FBF3E4"/>
<rect width="1" height="1" transform="translate(12 10)" fill="black"/>
<rect width="1" height="1" transform="translate(12 11)" fill="black"/>
<rect width="1" height="1" transform="translate(12 12)" fill="black"/>
<rect width="1" height="1" transform="translate(12 13)" fill="#D49725"/>
<rect width="1" height="1" transform="translate(12 14)" fill="#FEDF67"/>
<rect width="1" height="1" transform="translate(12 15)" fill="#FEDF67"/>
<rect width="1" height="1" transform="translate(12 16)" fill="#FEDF67"/>
<rect width="1" height="1" transform="translate(12 17)" fill="#FEDF67"/>
<rect width="1" height="1" transform="translate(12 18)" fill="#FEDF67"/>
<rect width="1" height="1" transform="translate(12 19)" fill="#FEDF67"/>
<rect width="1" height="1" transform="translate(12 20)" fill="black"/>
<rect width="1" height="1" transform="translate(13 7)" fill="black"/>
<rect width="1" height="1" transform="translate(13 8)" fill="#FBF3E4"/>
<rect width="1" height="1" transform="translate(13 9)" fill="#FBF3E4"/>
<rect width="1" height="1" transform="translate(13 10)" fill="black"/>
<rect width="1" height="1" transform="translate(13 13)" fill="black"/>
<rect width="1" height="1" transform="translate(13 14)" fill="#D49725"/>
<rect width="1" height="1" transform="translate(13 15)" fill="#FEDF67"/>
<rect width="1" height="1" transform="translate(13 16)" fill="#FEDF67"/>
<rect width="1" height="1" transform="translate(13 17)" fill="#FEDF67"/>
<rect width="1" height="1" transform="translate(13 18)" fill="#FEDF67"/>
<rect width="1" height="1" transform="translate(13 19)" fill="#FEDF67"/>
<rect width="1" height="1" transform="translate(13 20)" fill="#FEDF67"/>
<rect width="1" height="1" transform="translate(13 21)" fill="black"/>
<rect width="1" height="1" transform="translate(14 7)" fill="black"/>
<rect width="1" height="1" transform="translate(14 8)" fill="#FBF3E4"/>
<rect width="1" height="1" transform="translate(14 9)" fill="#FBF3E4"/>
<rect width="1" height="1" transform="translate(14 10)" fill="black"/>
<rect width="1" height="1" transform="translate(14 14)" fill="black"/>
<rect width="1" height="1" transform="translate(14 15)" fill="#D49725"/>
<rect width="1" height="1" transform="translate(14 16)" fill="#FEDF67"/>
<rect width="1" height="1" transform="translate(14 17)" fill="#FEDF67"/>
<rect width="1" height="1" transform="translate(14 18)" fill="#FEDF67"/>
<rect width="1" height="1" transform="translate(14 19)" fill="#FEDF67"/>
<rect width="1" height="1" transform="translate(14 20)" fill="#FEDF67"/>
<rect width="1" height="1" transform="translate(14 21)" fill="black"/>
<rect width="1" height="1" transform="translate(15 8)" fill="black"/>
<rect width="1" height="1" transform="translate(15 9)" fill="#FBF3E4"/>
<rect width="1" height="1" transform="translate(15 10)" fill="#F0DFC4"/>
<rect width="1" height="1" transform="translate(15 11)" fill="black"/>
<rect width="1" height="1" transform="translate(15 15)" fill="black"/>
<rect width="1" height="1" transform="translate(15 16)" fill="#FEDF67"/>
<rect width="1" height="1" transform="translate(15 17)" fill="#FEDF67"/>
<rect width="1" height="1" transform="translate(15 18)" fill="#FEDF67"/>
<rect width="1" height="1" transform="translate(15 19)" fill="#FEDF67"/>
<rect width="1" height="1" transform="translate(15 20)" fill="#FEDF67"/>
<rect width="1" height="1" transform="translate(15 21)" fill="black"/>
<rect width="1" height="1" transform="translate(16 8)" fill="black"/>
<rect width="1" height="1" transform="translate(16 9)" fill="#F0DFC4"/>
<rect width="1" height="1" transform="translate(16 10)" fill="#F0DFC4"/>
<rect width="1" height="1" transform="translate(16 11)" fill="#F0DFC4"/>
<rect width="1" height="1" transform="translate(16 12)" fill="black"/>
<rect width="1" height="1" transform="translate(16 16)" fill="black"/>
<rect width="1" height="1" transform="translate(16 17)" fill="#FEDF67"/>
<rect width="1" height="1" transform="translate(16 18)" fill="#FEDF67"/>
<rect width="1" height="1" transform="translate(16 19)" fill="#FEDF67"/>
<rect width="1" height="1" transform="translate(16 20)" fill="#FEDF67"/>
<rect width="1" height="1" transform="translate(16 21)" fill="black"/>
<rect width="1" height="1" transform="translate(17 9)" fill="black"/>
<rect width="1" height="1" transform="translate(17 10)" fill="#F0DFC4"/>
<rect width="1" height="1" transform="translate(17 11)" fill="#F0DFC4"/>
<rect width="1" height="1" transform="translate(17 12)" fill="#F0DFC4"/>
<rect width="1" height="1" transform="translate(17 13)" fill="black"/>
<rect width="1" height="1" transform="translate(17 16)" fill="black"/>
<rect width="1" height="1" transform="translate(17 17)" fill="#FEDF67"/>
<rect width="1" height="1" transform="translate(17 18)" fill="#FEDF67"/>
<rect width="1" height="1" transform="translate(17 19)" fill="#FEDF67"/>
<rect width="1" height="1" transform="translate(17 20)" fill="#FEDF67"/>
<rect width="1" height="1" transform="translate(17 21)" fill="black"/>
<rect width="1" height="1" transform="translate(18 10)" fill="black"/>
<rect width="1" height="1" transform="translate(18 11)" fill="#F0DFC4"/>
<rect width="1" height="1" transform="translate(18 12)" fill="#C8A072"/>
<rect width="1" height="1" transform="translate(18 13)" fill="#C8A072"/>
<rect width="1" height="1" transform="translate(18 14)" fill="black"/>
<rect width="1" height="1" transform="translate(18 16)" fill="black"/>
<rect width="1" height="1" transform="translate(18 17)" fill="#D49725"/>
<rect width="1" height="1" transform="translate(18 18)" fill="#FEDF67"/>
<rect width="1" height="1" transform="translate(18 19)" fill="#FEDF67"/>
<rect width="1" height="1" transform="translate(18 20)" fill="black"/>
<rect width="1" height="1" transform="translate(19 11)" fill="black"/>
<rect width="1" height="1" transform="translate(19 12)" fill="black"/>
<rect width="1" height="1" transform="translate(19 13)" fill="#C8A072"/>
<rect width="1" height="1" transform="translate(19 14)" fill="#C8A072"/>
<rect width="1" height="1" transform="translate(19 15)" fill="black"/>
<rect width="1" height="1" transform="translate(19 17)" fill="black"/>
<rect width="1" height="1" transform="translate(19 18)" fill="#FEDF67"/>
<rect width="1" height="1" transform="translate(19 19)" fill="#D49725"/>
<rect width="1" height="1" transform="translate(19 20)" fill="black"/>
<rect width="1" height="1" transform="translate(20 13)" fill="black"/>
<rect width="1" height="1" transform="translate(20 14)" fill="black"/>
<rect width="1" height="1" transform="translate(20 17)" fill="black"/>
<rect width="1" height="1" transform="translate(20 18)" fill="#D49725"/>
<rect width="1" height="1" transform="translate(20 19)" fill="black"/>
<rect width="1" height="1" transform="translate(21 18)" fill="black"/>
</svg>
