<svg width="128" height="128" viewBox="0 0 128 128" fill="none" xmlns="http://www.w3.org/2000/svg">
<path d="M58.6667 0H53.3333V5.33333H58.6667V0Z" fill="black"/>
<path d="M64 0H58.6667V5.33333H64V0Z" fill="black"/>
<path d="M69.3333 0H64V5.33333H69.3333V0Z" fill="black"/>
<path d="M74.6667 0H69.3333V5.33333H74.6667V0Z" fill="black"/>
<path d="M53.3333 5.33337H48V10.6667H53.3333V5.33337Z" fill="black"/>
<path d="M58.6667 5.33337H53.3333V10.6667H58.6667V5.33337Z" fill="black"/>
<path d="M64 5.33337H58.6667V10.6667H64V5.33337Z" fill="black"/>
<path d="M69.3333 5.33337H64V10.6667H69.3333V5.33337Z" fill="black"/>
<path d="M74.6667 5.33337H69.3333V10.6667H74.6667V5.33337Z" fill="black"/>
<path d="M80 5.33337H74.6667V10.6667H80V5.33337Z" fill="black"/>
<path d="M48 10.6666H42.6667V16H48V10.6666Z" fill="black"/>
<path d="M53.3333 10.6666H48V16H53.3333V10.6666Z" fill="black"/>
<path d="M58.6667 10.6666H53.3333V16H58.6667V10.6666Z" fill="black"/>
<path d="M74.6667 10.6666H69.3333V16H74.6667V10.6666Z" fill="black"/>
<path d="M80 10.6666H74.6667V16H80V10.6666Z" fill="black"/>
<path d="M85.3333 10.6666H80V16H85.3333V10.6666Z" fill="black"/>
<path d="M42.6667 16H37.3333V21.3333H42.6667V16Z" fill="black"/>
<path d="M48 16H42.6667V21.3333H48V16Z" fill="black"/>
<path d="M53.3333 16H48V21.3333H53.3333V16Z" fill="black"/>
<path d="M80 16H74.6667V21.3333H80V16Z" fill="black"/>
<path d="M85.3333 16H80V21.3333H85.3333V16Z" fill="black"/>
<path d="M90.6667 16H85.3333V21.3333H90.6667V16Z" fill="black"/>
<path d="M37.3333 21.3334H32V26.6667H37.3333V21.3334Z" fill="black"/>
<path d="M42.6667 21.3334H37.3333V26.6667H42.6667V21.3334Z" fill="black"/>
<path d="M48 21.3334H42.6667V26.6667H48V21.3334Z" fill="black"/>
<path d="M85.3333 21.3334H80V26.6667H85.3333V21.3334Z" fill="black"/>
<path d="M90.6667 21.3334H85.3333V26.6667H90.6667V21.3334Z" fill="black"/>
<path d="M96 21.3334H90.6667V26.6667H96V21.3334Z" fill="black"/>
<path d="M32 26.6666H26.6667V32H32V26.6666Z" fill="black"/>
<path d="M37.3333 26.6666H32V32H37.3333V26.6666Z" fill="black"/>
<path d="M42.6667 26.6666H37.3333V32H42.6667V26.6666Z" fill="black"/>
<path d="M64 26.6666H58.6667V32H64V26.6666Z" fill="black"/>
<path d="M69.3333 26.6666H64V32H69.3333V26.6666Z" fill="black"/>
<path d="M90.6667 26.6666H85.3333V32H90.6667V26.6666Z" fill="black"/>
<path d="M96 26.6666H90.6667V32H96V26.6666Z" fill="black"/>
<path d="M101.333 26.6666H96V32H101.333V26.6666Z" fill="black"/>
<path d="M26.6667 32H21.3333V37.3333H26.6667V32Z" fill="black"/>
<path d="M32 32H26.6667V37.3333H32V32Z" fill="black"/>
<path d="M37.3333 32H32V37.3333H37.3333V32Z" fill="black"/>
<path d="M58.6667 32H53.3333V37.3333H58.6667V32Z" fill="black"/>
<path d="M74.6667 32H69.3333V37.3333H74.6667V32Z" fill="black"/>
<path d="M96 32H90.6667V37.3333H96V32Z" fill="black"/>
<path d="M101.333 32H96V37.3333H101.333V32Z" fill="black"/>
<path d="M106.667 32H101.333V37.3333H106.667V32Z" fill="black"/>
<path d="M21.3333 37.3334H16V42.6667H21.3333V37.3334Z" fill="black"/>
<path d="M26.6667 37.3334H21.3333V42.6667H26.6667V37.3334Z" fill="black"/>
<path d="M32 37.3334H26.6667V42.6667H32V37.3334Z" fill="black"/>
<path d="M58.6667 37.3334H53.3333V42.6667H58.6667V37.3334Z" fill="black"/>
<path d="M74.6667 37.3334H69.3333V42.6667H74.6667V37.3334Z" fill="black"/>
<path d="M101.333 37.3334H96V42.6667H101.333V37.3334Z" fill="black"/>
<path d="M106.667 37.3334H101.333V42.6667H106.667V37.3334Z" fill="black"/>
<path d="M112 37.3334H106.667V42.6667H112V37.3334Z" fill="black"/>
<path d="M16 42.6666H10.6667V48H16V42.6666Z" fill="black"/>
<path d="M21.3333 42.6666H16V48H21.3333V42.6666Z" fill="black"/>
<path d="M26.6667 42.6666H21.3333V48H26.6667V42.6666Z" fill="black"/>
<path d="M64 42.6666H58.6667V48H64V42.6666Z" fill="black"/>
<path d="M69.3333 42.6666H64V48H69.3333V42.6666Z" fill="black"/>
<path d="M106.667 42.6666H101.333V48H106.667V42.6666Z" fill="black"/>
<path d="M112 42.6666H106.667V48H112V42.6666Z" fill="black"/>
<path d="M117.333 42.6666H112V48H117.333V42.6666Z" fill="black"/>
<path d="M10.6667 48H5.33334V53.3333H10.6667V48Z" fill="black"/>
<path d="M16 48H10.6667V53.3333H16V48Z" fill="black"/>
<path d="M21.3333 48H16V53.3333H21.3333V48Z" fill="black"/>
<path d="M112 48H106.667V53.3333H112V48Z" fill="black"/>
<path d="M117.333 48H112V53.3333H117.333V48Z" fill="black"/>
<path d="M122.667 48H117.333V53.3333H122.667V48Z" fill="black"/>
<path d="M10.6667 53.3334H5.33334V58.6667H10.6667V53.3334Z" fill="black"/>
<path d="M16 53.3334H10.6667V58.6667H16V53.3334Z" fill="black"/>
<path d="M21.3333 53.3334H16V58.6667H21.3333V53.3334Z" fill="black"/>
<path d="M26.6667 53.3334H21.3333V58.6667H26.6667V53.3334Z" fill="black"/>
<path d="M32 53.3334H26.6667V58.6667H32V53.3334Z" fill="black"/>
<path d="M37.3333 53.3334H32V58.6667H37.3333V53.3334Z" fill="black"/>
<path d="M42.6667 53.3334H37.3333V58.6667H42.6667V53.3334Z" fill="black"/>
<path d="M48 53.3334H42.6667V58.6667H48V53.3334Z" fill="black"/>
<path d="M53.3333 53.3334H48V58.6667H53.3333V53.3334Z" fill="black"/>
<path d="M58.6667 53.3334H53.3333V58.6667H58.6667V53.3334Z" fill="black"/>
<path d="M64 53.3334H58.6667V58.6667H64V53.3334Z" fill="black"/>
<path d="M69.3333 53.3334H64V58.6667H69.3333V53.3334Z" fill="black"/>
<path d="M74.6667 53.3334H69.3333V58.6667H74.6667V53.3334Z" fill="black"/>
<path d="M80 53.3334H74.6667V58.6667H80V53.3334Z" fill="black"/>
<path d="M85.3333 53.3334H80V58.6667H85.3333V53.3334Z" fill="black"/>
<path d="M90.6667 53.3334H85.3333V58.6667H90.6667V53.3334Z" fill="black"/>
<path d="M96 53.3334H90.6667V58.6667H96V53.3334Z" fill="black"/>
<path d="M101.333 53.3334H96V58.6667H101.333V53.3334Z" fill="black"/>
<path d="M106.667 53.3334H101.333V58.6667H106.667V53.3334Z" fill="black"/>
<path d="M112 53.3334H106.667V58.6667H112V53.3334Z" fill="black"/>
<path d="M117.333 53.3334H112V58.6667H117.333V53.3334Z" fill="black"/>
<path d="M122.667 53.3334H117.333V58.6667H122.667V53.3334Z" fill="black"/>
<path d="M10.6667 58.6666H5.33334V64H10.6667V58.6666Z" fill="black"/>
<path d="M16 58.6666H10.6667V64H16V58.6666Z" fill="black"/>
<path d="M21.3333 58.6666H16V64H21.3333V58.6666Z" fill="black"/>
<path d="M26.6667 58.6666H21.3333V64H26.6667V58.6666Z" fill="black"/>
<path d="M32 58.6666H26.6667V64H32V58.6666Z" fill="black"/>
<path d="M37.3333 58.6666H32V64H37.3333V58.6666Z" fill="black"/>
<path d="M42.6667 58.6666H37.3333V64H42.6667V58.6666Z" fill="black"/>
<path d="M48 58.6666H42.6667V64H48V58.6666Z" fill="black"/>
<path d="M53.3333 58.6666H48V64H53.3333V58.6666Z" fill="black"/>
<path d="M58.6667 58.6666H53.3333V64H58.6667V58.6666Z" fill="black"/>
<path d="M64 58.6666H58.6667V64H64V58.6666Z" fill="black"/>
<path d="M69.3333 58.6666H64V64H69.3333V58.6666Z" fill="black"/>
<path d="M74.6667 58.6666H69.3333V64H74.6667V58.6666Z" fill="black"/>
<path d="M80 58.6666H74.6667V64H80V58.6666Z" fill="black"/>
<path d="M85.3333 58.6666H80V64H85.3333V58.6666Z" fill="black"/>
<path d="M90.6667 58.6666H85.3333V64H90.6667V58.6666Z" fill="black"/>
<path d="M96 58.6666H90.6667V64H96V58.6666Z" fill="black"/>
<path d="M101.333 58.6666H96V64H101.333V58.6666Z" fill="black"/>
<path d="M106.667 58.6666H101.333V64H106.667V58.6666Z" fill="black"/>
<path d="M112 58.6666H106.667V64H112V58.6666Z" fill="black"/>
<path d="M117.333 58.6666H112V64H117.333V58.6666Z" fill="black"/>
<path d="M122.667 58.6666H117.333V64H122.667V58.6666Z" fill="black"/>
<path d="M10.6667 64H5.33334V69.3333H10.6667V64Z" fill="black"/>
<path d="M16 64H10.6667V69.3333H16V64Z" fill="black"/>
<path d="M117.333 64H112V69.3333H117.333V64Z" fill="black"/>
<path d="M122.667 64H117.333V69.3333H122.667V64Z" fill="black"/>
<path d="M10.6667 69.3334H5.33334V74.6667H10.6667V69.3334Z" fill="black"/>
<path d="M16 69.3334H10.6667V74.6667H16V69.3334Z" fill="black"/>
<path d="M26.6667 69.3334H21.3333V74.6667H26.6667V69.3334Z" fill="black"/>
<path d="M32 69.3334H26.6667V74.6667H32V69.3334Z" fill="black"/>
<path d="M48 69.3334H42.6667V74.6667H48V69.3334Z" fill="black"/>
<path d="M53.3333 69.3334H48V74.6667H53.3333V69.3334Z" fill="black"/>
<path d="M80 69.3334H74.6667V74.6667H80V69.3334Z" fill="black"/>
<path d="M85.3333 69.3334H80V74.6667H85.3333V69.3334Z" fill="black"/>
<path d="M101.333 69.3334H96V74.6667H101.333V69.3334Z" fill="black"/>
<path d="M106.667 69.3334H101.333V74.6667H106.667V69.3334Z" fill="black"/>
<path d="M117.333 69.3334H112V74.6667H117.333V69.3334Z" fill="black"/>
<path d="M122.667 69.3334H117.333V74.6667H122.667V69.3334Z" fill="black"/>
<path d="M10.6667 74.6666H5.33334V80H10.6667V74.6666Z" fill="black"/>
<path d="M16 74.6666H10.6667V80H16V74.6666Z" fill="black"/>
<path d="M117.333 74.6666H112V80H117.333V74.6666Z" fill="black"/>
<path d="M122.667 74.6666H117.333V80H122.667V74.6666Z" fill="black"/>
<path d="M10.6667 80H5.33334V85.3333H10.6667V80Z" fill="black"/>
<path d="M16 80H10.6667V85.3333H16V80Z" fill="black"/>
<path d="M32 80H26.6667V85.3333H32V80Z" fill="black"/>
<path d="M37.3333 80H32V85.3333H37.3333V80Z" fill="black"/>
<path d="M58.6667 80H53.3333V85.3333H58.6667V80Z" fill="black"/>
<path d="M64 80H58.6667V85.3333H64V80Z" fill="black"/>
<path d="M69.3333 80H64V85.3333H69.3333V80Z" fill="black"/>
<path d="M74.6667 80H69.3333V85.3333H74.6667V80Z" fill="black"/>
<path d="M96 80H90.6667V85.3333H96V80Z" fill="black"/>
<path d="M101.333 80H96V85.3333H101.333V80Z" fill="black"/>
<path d="M117.333 80H112V85.3333H117.333V80Z" fill="black"/>
<path d="M122.667 80H117.333V85.3333H122.667V80Z" fill="black"/>
<path d="M10.6667 85.3334H5.33334V90.6667H10.6667V85.3334Z" fill="black"/>
<path d="M16 85.3334H10.6667V90.6667H16V85.3334Z" fill="black"/>
<path d="M53.3333 85.3334H48V90.6667H53.3333V85.3334Z" fill="black"/>
<path d="M80 85.3334H74.6667V90.6667H80V85.3334Z" fill="black"/>
<path d="M117.333 85.3334H112V90.6667H117.333V85.3334Z" fill="black"/>
<path d="M122.667 85.3334H117.333V90.6667H122.667V85.3334Z" fill="black"/>
<path d="M10.6667 90.6666H5.33334V96H10.6667V90.6666Z" fill="black"/>
<path d="M16 90.6666H10.6667V96H16V90.6666Z" fill="black"/>
<path d="M26.6667 90.6666H21.3333V96H26.6667V90.6666Z" fill="black"/>
<path d="M32 90.6666H26.6667V96H32V90.6666Z" fill="black"/>
<path d="M53.3333 90.6666H48V96H53.3333V90.6666Z" fill="black"/>
<path d="M80 90.6666H74.6667V96H80V90.6666Z" fill="black"/>
<path d="M101.333 90.6666H96V96H101.333V90.6666Z" fill="black"/>
<path d="M106.667 90.6666H101.333V96H106.667V90.6666Z" fill="black"/>
<path d="M117.333 90.6666H112V96H117.333V90.6666Z" fill="black"/>
<path d="M122.667 90.6666H117.333V96H122.667V90.6666Z" fill="black"/>
<path d="M10.6667 96H5.33334V101.333H10.6667V96Z" fill="black"/>
<path d="M16 96H10.6667V101.333H16V96Z" fill="black"/>
<path d="M53.3333 96H48V101.333H53.3333V96Z" fill="black"/>
<path d="M80 96H74.6667V101.333H80V96Z" fill="black"/>
<path d="M117.333 96H112V101.333H117.333V96Z" fill="black"/>
<path d="M122.667 96H117.333V101.333H122.667V96Z" fill="black"/>
<path d="M10.6667 101.333H5.33334V106.667H10.6667V101.333Z" fill="black"/>
<path d="M16 101.333H10.6667V106.667H16V101.333Z" fill="black"/>
<path d="M37.3333 101.333H32V106.667H37.3333V101.333Z" fill="black"/>
<path d="M42.6667 101.333H37.3333V106.667H42.6667V101.333Z" fill="black"/>
<path d="M53.3333 101.333H48V106.667H53.3333V101.333Z" fill="black"/>
<path d="M80 101.333H74.6667V106.667H80V101.333Z" fill="black"/>
<path d="M90.6667 101.333H85.3333V106.667H90.6667V101.333Z" fill="black"/>
<path d="M96 101.333H90.6667V106.667H96V101.333Z" fill="black"/>
<path d="M117.333 101.333H112V106.667H117.333V101.333Z" fill="black"/>
<path d="M122.667 101.333H117.333V106.667H122.667V101.333Z" fill="black"/>
<path d="M10.6667 106.667H5.33334V112H10.6667V106.667Z" fill="black"/>
<path d="M16 106.667H10.6667V112H16V106.667Z" fill="black"/>
<path d="M21.3333 106.667H16V112H21.3333V106.667Z" fill="black"/>
<path d="M26.6667 106.667H21.3333V112H26.6667V106.667Z" fill="black"/>
<path d="M53.3333 106.667H48V112H53.3333V106.667Z" fill="black"/>
<path d="M80 106.667H74.6667V112H80V106.667Z" fill="black"/>
<path d="M106.667 106.667H101.333V112H106.667V106.667Z" fill="black"/>
<path d="M112 106.667H106.667V112H112V106.667Z" fill="black"/>
<path d="M117.333 106.667H112V112H117.333V106.667Z" fill="black"/>
<path d="M122.667 106.667H117.333V112H122.667V106.667Z" fill="black"/>
<path d="M10.6667 112H5.33334V117.333H10.6667V112Z" fill="black"/>
<path d="M16 112H10.6667V117.333H16V112Z" fill="black"/>
<path d="M53.3333 112H48V117.333H53.3333V112Z" fill="black"/>
<path d="M80 112H74.6667V117.333H80V112Z" fill="black"/>
<path d="M117.333 112H112V117.333H117.333V112Z" fill="black"/>
<path d="M122.667 112H117.333V117.333H122.667V112Z" fill="black"/>
<path d="M10.6667 117.333H5.33334V122.667H10.6667V117.333Z" fill="black"/>
<path d="M16 117.333H10.6667V122.667H16V117.333Z" fill="black"/>
<path d="M21.3333 117.333H16V122.667H21.3333V117.333Z" fill="black"/>
<path d="M26.6667 117.333H21.3333V122.667H26.6667V117.333Z" fill="black"/>
<path d="M32 117.333H26.6667V122.667H32V117.333Z" fill="black"/>
<path d="M37.3333 117.333H32V122.667H37.3333V117.333Z" fill="black"/>
<path d="M42.6667 117.333H37.3333V122.667H42.6667V117.333Z" fill="black"/>
<path d="M48 117.333H42.6667V122.667H48V117.333Z" fill="black"/>
<path d="M53.3333 117.333H48V122.667H53.3333V117.333Z" fill="black"/>
<path d="M58.6667 117.333H53.3333V122.667H58.6667V117.333Z" fill="black"/>
<path d="M64 117.333H58.6667V122.667H64V117.333Z" fill="black"/>
<path d="M69.3333 117.333H64V122.667H69.3333V117.333Z" fill="black"/>
<path d="M74.6667 117.333H69.3333V122.667H74.6667V117.333Z" fill="black"/>
<path d="M80 117.333H74.6667V122.667H80V117.333Z" fill="black"/>
<path d="M85.3333 117.333H80V122.667H85.3333V117.333Z" fill="black"/>
<path d="M90.6667 117.333H85.3333V122.667H90.6667V117.333Z" fill="black"/>
<path d="M96 117.333H90.6667V122.667H96V117.333Z" fill="black"/>
<path d="M101.333 117.333H96V122.667H101.333V117.333Z" fill="black"/>
<path d="M106.667 117.333H101.333V122.667H106.667V117.333Z" fill="black"/>
<path d="M112 117.333H106.667V122.667H112V117.333Z" fill="black"/>
<path d="M117.333 117.333H112V122.667H117.333V117.333Z" fill="black"/>
<path d="M122.667 117.333H117.333V122.667H122.667V117.333Z" fill="black"/>
<path d="M16 122.667H10.6667V128H16V122.667Z" fill="black"/>
<path d="M21.3333 122.667H16V128H21.3333V122.667Z" fill="black"/>
<path d="M26.6667 122.667H21.3333V128H26.6667V122.667Z" fill="black"/>
<path d="M32 122.667H26.6667V128H32V122.667Z" fill="black"/>
<path d="M37.3333 122.667H32V128H37.3333V122.667Z" fill="black"/>
<path d="M42.6667 122.667H37.3333V128H42.6667V122.667Z" fill="black"/>
<path d="M48 122.667H42.6667V128H48V122.667Z" fill="black"/>
<path d="M53.3333 122.667H48V128H53.3333V122.667Z" fill="black"/>
<path d="M58.6667 122.667H53.3333V128H58.6667V122.667Z" fill="black"/>
<path d="M64 122.667H58.6667V128H64V122.667Z" fill="black"/>
<path d="M69.3333 122.667H64V128H69.3333V122.667Z" fill="black"/>
<path d="M74.6667 122.667H69.3333V128H74.6667V122.667Z" fill="black"/>
<path d="M80 122.667H74.6667V128H80V122.667Z" fill="black"/>
<path d="M85.3333 122.667H80V128H85.3333V122.667Z" fill="black"/>
<path d="M90.6667 122.667H85.3333V128H90.6667V122.667Z" fill="black"/>
<path d="M96 122.667H90.6667V128H96V122.667Z" fill="black"/>
<path d="M101.333 122.667H96V128H101.333V122.667Z" fill="black"/>
<path d="M106.667 122.667H101.333V128H106.667V122.667Z" fill="black"/>
<path d="M112 122.667H106.667V128H112V122.667Z" fill="black"/>
<path d="M117.333 122.667H112V128H117.333V122.667Z" fill="black"/>
</svg>
