<svg width="16" height="16" viewBox="0 0 16 16" fill="none" xmlns="http://www.w3.org/2000/svg">
<path d="M14 15H1V14H14V15Z" fill="black"/>
<path d="M1 12H2V13H1V14H0V1H1V12Z" fill="black"/>
<path d="M15 14H14V10H13V9H14V1H15V14Z" fill="black"/>
<path d="M11 13H10V12H11V13Z" fill="black"/>
<path d="M3 12H2V11H3V12Z" fill="black"/>
<path d="M10 12H9V11H10V12Z" fill="black"/>
<path d="M12 12H11V11H12V12Z" fill="black"/>
<path d="M4 11H3V10H4V11Z" fill="black"/>
<path d="M9 11H8V10H9V11Z" fill="black"/>
<path d="M13 11H12V10H13V11Z" fill="black"/>
<path d="M5 10H4V9H5V10Z" fill="black"/>
<path d="M8 10H7V9H8V10Z" fill="black"/>
<path d="M7 9H5V8H7V9Z" fill="black"/>
<path d="M5 4H6V5H5V6H4V5H3V4H4V3H5V4Z" fill="black"/>
<path d="M14 1H1V0H14V1Z" fill="black"/>
</svg>
