<svg width="24" height="24" viewBox="0 0 24 24" fill="none" xmlns="http://www.w3.org/2000/svg">
<path d="M6 7H8L8 9H6V7Z" fill="black"/>
<path d="M4 9H6V11H4V9Z" fill="black"/>
<path d="M2 11H4V13H2V11Z" fill="black"/>
<path d="M4 13H6V15H4V13Z" fill="black"/>
<path d="M6 15H8V17H6V15Z" fill="black"/>
<path d="M18 7H16V9H18V7Z" fill="black"/>
<path d="M20 9H18V11H20V9Z" fill="black"/>
<path d="M22 11H20V13H22V11Z" fill="black"/>
<path d="M20 13H18V15H20V13Z" fill="black"/>
<path d="M18 15H16V17H18V15Z" fill="black"/>
<path d="M14 3H15V6H14V3Z" fill="black"/>
<path d="M13 6H14V9H13V6Z" fill="black"/>
<path d="M12 9H13V12H12V9Z" fill="black"/>
<path d="M11 12H12V15H11V12Z" fill="black"/>
<path d="M10 15H11V18H10V15Z" fill="black"/>
<path d="M9 18H10V21H9V18Z" fill="black"/>
</svg>
