<svg width="16" height="16" viewBox="0 0 16 16" fill="none" xmlns="http://www.w3.org/2000/svg">
<path d="M4 12H3V11H4V12Z" fill="#FF5756"/>
<path d="M12 12H11V11H12V12Z" fill="#FF5756"/>
<path d="M5 11H4V10H5V11Z" fill="#FF5756"/>
<path d="M11 11H10V10H11V11Z" fill="#FF5756"/>
<path d="M6 10H5V9H6V10Z" fill="#FF5756"/>
<path d="M10 10H9V9H10V10Z" fill="#FF5756"/>
<path d="M7 9H6V8H7V9Z" fill="#FF5756"/>
<path d="M9 9H8V8H9V9Z" fill="#FF5756"/>
<path d="M8 8H7V7H8V8Z" fill="#FF5756"/>
<path d="M7 7H6V6H7V7Z" fill="#FF5756"/>
<path d="M9 7H8V6H9V7Z" fill="#FF5756"/>
<path d="M6 6H5V5H6V6Z" fill="#FF5756"/>
<path d="M10 6H9V5H10V6Z" fill="#FF5756"/>
<path d="M5 5H4V4H5V5Z" fill="#FF5756"/>
<path d="M11 5H10V4H11V5Z" fill="#FF5756"/>
<path d="M4 4H3V3H4V4Z" fill="#FF5756"/>
<path d="M12 4H11V3H12V4Z" fill="#FF5756"/>
</svg>
