<svg width="24" height="24" viewBox="0 0 24 24" fill="none" xmlns="http://www.w3.org/2000/svg">
<path d="M5 16H7V18H9V20H13V18H15V20H21V22H7V20H5V18H3V16H1V14H3V12H5V16Z" fill="black"/>
<path d="M13 18H11V16H13V18Z" fill="black"/>
<path d="M17 18H15V16H17V18Z" fill="black"/>
<path d="M11 16H9V14H11V16Z" fill="black"/>
<path d="M19 16H17V14H19V16Z" fill="black"/>
<path d="M9 14H7V12H9V14Z" fill="black"/>
<path d="M21 14H19V12H21V14Z" fill="black"/>
<path d="M7 12H5V10H7V12Z" fill="black"/>
<path d="M23 12H21V10H23V12Z" fill="black"/>
<path d="M9 10H7V8H9V10Z" fill="black"/>
<path d="M21 10H19V8H21V10Z" fill="black"/>
<path d="M11 8H9V6H11V8Z" fill="black"/>
<path d="M19 8H17V6H19V8Z" fill="black"/>
<path d="M13 6H11V4H13V6Z" fill="black"/>
<path d="M17 6H15V4H17V6Z" fill="black"/>
<path d="M15 4H13V2H15V4Z" fill="black"/>
</svg>
