<svg width="24" height="24" viewBox="0 0 24 24" fill="none" xmlns="http://www.w3.org/2000/svg">
<path d="M7 15H6V16H7V17H8V18H9V17H11V19H9V21H7V22H3V23H1V21H2V17H3V15H5V13H7V15Z" fill="black"/>
<path d="M13 17H11V15H13V17Z" fill="black"/>
<path d="M15 15H13V13H15V15Z" fill="black"/>
<path d="M13 5H15V7H17V9H19V11H21V13H19V15H17V13H15V11H13V9H11V7H9V5H11V3H13V5Z" fill="black"/>
<path d="M9 13H7V11H9V13Z" fill="black"/>
<path d="M11 11H9V9H11V11Z" fill="black"/>
<path d="M21 9H19V7H21V9Z" fill="black"/>
<path d="M23 7H21V5H23V7Z" fill="black"/>
<path d="M17 5H15V3H17V5Z" fill="black"/>
<path d="M21 5H19V3H21V5Z" fill="black"/>
<path d="M19 3H17V1H19V3Z" fill="black"/>
</svg>
