<svg width="24" height="24" viewBox="0 0 24 24" fill="none" xmlns="http://www.w3.org/2000/svg">
<path d="M4 22H2V20H4V22Z" fill="black"/>
<path d="M6 20H4V18H6V20Z" fill="black"/>
<path d="M8 18H6V16H8V18Z" fill="black"/>
<path d="M10 16H8V14H10V16Z" fill="black"/>
<path d="M12 14H10V12H12V14Z" fill="black"/>
<path d="M14 12H12V10H14V12Z" fill="black"/>
<path d="M16 10H14V8H16V10Z" fill="black"/>
<path d="M18 8H16V6H18V8Z" fill="black"/>
<path d="M20 6H18V4H20V6Z" fill="black"/>
<path d="M22 4H20V2H22V4Z" fill="black"/>
</svg>
