<svg width="16" height="16" viewBox="0 0 16 16" fill="none" xmlns="http://www.w3.org/2000/svg">
<path d="M6 13V14H3V13H6Z" fill="black"/>
<path d="M3 13H2V12H3V13Z" fill="black"/>
<path d="M7 13H6V12H7V13Z" fill="black"/>
<path d="M2 12H1V9H2V12Z" fill="black"/>
<path d="M8 12H7V11H8V12Z" fill="black"/>
<path d="M9 11H8V10H9V11Z" fill="black"/>
<path d="M6 10H5V9H6V10Z" fill="black"/>
<path d="M3 9H2V8H3V9Z" fill="black"/>
<path d="M7 9H6V8H7V9Z" fill="black"/>
<path d="M11 9H10V8H11V9Z" fill="black"/>
<path d="M4 8H3V7H4V8Z" fill="black"/>
<path d="M8 8H7V7H8V8Z" fill="black"/>
<path d="M12 8H11V7H12V8Z" fill="black"/>
<path d="M5 7H4V6H5V7Z" fill="black"/>
<path d="M9 7H8V6H9V7Z" fill="black"/>
<path d="M13 7H12V6H13V7Z" fill="black"/>
<path d="M10 6H9V5H10V6Z" fill="black"/>
<path d="M14 6H13V3H14V6Z" fill="black"/>
<path d="M7 5H6V4H7V5Z" fill="black"/>
<path d="M8 4H7V3H8V4Z" fill="black"/>
<path d="M9 3H8V2H9V3Z" fill="black"/>
<path d="M13 3H12V2H13V3Z" fill="black"/>
<path d="M12 2H9V1H12V2Z" fill="black"/>
</svg>
