<svg width="16" height="16" viewBox="0 0 16 16" fill="none" xmlns="http://www.w3.org/2000/svg">
<path d="M11 14V15H5V14H11Z" fill="black"/>
<path d="M5 14H4V13H5V14Z" fill="black"/>
<path d="M12 14H11V13H12V14Z" fill="black"/>
<path d="M4 13H3V12H4V13Z" fill="black"/>
<path d="M13 13H12V12H13V13Z" fill="black"/>
<path d="M3 12H2V11H3V12Z" fill="black"/>
<path d="M14 12H13V11H14V12Z" fill="black"/>
<path d="M2 11H1V5H2V11Z" fill="black"/>
<path d="M11 11H10V10H11V11Z" fill="black"/>
<path d="M15 11H14V5H15V11Z" fill="black"/>
<path d="M10 10H9V9H10V10Z" fill="black"/>
<path d="M9 9H8V8H9V9Z" fill="black"/>
<path d="M8 8H7V4H8V8Z" fill="black"/>
<path d="M3 5H2V4H3V5Z" fill="black"/>
<path d="M14 5H13V4H14V5Z" fill="black"/>
<path d="M4 4H3V3H4V4Z" fill="black"/>
<path d="M13 4H12V3H13V4Z" fill="black"/>
<path d="M5 3H4V2H5V3Z" fill="black"/>
<path d="M12 3H11V2H12V3Z" fill="black"/>
<path d="M11 2H5V1H11V2Z" fill="black"/>
</svg>
