<svg width="16" height="16" viewBox="0 0 16 16" fill="none" xmlns="http://www.w3.org/2000/svg">
<path d="M8 10H9V11H8V14H14V15H1V14H7V11H6V10H7V9H8V10Z" fill="black"/>
<path d="M1 14H0V10H1V14Z" fill="black"/>
<path d="M15 14H14V10H15V14Z" fill="black"/>
<path d="M6 12H5V11H6V12Z" fill="black"/>
<path d="M10 12H9V11H10V12Z" fill="black"/>
<path d="M4 10H1V9H4V10Z" fill="black"/>
<path d="M14 10H11V9H14V10Z" fill="black"/>
<path d="M4 7H1V6H4V7Z" fill="black"/>
<path d="M14 2H8V5H9V6H8V7H7V6H6V5H7V2H1V1H14V2Z" fill="black"/>
<path d="M14 7H11V6H14V7Z" fill="black"/>
<path d="M1 6H0V2H1V6Z" fill="black"/>
<path d="M15 6H14V2H15V6Z" fill="black"/>
<path d="M6 5H5V4H6V5Z" fill="black"/>
<path d="M10 5H9V4H10V5Z" fill="black"/>
</svg>
