<svg width="24" height="24" viewBox="0 0 24 24" fill="none" xmlns="http://www.w3.org/2000/svg">
<path d="M10 1H9V2H10V1Z" fill="black"/>
<path d="M11 1H10V2H11V1Z" fill="black"/>
<path d="M12 1H11V2H12V1Z" fill="black"/>
<path d="M13 1H12V2H13V1Z" fill="black"/>
<path d="M14 1H13V2H14V1Z" fill="black"/>
<path d="M15 1H14V2H15V1Z" fill="black"/>
<path d="M9 2H8V3H9V2Z" fill="black"/>
<path d="M10 2H9V3H10V2Z" fill="black"/>
<path d="M11 2H10V3H11V2Z" fill="#5FB05B"/>
<path d="M12 2H11V3H12V2Z" fill="#82D680"/>
<path d="M13 2H12V3H13V2Z" fill="#82D680"/>
<path d="M14 2H13V3H14V2Z" fill="#5FB05B"/>
<path d="M15 2H14V3H15V2Z" fill="black"/>
<path d="M16 2H15V3H16V2Z" fill="black"/>
<path d="M9 3H8V4H9V3Z" fill="black"/>
<path d="M10 3H9V4H10V3Z" fill="#5FB05B"/>
<path d="M11 3H10V4H11V3Z" fill="#5FB05B"/>
<path d="M12 3H11V4H12V3Z" fill="#82D680"/>
<path d="M13 3H12V4H13V3Z" fill="#82D680"/>
<path d="M14 3H13V4H14V3Z" fill="#5FB05B"/>
<path d="M15 3H14V4H15V3Z" fill="#5FB05B"/>
<path d="M16 3H15V4H16V3Z" fill="black"/>
<path d="M9 4H8V5H9V4Z" fill="black"/>
<path d="M10 4H9V5H10V4Z" fill="#5FB05B"/>
<path d="M11 4H10V5H11V4Z" fill="#5FB05B"/>
<path d="M12 4H11V5H12V4Z" fill="#82D680"/>
<path d="M13 4H12V5H13V4Z" fill="#82D680"/>
<path d="M14 4H13V5H14V4Z" fill="#5FB05B"/>
<path d="M15 4H14V5H15V4Z" fill="#5FB05B"/>
<path d="M16 4H15V5H16V4Z" fill="black"/>
<path d="M19 4H18V5H19V4Z" fill="black"/>
<path d="M20 4H19V5H20V4Z" fill="black"/>
<path d="M21 4H20V5H21V4Z" fill="black"/>
<path d="M9 5H8V6H9V5Z" fill="black"/>
<path d="M10 5H9V6H10V5Z" fill="#5FB05B"/>
<path d="M11 5H10V6H11V5Z" fill="#5FB05B"/>
<path d="M12 5H11V6H12V5Z" fill="#82D680"/>
<path d="M13 5H12V6H13V5Z" fill="#82D680"/>
<path d="M14 5H13V6H14V5Z" fill="#5FB05B"/>
<path d="M15 5H14V6H15V5Z" fill="#5FB05B"/>
<path d="M16 5H15V6H16V5Z" fill="black"/>
<path d="M18 5H17V6H18V5Z" fill="black"/>
<path d="M19 5H18V6H19V5Z" fill="#5FB05B"/>
<path d="M20 5H19V6H20V5Z" fill="#82D680"/>
<path d="M21 5H20V6H21V5Z" fill="black"/>
<path d="M22 5H21V6H22V5Z" fill="black"/>
<path d="M4 6H3V7H4V6Z" fill="black"/>
<path d="M5 6H4V7H5V6Z" fill="black"/>
<path d="M6 6H5V7H6V6Z" fill="black"/>
<path d="M9 6H8V7H9V6Z" fill="black"/>
<path d="M10 6H9V7H10V6Z" fill="#5FB05B"/>
<path d="M11 6H10V7H11V6Z" fill="#5FB05B"/>
<path d="M12 6H11V7H12V6Z" fill="#82D680"/>
<path d="M13 6H12V7H13V6Z" fill="#82D680"/>
<path d="M14 6H13V7H14V6Z" fill="#5FB05B"/>
<path d="M15 6H14V7H15V6Z" fill="#5FB05B"/>
<path d="M16 6H15V7H16V6Z" fill="black"/>
<path d="M18 6H17V7H18V6Z" fill="black"/>
<path d="M19 6H18V7H19V6Z" fill="#5FB05B"/>
<path d="M20 6H19V7H20V6Z" fill="#5FB05B"/>
<path d="M21 6H20V7H21V6Z" fill="#82D680"/>
<path d="M22 6H21V7H22V6Z" fill="black"/>
<path d="M3 7H2V8H3V7Z" fill="black"/>
<path d="M4 7H3V8H4V7Z" fill="#5FB05B"/>
<path d="M5 7H4V8H5V7Z" fill="#5FB05B"/>
<path d="M6 7H5V8H6V7Z" fill="#82D680"/>
<path d="M7 7H6V8H7V7Z" fill="black"/>
<path d="M9 7H8V8H9V7Z" fill="black"/>
<path d="M10 7H9V8H10V7Z" fill="#5FB05B"/>
<path d="M11 7H10V8H11V7Z" fill="#5FB05B"/>
<path d="M12 7H11V8H12V7Z" fill="#82D680"/>
<path d="M13 7H12V8H13V7Z" fill="#82D680"/>
<path d="M14 7H13V8H14V7Z" fill="#5FB05B"/>
<path d="M15 7H14V8H15V7Z" fill="#5FB05B"/>
<path d="M16 7H15V8H16V7Z" fill="black"/>
<path d="M18 7H17V8H18V7Z" fill="black"/>
<path d="M19 7H18V8H19V7Z" fill="#5FB05B"/>
<path d="M20 7H19V8H20V7Z" fill="#5FB05B"/>
<path d="M21 7H20V8H21V7Z" fill="#82D680"/>
<path d="M22 7H21V8H22V7Z" fill="black"/>
<path d="M3 8H2V9H3V8Z" fill="black"/>
<path d="M4 8H3V9H4V8Z" fill="#5FB05B"/>
<path d="M5 8H4V9H5V8Z" fill="#5FB05B"/>
<path d="M6 8H5V9H6V8Z" fill="#82D680"/>
<path d="M7 8H6V9H7V8Z" fill="black"/>
<path d="M9 8H8V9H9V8Z" fill="black"/>
<path d="M10 8H9V9H10V8Z" fill="#5FB05B"/>
<path d="M11 8H10V9H11V8Z" fill="#5FB05B"/>
<path d="M12 8H11V9H12V8Z" fill="#82D680"/>
<path d="M13 8H12V9H13V8Z" fill="#82D680"/>
<path d="M14 8H13V9H14V8Z" fill="#5FB05B"/>
<path d="M15 8H14V9H15V8Z" fill="#5FB05B"/>
<path d="M16 8H15V9H16V8Z" fill="black"/>
<path d="M18 8H17V9H18V8Z" fill="black"/>
<path d="M19 8H18V9H19V8Z" fill="#5FB05B"/>
<path d="M20 8H19V9H20V8Z" fill="#5FB05B"/>
<path d="M21 8H20V9H21V8Z" fill="#82D680"/>
<path d="M22 8H21V9H22V8Z" fill="black"/>
<path d="M3 9H2V10H3V9Z" fill="black"/>
<path d="M4 9H3V10H4V9Z" fill="#5FB05B"/>
<path d="M5 9H4V10H5V9Z" fill="#5FB05B"/>
<path d="M6 9H5V10H6V9Z" fill="#82D680"/>
<path d="M7 9H6V10H7V9Z" fill="black"/>
<path d="M9 9H8V10H9V9Z" fill="black"/>
<path d="M10 9H9V10H10V9Z" fill="#5FB05B"/>
<path d="M11 9H10V10H11V9Z" fill="#5FB05B"/>
<path d="M12 9H11V10H12V9Z" fill="#82D680"/>
<path d="M13 9H12V10H13V9Z" fill="#82D680"/>
<path d="M14 9H13V10H14V9Z" fill="#5FB05B"/>
<path d="M15 9H14V10H15V9Z" fill="#5FB05B"/>
<path d="M16 9H15V10H16V9Z" fill="black"/>
<path d="M17 9H16V10H17V9Z" fill="black"/>
<path d="M18 9H17V10H18V9Z" fill="black"/>
<path d="M19 9H18V10H19V9Z" fill="#5FB05B"/>
<path d="M20 9H19V10H20V9Z" fill="#4D9055"/>
<path d="M21 9H20V10H21V9Z" fill="#82D680"/>
<path d="M22 9H21V10H22V9Z" fill="black"/>
<path d="M3 10H2V11H3V10Z" fill="black"/>
<path d="M4 10H3V11H4V10Z" fill="#5FB05B"/>
<path d="M5 10H4V11H5V10Z" fill="#5FB05B"/>
<path d="M6 10H5V11H6V10Z" fill="#82D680"/>
<path d="M7 10H6V11H7V10Z" fill="black"/>
<path d="M9 10H8V11H9V10Z" fill="black"/>
<path d="M10 10H9V11H10V10Z" fill="#5FB05B"/>
<path d="M11 10H10V11H11V10Z" fill="#5FB05B"/>
<path d="M12 10H11V11H12V10Z" fill="#82D680"/>
<path d="M13 10H12V11H13V10Z" fill="#82D680"/>
<path d="M14 10H13V11H14V10Z" fill="#5FB05B"/>
<path d="M15 10H14V11H15V10Z" fill="#5FB05B"/>
<path d="M16 10H15V11H16V10Z" fill="#5FB05B"/>
<path d="M17 10H16V11H17V10Z" fill="#5FB05B"/>
<path d="M18 10H17V11H18V10Z" fill="#5FB05B"/>
<path d="M19 10H18V11H19V10Z" fill="#4D9055"/>
<path d="M20 10H19V11H20V10Z" fill="#4D9055"/>
<path d="M21 10H20V11H21V10Z" fill="black"/>
<path d="M22 10H21V11H22V10Z" fill="black"/>
<path d="M3 11H2V12H3V11Z" fill="black"/>
<path d="M4 11H3V12H4V11Z" fill="#5FB05B"/>
<path d="M5 11H4V12H5V11Z" fill="#5FB05B"/>
<path d="M6 11H5V12H6V11Z" fill="#82D680"/>
<path d="M7 11H6V12H7V11Z" fill="black"/>
<path d="M9 11H8V12H9V11Z" fill="black"/>
<path d="M10 11H9V12H10V11Z" fill="#5FB05B"/>
<path d="M11 11H10V12H11V11Z" fill="#5FB05B"/>
<path d="M12 11H11V12H12V11Z" fill="#82D680"/>
<path d="M13 11H12V12H13V11Z" fill="#82D680"/>
<path d="M14 11H13V12H14V11Z" fill="#5FB05B"/>
<path d="M15 11H14V12H15V11Z" fill="#5FB05B"/>
<path d="M16 11H15V12H16V11Z" fill="#5FB05B"/>
<path d="M17 11H16V12H17V11Z" fill="#4D9055"/>
<path d="M18 11H17V12H18V11Z" fill="#4D9055"/>
<path d="M19 11H18V12H19V11Z" fill="#4D9055"/>
<path d="M20 11H19V12H20V11Z" fill="black"/>
<path d="M21 11H20V12H21V11Z" fill="black"/>
<path d="M3 12H2V13H3V12Z" fill="black"/>
<path d="M4 12H3V13H4V12Z" fill="#5FB05B"/>
<path d="M5 12H4V13H5V12Z" fill="#5FB05B"/>
<path d="M6 12H5V13H6V12Z" fill="#82D680"/>
<path d="M7 12H6V13H7V12Z" fill="black"/>
<path d="M9 12H8V13H9V12Z" fill="black"/>
<path d="M10 12H9V13H10V12Z" fill="#5FB05B"/>
<path d="M11 12H10V13H11V12Z" fill="#5FB05B"/>
<path d="M12 12H11V13H12V12Z" fill="#82D680"/>
<path d="M13 12H12V13H13V12Z" fill="#82D680"/>
<path d="M14 12H13V13H14V12Z" fill="#5FB05B"/>
<path d="M15 12H14V13H15V12Z" fill="#5FB05B"/>
<path d="M16 12H15V13H16V12Z" fill="#4D9055"/>
<path d="M17 12H16V13H17V12Z" fill="#4D9055"/>
<path d="M18 12H17V13H18V12Z" fill="#4D9055"/>
<path d="M19 12H18V13H19V12Z" fill="black"/>
<path d="M20 12H19V13H20V12Z" fill="black"/>
<path d="M3 13H2V14H3V13Z" fill="black"/>
<path d="M4 13H3V14H4V13Z" fill="#5FB05B"/>
<path d="M5 13H4V14H5V13Z" fill="#5FB05B"/>
<path d="M6 13H5V14H6V13Z" fill="#82D680"/>
<path d="M7 13H6V14H7V13Z" fill="black"/>
<path d="M8 13H7V14H8V13Z" fill="black"/>
<path d="M9 13H8V14H9V13Z" fill="black"/>
<path d="M10 13H9V14H10V13Z" fill="#5FB05B"/>
<path d="M11 13H10V14H11V13Z" fill="#5FB05B"/>
<path d="M12 13H11V14H12V13Z" fill="#82D680"/>
<path d="M13 13H12V14H13V13Z" fill="#82D680"/>
<path d="M14 13H13V14H14V13Z" fill="#5FB05B"/>
<path d="M15 13H14V14H15V13Z" fill="#4D9055"/>
<path d="M16 13H15V14H16V13Z" fill="#4D9055"/>
<path d="M17 13H16V14H17V13Z" fill="black"/>
<path d="M18 13H17V14H18V13Z" fill="black"/>
<path d="M3 14H2V15H3V14Z" fill="black"/>
<path d="M4 14H3V15H4V14Z" fill="#4D9055"/>
<path d="M5 14H4V15H5V14Z" fill="#4D9055"/>
<path d="M6 14H5V15H6V14Z" fill="#5FB05B"/>
<path d="M7 14H6V15H7V14Z" fill="#82D680"/>
<path d="M8 14H7V15H8V14Z" fill="black"/>
<path d="M9 14H8V15H9V14Z" fill="black"/>
<path d="M10 14H9V15H10V14Z" fill="#5FB05B"/>
<path d="M11 14H10V15H11V14Z" fill="#5FB05B"/>
<path d="M12 14H11V15H12V14Z" fill="#82D680"/>
<path d="M13 14H12V15H13V14Z" fill="#82D680"/>
<path d="M14 14H13V15H14V14Z" fill="#4D9055"/>
<path d="M15 14H14V15H15V14Z" fill="#4D9055"/>
<path d="M16 14H15V15H16V14Z" fill="black"/>
<path d="M4 15H3V16H4V15Z" fill="black"/>
<path d="M5 15H4V16H5V15Z" fill="#4D9055"/>
<path d="M6 15H5V16H6V15Z" fill="#4D9055"/>
<path d="M7 15H6V16H7V15Z" fill="#5FB05B"/>
<path d="M8 15H7V16H8V15Z" fill="#82D680"/>
<path d="M9 15H8V16H9V15Z" fill="#5FB05B"/>
<path d="M10 15H9V16H10V15Z" fill="#5FB05B"/>
<path d="M11 15H10V16H11V15Z" fill="#5FB05B"/>
<path d="M12 15H11V16H12V15Z" fill="#82D680"/>
<path d="M13 15H12V16H13V15Z" fill="#82D680"/>
<path d="M14 15H13V16H14V15Z" fill="#4D9055"/>
<path d="M15 15H14V16H15V15Z" fill="#4D9055"/>
<path d="M16 15H15V16H16V15Z" fill="black"/>
<path d="M5 16H4V17H5V16Z" fill="black"/>
<path d="M6 16H5V17H6V16Z" fill="black"/>
<path d="M7 16H6V17H7V16Z" fill="#4D9055"/>
<path d="M8 16H7V17H8V16Z" fill="#5FB05B"/>
<path d="M9 16H8V17H9V16Z" fill="#5FB05B"/>
<path d="M10 16H9V17H10V16Z" fill="#5FB05B"/>
<path d="M11 16H10V17H11V16Z" fill="#5FB05B"/>
<path d="M12 16H11V17H12V16Z" fill="#82D680"/>
<path d="M13 16H12V17H13V16Z" fill="#82D680"/>
<path d="M14 16H13V17H14V16Z" fill="#4D9055"/>
<path d="M15 16H14V17H15V16Z" fill="#4D9055"/>
<path d="M16 16H15V17H16V16Z" fill="black"/>
<path d="M7 17H6V18H7V17Z" fill="black"/>
<path d="M8 17H7V18H8V17Z" fill="#4D9055"/>
<path d="M9 17H8V18H9V17Z" fill="#5FB05B"/>
<path d="M10 17H9V18H10V17Z" fill="#5FB05B"/>
<path d="M11 17H10V18H11V17Z" fill="#5FB05B"/>
<path d="M12 17H11V18H12V17Z" fill="#82D680"/>
<path d="M13 17H12V18H13V17Z" fill="#82D680"/>
<path d="M14 17H13V18H14V17Z" fill="#4D9055"/>
<path d="M15 17H14V18H15V17Z" fill="#4D9055"/>
<path d="M16 17H15V18H16V17Z" fill="black"/>
<path d="M8 18H7V19H8V18Z" fill="black"/>
<path d="M9 18H8V19H9V18Z" fill="black"/>
<path d="M10 18H9V19H10V18Z" fill="#4D9055"/>
<path d="M11 18H10V19H11V18Z" fill="#5FB05B"/>
<path d="M12 18H11V19H12V18Z" fill="#82D680"/>
<path d="M13 18H12V19H13V18Z" fill="#82D680"/>
<path d="M14 18H13V19H14V18Z" fill="#4D9055"/>
<path d="M15 18H14V19H15V18Z" fill="#4D9055"/>
<path d="M16 18H15V19H16V18Z" fill="black"/>
<path d="M9 19H8V20H9V19Z" fill="black"/>
<path d="M10 19H9V20H10V19Z" fill="#4D9055"/>
<path d="M11 19H10V20H11V19Z" fill="#5FB05B"/>
<path d="M12 19H11V20H12V19Z" fill="#82D680"/>
<path d="M13 19H12V20H13V19Z" fill="#82D680"/>
<path d="M14 19H13V20H14V19Z" fill="#4D9055"/>
<path d="M15 19H14V20H15V19Z" fill="#4D9055"/>
<path d="M16 19H15V20H16V19Z" fill="black"/>
<path d="M9 20H8V21H9V20Z" fill="black"/>
<path d="M10 20H9V21H10V20Z" fill="#4D9055"/>
<path d="M11 20H10V21H11V20Z" fill="#5FB05B"/>
<path d="M12 20H11V21H12V20Z" fill="#5FB05B"/>
<path d="M13 20H12V21H13V20Z" fill="#82D680"/>
<path d="M14 20H13V21H14V20Z" fill="#4D9055"/>
<path d="M15 20H14V21H15V20Z" fill="#4D9055"/>
<path d="M16 20H15V21H16V20Z" fill="black"/>
<path d="M9 21H8V22H9V21Z" fill="black"/>
<path d="M10 21H9V22H10V21Z" fill="#4D9055"/>
<path d="M11 21H10V22H11V21Z" fill="#4D9055"/>
<path d="M12 21H11V22H12V21Z" fill="#4D9055"/>
<path d="M13 21H12V22H13V21Z" fill="#4D9055"/>
<path d="M14 21H13V22H14V21Z" fill="#4D9055"/>
<path d="M15 21H14V22H15V21Z" fill="#4D9055"/>
<path d="M16 21H15V22H16V21Z" fill="black"/>
<path d="M10 22H9V23H10V22Z" fill="black"/>
<path d="M11 22H10V23H11V22Z" fill="black"/>
<path d="M12 22H11V23H12V22Z" fill="black"/>
<path d="M13 22H12V23H13V22Z" fill="black"/>
<path d="M14 22H13V23H14V22Z" fill="black"/>
<path d="M15 22H14V23H15V22Z" fill="black"/>
</svg>
