<svg width="16" height="16" viewBox="0 0 16 16" fill="none" xmlns="http://www.w3.org/2000/svg">
<path fill-rule="evenodd" clip-rule="evenodd" d="M15 1V15H11V1H15ZM14 14V2H12V14H14Z" fill="black"/>
<path d="M8 5V6H9V7H10V9H9V10H8V11H7V5H8Z" fill="black"/>
<path fill-rule="evenodd" clip-rule="evenodd" d="M5 11V15H1V11H5ZM4 14V12H2V14H4Z" fill="black"/>
<path fill-rule="evenodd" clip-rule="evenodd" d="M5 6V10H1V6H5ZM4 9V7H2V9H4Z" fill="black"/>
<path fill-rule="evenodd" clip-rule="evenodd" d="M5 1V5H1V1H5ZM4 4V2H2V4H4Z" fill="black"/>
</svg>
