<svg width="16" height="16" viewBox="0 0 16 16" fill="none" xmlns="http://www.w3.org/2000/svg">
<path d="M12 12V13H4V12H12Z" fill="black"/>
<path d="M4 12H3V11H4V12Z" fill="black"/>
<path d="M13 12H12V11H13V12Z" fill="black"/>
<path d="M3 11H2V10H3V11Z" fill="black"/>
<path d="M14 11H13V10H14V11Z" fill="black"/>
<path d="M2 10H1V9H2V10Z" fill="black"/>
<path d="M15 10H14V9H15V10Z" fill="black"/>
<path d="M1 9H0V7H1V9Z" fill="black"/>
<path d="M16 9H15V7H16V9Z" fill="black"/>
<path d="M2 7H1V6H2V7Z" fill="black"/>
<path d="M15 7H14V6H15V7Z" fill="black"/>
<path d="M3 6H2V5H3V6Z" fill="black"/>
<path d="M14 6H13V5H14V6Z" fill="black"/>
<path d="M4 5H3V4H4V5Z" fill="black"/>
<path d="M13 5H12V4H13V5Z" fill="black"/>
<path d="M12 4H4V3H12V4Z" fill="black"/>
<rect x="7" y="6" width="2" height="1" fill="black"/>
<rect x="7" y="9" width="2" height="1" fill="black"/>
<rect x="6" y="7" width="4" height="1" fill="black"/>
<rect x="6" y="8" width="4" height="1" fill="black"/>
</svg>
