<svg width="16" height="16" viewBox="0 0 16 16" fill="none" xmlns="http://www.w3.org/2000/svg">
<path d="M12 7V8H4V7H12Z" fill="black"/>
<path d="M4 7H3V6H4V7Z" fill="black"/>
<path d="M13 7H12V6H13V7Z" fill="black"/>
<path d="M3 6H2V5H3V6Z" fill="black"/>
<path d="M14 6H13V5H14V6Z" fill="black"/>
<path d="M2 5H1V4H2V5Z" fill="black"/>
<path d="M15 5H14V4H15V5Z" fill="black"/>
<rect x="6" y="8" width="1" height="1" fill="black"/>
<rect x="3" y="8" width="1" height="1" fill="black"/>
<rect x="2" y="6" width="1" height="1" fill="black"/>
<rect x="1" y="7" width="1" height="1" fill="black"/>
<rect x="12" y="8" width="1" height="1" fill="black"/>
<rect x="12" y="9" width="1" height="1" fill="black"/>
<rect x="13" y="6" width="1" height="1" fill="black"/>
<rect x="14" y="7" width="1" height="1" fill="black"/>
<rect x="3" y="9" width="1" height="1" fill="black"/>
<rect x="9" y="8" width="1" height="1" fill="black"/>
<rect x="6" y="9" width="1" height="1" fill="black"/>
<rect x="9" y="9" width="1" height="1" fill="black"/>
<rect x="6" y="10" width="1" height="1" fill="black"/>
<rect x="9" y="10" width="1" height="1" fill="black"/>
</svg>
