<svg width="24" height="24" viewBox="0 0 24 24" fill="none" xmlns="http://www.w3.org/2000/svg">
<path d="M22 22H20V20H22V22Z" fill="black"/>
<path d="M20 20H18V18H20V20Z" fill="black"/>
<path d="M14 18H6V16H14V18Z" fill="black"/>
<path d="M18 18H16V16H18V18Z" fill="black"/>
<path d="M6 16H4V14H6V16Z" fill="black"/>
<path d="M16 16H14V14H16V16Z" fill="black"/>
<path d="M4 14H2V6H4V14Z" fill="black"/>
<path d="M11 9H14V11H11V14H9V11H6V9H9V6H11V9Z" fill="black"/>
<path d="M18 14H16V6H18V14Z" fill="black"/>
<path d="M6 6H4V4H6V6Z" fill="black"/>
<path d="M16 6H14V4H16V6Z" fill="black"/>
<path d="M14 4H6V2H14V4Z" fill="black"/>
</svg>
