<svg xmlns="http://www.w3.org/2000/svg" width="48" height="48" viewBox="0 0 48 48">
  <path d="M0 0L1 0L2 0L2 1L1 1L0 1Z" fill="#88CDFE" fill-rule="nonzero" />
  <path d="M7 0L8 0L8 1L7 1Z" fill="#88CDFE" fill-rule="nonzero" />
  <path d="M30 0L31 0L32 0L32 1L31 1L30 1Z" fill="#88CDFE" fill-rule="nonzero" />
  <path d="M26 1L27 1L28 1L29 1L29 2L28 2L27 2L26 2Z" fill="#88CDFE" fill-rule="nonzero" />
  <path d="M32 1L33 1L34 1L34 2L33 2L32 2Z" fill="#88CDFE" fill-rule="nonzero" />
  <path d="M47 1L48 1L48 2L48 3L48 4L48 5L48 6L48 7L47 7L47 8L47 9L46 9L46 8L45 8L44 8L44 9L43 9L42 9L42 10L41 10L40 10L40 9L39 9L39 10L40 10L40 11L41 11L42 11L42 10L43 10L44 10L44 9L45 9L46 9L46 10L45 10L44 10L44 11L43 11L43 12L44 12L45 12L45 11L46 11L47 11L48 11L48 12L48 13L48 14L48 15L48 16L48 17L48 18L48 19L48 20L48 21L48 22L47 22L46 22L45 22L44 22L43 22L42 22L41 22L40 22L39 22L38 22L37 22L36 22L35 22L34 22L33 22L32 22L31 22L30 22L29 22L28 22L27 22L26 22L25 22L24 22L23 22L22 22L21 22L20 22L19 22L18 22L17 22L16 22L15 22L14 22L13 22L12 22L11 22L10 22L9 22L8 22L7 22L6 22L5 22L4 22L3 22L2 22L1 22L0 22L0 21L0 20L1 20L1 19L0 19L0 18L1 18L1 19L2 19L3 19L3 18L4 18L5 18L6 18L6 17L7 17L8 17L8 16L9 16L10 16L10 15L11 15L12 15L13 15L13 14L14 14L15 14L16 14L16 13L17 13L18 13L19 13L20 13L21 13L21 12L22 12L23 12L24 12L24 11L25 11L26 11L27 11L27 10L28 10L29 10L29 9L30 9L31 9L32 9L33 9L33 8L34 8L35 8L35 7L36 7L36 6L37 6L38 6L39 6L40 6L40 5L41 5L42 5L43 5L43 4L44 4L45 4L45 3L46 3L46 2L47 2Z" fill="#88CDFE" fill-rule="nonzero" />
  <path d="M0 2L1 2L1 3L0 3Z" fill="#88CDFE" fill-rule="nonzero" />
  <path d="M24 2L25 2L25 3L24 3Z" fill="#88CDFE" fill-rule="nonzero" />
  <path d="M36 2L37 2L37 3L36 3Z" fill="#88CDFE" fill-rule="nonzero" />
  <path d="M10 3L11 3L11 4L10 4Z" fill="#88CDFE" fill-rule="nonzero" />
  <path d="M4 4L5 4L5 5L4 5Z" fill="#88CDFE" fill-rule="nonzero" />
  <path d="M8 4L9 4L9 5L8 5Z" fill="#88CDFE" fill-rule="nonzero" />
  <path d="M0 5L1 5L1 6L0 6Z" fill="#88CDFE" fill-rule="nonzero" />
  <path d="M5 5L6 5L6 6L5 6Z" fill="#88CDFE" fill-rule="nonzero" />
  <path d="M9 5L10 5L10 6L9 6Z" fill="#88CDFE" fill-rule="nonzero" />
  <path d="M16 5L17 5L17 6L16 6Z" fill="#88CDFE" fill-rule="nonzero" />
  <path d="M29 5L30 5L31 5L31 6L30 6L29 6Z" fill="#88CDFE" fill-rule="nonzero" />
  <path d="M6 6L7 6L7 7L6 7Z" fill="#88CDFE" fill-rule="nonzero" />
  <path d="M11 6L12 6L12 7L11 7Z" fill="#88CDFE" fill-rule="nonzero" />
  <path d="M26 6L27 6L28 6L28 7L27 7L26 7Z" fill="#88CDFE" fill-rule="nonzero" />
  <path d="M36 10L35 10L35 11L36 11L37 11L38 11L38 10L37 10Z" fill="#88CDFE" fill-rule="nonzero" />
  <path d="M34 11L33 11L33 12L34 12Z" fill="#88CDFE" fill-rule="nonzero" />
  <path d="M31 12L30 12L30 13L31 13L32 13L32 12Z" fill="#88CDFE" fill-rule="nonzero" />
  <path d="M40 12L39 12L39 13L40 13L41 13L41 12Z" fill="#88CDFE" fill-rule="nonzero" />
  <path d="M20 14L19 14L19 15L20 15Z" fill="#88CDFE" fill-rule="nonzero" />
  <path d="M0 15L1 15L1 16L1 17L0 17L0 16Z" fill="#88CDFE" fill-rule="nonzero" />
  <path d="M2 15L3 15L3 16L2 16Z" fill="#88CDFE" fill-rule="nonzero" />
  <path d="M24 17L23 17L23 18L22 18L21 18L21 19L22 19L23 19L23 18L24 18L25 18L26 18L27 18L27 17L26 17L25 17Z" fill="#88CDFE" fill-rule="nonzero" />
  <path d="M34 17L33 17L33 18L34 18L35 18L35 17Z" fill="#88CDFE" fill-rule="nonzero" />
  <path d="M41 17L40 17L40 18L41 18L42 18L42 19L43 19L43 18L43 17L42 17Z" fill="#88CDFE" fill-rule="nonzero" />
  <path d="M2 0L3 0L4 0L5 0L6 0L7 0L7 1L8 1L8 0L9 0L10 0L11 0L12 0L13 0L14 0L15 0L16 0L17 0L18 0L19 0L20 0L21 0L22 0L23 0L24 0L25 0L26 0L27 0L28 0L29 0L30 0L30 1L31 1L32 1L32 0L33 0L34 0L35 0L36 0L37 0L38 0L39 0L40 0L41 0L42 0L43 0L44 0L45 0L46 0L47 0L48 0L48 1L47 1L47 2L46 2L46 3L45 3L45 4L44 4L43 4L43 5L42 5L41 5L40 5L40 6L39 6L38 6L37 6L36 6L36 7L35 7L35 8L34 8L33 8L33 9L32 9L31 9L30 9L29 9L29 10L28 10L27 10L27 11L26 11L25 11L24 11L24 12L23 12L22 12L21 12L21 13L20 13L19 13L18 13L17 13L16 13L16 14L15 14L14 14L13 14L13 15L12 15L11 15L10 15L10 16L9 16L8 16L8 17L7 17L6 17L6 18L5 18L4 18L3 18L3 19L2 19L1 19L1 18L0 18L0 17L1 17L1 16L1 15L0 15L0 14L0 13L0 12L0 11L0 10L0 9L0 8L0 7L0 6L1 6L1 5L0 5L0 4L0 3L1 3L1 2L0 2L0 1L1 1L2 1Z" fill="#B3DFFE" fill-rule="nonzero" />
  <path d="M27 1L26 1L26 2L27 2L28 2L29 2L29 1L28 1Z" fill="#B3DFFE" fill-rule="nonzero" />
  <path d="M33 1L32 1L32 2L33 2L34 2L34 1Z" fill="#B3DFFE" fill-rule="nonzero" />
  <path d="M25 2L24 2L24 3L25 3Z" fill="#B3DFFE" fill-rule="nonzero" />
  <path d="M37 2L36 2L36 3L37 3Z" fill="#B3DFFE" fill-rule="nonzero" />
  <path d="M11 3L10 3L10 4L11 4Z" fill="#B3DFFE" fill-rule="nonzero" />
  <path d="M5 4L4 4L4 5L5 5Z" fill="#B3DFFE" fill-rule="nonzero" />
  <path d="M9 4L8 4L8 5L9 5Z" fill="#B3DFFE" fill-rule="nonzero" />
  <path d="M6 5L5 5L5 6L6 6Z" fill="#B3DFFE" fill-rule="nonzero" />
  <path d="M10 5L9 5L9 6L10 6Z" fill="#B3DFFE" fill-rule="nonzero" />
  <path d="M17 5L16 5L16 6L17 6Z" fill="#B3DFFE" fill-rule="nonzero" />
  <path d="M30 5L29 5L29 6L30 6L31 6L31 5Z" fill="#B3DFFE" fill-rule="nonzero" />
  <path d="M7 6L6 6L6 7L7 7Z" fill="#B3DFFE" fill-rule="nonzero" />
  <path d="M12 6L11 6L11 7L12 7Z" fill="#B3DFFE" fill-rule="nonzero" />
  <path d="M27 6L26 6L26 7L27 7L28 7L28 6Z" fill="#B3DFFE" fill-rule="nonzero" />
  <path d="M47 7L48 7L48 8L48 9L48 10L48 11L47 11L46 11L45 11L45 12L44 12L43 12L43 11L44 11L44 10L43 10L42 10L42 9L43 9L44 9L44 8L45 8L46 8L46 9L45 9L44 9L44 10L45 10L46 10L46 9L47 9L47 8Z" fill="#B3DFFE" fill-rule="nonzero" />
  <path d="M39 9L40 9L40 10L39 10Z" fill="#B3DFFE" fill-rule="nonzero" />
  <path d="M35 10L36 10L37 10L38 10L38 11L37 11L36 11L35 11Z" fill="#B3DFFE" fill-rule="nonzero" />
  <path d="M40 10L41 10L42 10L42 11L41 11L40 11Z" fill="#B3DFFE" fill-rule="nonzero" />
  <path d="M33 11L34 11L34 12L33 12Z" fill="#B3DFFE" fill-rule="nonzero" />
  <path d="M30 12L31 12L32 12L32 13L31 13L30 13Z" fill="#B3DFFE" fill-rule="nonzero" />
  <path d="M39 12L40 12L41 12L41 13L40 13L39 13Z" fill="#B3DFFE" fill-rule="nonzero" />
  <path d="M3 15L2 15L2 16L3 16Z" fill="#B3DFFE" fill-rule="nonzero" />
  <path d="M19 14L20 14L20 15L19 15Z" fill="#B3DFFE" fill-rule="nonzero" />
  <path d="M23 17L24 17L25 17L26 17L27 17L27 18L26 18L25 18L24 18L23 18Z" fill="#B3DFFE" fill-rule="nonzero" />
  <path d="M33 17L34 17L35 17L35 18L34 18L33 18Z" fill="#B3DFFE" fill-rule="nonzero" />
  <path d="M40 17L41 17L42 17L43 17L43 18L43 19L42 19L42 18L41 18L40 18Z" fill="#B3DFFE" fill-rule="nonzero" />
  <path d="M21 18L22 18L23 18L23 19L22 19L21 19Z" fill="#B3DFFE" fill-rule="nonzero" />
  <path d="M0 19L1 19L1 20L0 20Z" fill="#B3DFFE" fill-rule="nonzero" />
  <path d="M0 22L1 22L1 23L2 23L3 23L3 22L4 22L5 22L5 23L6 23L7 23L7 22L8 22L8 23L7 23L7 24L8 24L9 24L9 23L10 23L11 23L11 24L10 24L9 24L9 25L9 26L8 26L8 25L7 25L6 25L6 24L5 24L5 25L4 25L4 24L4 23L3 23L3 24L2 24L1 24L1 25L0 25L0 24L0 23Z" fill="#C65F28" fill-rule="nonzero" />
  <path d="M13 22L14 22L15 22L16 22L16 23L15 23L14 23L13 23Z" fill="#C65F28" fill-rule="nonzero" />
  <path d="M17 22L18 22L19 22L20 22L21 22L21 23L20 23L19 23L18 23L17 23Z" fill="#C65F28" fill-rule="nonzero" />
  <path d="M22 22L23 22L24 22L24 23L23 23L22 23Z" fill="#C65F28" fill-rule="nonzero" />
  <path d="M25 22L26 22L26 23L25 23Z" fill="#C65F28" fill-rule="nonzero" />
  <path d="M27 22L28 22L29 22L30 22L31 22L32 22L33 22L34 22L35 22L36 22L37 22L37 23L37 24L36 24L35 24L34 24L34 23L33 23L32 23L31 23L30 23L30 24L31 24L32 24L33 24L34 24L34 25L35 25L35 26L36 26L37 26L37 25L37 24L38 24L38 23L38 22L39 22L39 23L40 23L41 23L41 22L42 22L43 22L44 22L45 22L46 22L47 22L48 22L48 23L48 24L48 25L48 26L48 27L48 28L47 28L46 28L45 28L44 28L43 28L43 27L42 27L42 26L41 26L41 27L40 27L39 27L39 26L38 26L37 26L37 27L36 27L35 27L34 27L34 28L33 28L33 27L32 27L32 26L32 25L31 25L30 25L30 26L31 26L31 27L30 27L29 27L29 26L29 25L28 25L28 24L27 24L27 23Z" fill="#C65F28" fill-rule="nonzero" />
  <path d="M42 23L41 23L41 24L42 24Z" fill="#C65F28" fill-rule="nonzero" />
  <path d="M40 24L39 24L39 25L39 26L40 26L40 25Z" fill="#C65F28" fill-rule="nonzero" />
  <path d="M43 24L42 24L42 25L43 25Z" fill="#C65F28" fill-rule="nonzero" />
  <path d="M46 24L45 24L45 25L46 25Z" fill="#C65F28" fill-rule="nonzero" />
  <path d="M11 24L12 24L13 24L13 25L12 25L12 26L11 26L11 25Z" fill="#C65F28" fill-rule="nonzero" />
  <path d="M14 24L15 24L16 24L16 25L15 25L14 25Z" fill="#C65F28" fill-rule="nonzero" />
  <path d="M21 24L22 24L22 25L21 25Z" fill="#C65F28" fill-rule="nonzero" />
  <path d="M13 25L14 25L14 26L13 26Z" fill="#C65F28" fill-rule="nonzero" />
  <path d="M22 25L23 25L23 26L22 26Z" fill="#C65F28" fill-rule="nonzero" />
  <path d="M24 25L25 25L25 26L24 26Z" fill="#C65F28" fill-rule="nonzero" />
  <path d="M27 25L28 25L28 26L28 27L27 27L27 26Z" fill="#C65F28" fill-rule="nonzero" />
  <path d="M44 26L43 26L43 27L44 27Z" fill="#C65F28" fill-rule="nonzero" />
  <path d="M46 26L45 26L45 27L46 27Z" fill="#C65F28" fill-rule="nonzero" />
  <path d="M0 26L1 26L2 26L2 27L1 27L0 27Z" fill="#C65F28" fill-rule="nonzero" />
  <path d="M3 26L4 26L5 26L5 27L5 28L4 28L4 27L3 27Z" fill="#C65F28" fill-rule="nonzero" />
  <path d="M2 27L3 27L3 28L2 28Z" fill="#C65F28" fill-rule="nonzero" />
  <path d="M11 27L12 27L12 28L13 28L13 29L12 29L11 29L11 28Z" fill="#C65F28" fill-rule="nonzero" />
  <path d="M14 27L15 27L15 28L14 28Z" fill="#C65F28" fill-rule="nonzero" />
  <path d="M16 27L17 27L18 27L18 28L19 28L20 28L20 29L19 29L18 29L17 29L17 28L16 28Z" fill="#C65F28" fill-rule="nonzero" />
  <path d="M22 27L23 27L23 28L22 28Z" fill="#C65F28" fill-rule="nonzero" />
  <path d="M25 27L26 27L27 27L27 28L27 29L26 29L26 28L25 28Z" fill="#C65F28" fill-rule="nonzero" />
  <path d="M38 27L39 27L39 28L38 28Z" fill="#C65F28" fill-rule="nonzero" />
  <path d="M7 28L8 28L9 28L9 29L8 29L7 29Z" fill="#C65F28" fill-rule="nonzero" />
  <path d="M15 28L16 28L16 29L15 29Z" fill="#C65F28" fill-rule="nonzero" />
  <path d="M23 28L24 28L24 29L23 29Z" fill="#C65F28" fill-rule="nonzero" />
  <path d="M29 29L30 29L31 29L31 30L30 30L29 30Z" fill="#C65F28" fill-rule="nonzero" />
  <path d="M39 29L40 29L41 29L41 30L40 30L39 30Z" fill="#C65F28" fill-rule="nonzero" />
  <path d="M0 30L1 30L2 30L2 31L1 31L0 31Z" fill="#C65F28" fill-rule="nonzero" />
  <path d="M5 30L6 30L7 30L8 30L8 31L8 32L7 32L6 32L6 33L5 33L5 32L5 31Z" fill="#C65F28" fill-rule="nonzero" />
  <path d="M14 30L15 30L16 30L16 31L15 31L14 31Z" fill="#C65F28" fill-rule="nonzero" />
  <path d="M22 30L23 30L23 31L22 31Z" fill="#C65F28" fill-rule="nonzero" />
  <path d="M31 30L32 30L33 30L33 31L33 32L34 32L34 33L33 33L32 33L32 32L31 32L30 32L29 32L29 31L30 31L31 31Z" fill="#C65F28" fill-rule="nonzero" />
  <path d="M34 30L35 30L35 31L34 31Z" fill="#C65F28" fill-rule="nonzero" />
  <path d="M36 30L37 30L38 30L38 31L37 31L37 32L37 33L36 33L36 32L36 31Z" fill="#C65F28" fill-rule="nonzero" />
  <path d="M10 31L11 31L11 32L11 33L10 33L10 32Z" fill="#C65F28" fill-rule="nonzero" />
  <path d="M12 31L13 31L14 31L14 32L13 32L12 32Z" fill="#C65F28" fill-rule="nonzero" />
  <path d="M19 31L20 31L21 31L22 31L22 32L21 32L20 32L20 33L19 33L19 32Z" fill="#C65F28" fill-rule="nonzero" />
  <path d="M23 31L24 31L25 31L26 31L27 31L27 32L26 32L26 33L25 33L25 34L24 34L24 33L23 33L23 32Z" fill="#C65F28" fill-rule="nonzero" />
  <path d="M40 31L41 31L41 32L42 32L42 33L41 33L40 33L39 33L39 32L40 32Z" fill="#C65F28" fill-rule="nonzero" />
  <path d="M2 32L3 32L3 33L2 33Z" fill="#C65F28" fill-rule="nonzero" />
  <path d="M15 32L16 32L16 33L15 33Z" fill="#C65F28" fill-rule="nonzero" />
  <path d="M1 33L2 33L2 34L1 34Z" fill="#C65F28" fill-rule="nonzero" />
  <path d="M27 33L28 33L29 33L29 34L28 34L27 34Z" fill="#C65F28" fill-rule="nonzero" />
  <path d="M21 34L22 34L22 35L21 35Z" fill="#C65F28" fill-rule="nonzero" />
  <path d="M1 22L2 22L3 22L3 23L2 23L1 23Z" fill="#B14D1C" fill-rule="nonzero" />
  <path d="M5 22L6 22L7 22L7 23L6 23L5 23Z" fill="#B14D1C" fill-rule="nonzero" />
  <path d="M8 22L9 22L10 22L11 22L12 22L13 22L13 23L12 23L11 23L10 23L9 23L9 24L8 24L8 23Z" fill="#B14D1C" fill-rule="nonzero" />
  <path d="M16 22L17 22L17 23L16 23Z" fill="#B14D1C" fill-rule="nonzero" />
  <path d="M21 22L22 22L22 23L21 23Z" fill="#B14D1C" fill-rule="nonzero" />
  <path d="M24 22L25 22L25 23L24 23Z" fill="#B14D1C" fill-rule="nonzero" />
  <path d="M26 22L27 22L27 23L26 23Z" fill="#B14D1C" fill-rule="nonzero" />
  <path d="M39 22L40 22L41 22L41 23L40 23L39 23Z" fill="#B14D1C" fill-rule="nonzero" />
  <path d="M14 23L15 23L15 24L14 24Z" fill="#B14D1C" fill-rule="nonzero" />
  <path d="M17 23L18 23L19 23L20 23L20 24L19 24L19 25L20 25L20 24L21 24L21 25L20 25L20 26L19 26L18 26L17 26L16 26L15 26L14 26L14 25L13 25L13 24L14 24L14 25L15 25L16 25L16 24L17 24Z" fill="#B14D1C" fill-rule="nonzero" />
  <path d="M22 23L23 23L23 24L24 24L25 24L26 24L27 24L27 25L27 26L26 26L25 26L25 25L24 25L24 26L23 26L23 25L22 25L22 24Z" fill="#B14D1C" fill-rule="nonzero" />
  <path d="M31 23L32 23L33 23L34 23L34 24L33 24L32 24L31 24Z" fill="#B14D1C" fill-rule="nonzero" />
  <path d="M41 23L42 23L42 24L41 24Z" fill="#B14D1C" fill-rule="nonzero" />
  <path d="M3 24L4 24L4 25L5 25L5 24L6 24L6 25L7 25L8 25L8 26L7 26L6 26L5 26L4 26L3 26L3 27L2 27L2 26L1 26L0 26L0 25L1 25L2 25L3 25Z" fill="#B14D1C" fill-rule="nonzero" />
  <path d="M9 24L10 24L11 24L11 25L11 26L10 26L9 26L9 25Z" fill="#B14D1C" fill-rule="nonzero" />
  <path d="M35 24L36 24L37 24L37 25L36 25L35 25Z" fill="#B14D1C" fill-rule="nonzero" />
  <path d="M12 25L13 25L13 26L12 26Z" fill="#B14D1C" fill-rule="nonzero" />
  <path d="M21 25L22 25L22 26L21 26Z" fill="#B14D1C" fill-rule="nonzero" />
  <path d="M24 26L25 26L25 27L24 27Z" fill="#B14D1C" fill-rule="nonzero" />
  <path d="M37 26L38 26L39 26L39 27L38 27L37 27Z" fill="#B14D1C" fill-rule="nonzero" />
  <path d="M41 26L42 26L42 27L41 27Z" fill="#B14D1C" fill-rule="nonzero" />
  <path d="M45 26L46 26L46 27L45 27Z" fill="#B14D1C" fill-rule="nonzero" />
  <path d="M15 27L16 27L16 28L15 28Z" fill="#B14D1C" fill-rule="nonzero" />
  <path d="M6 28L7 28L7 29L6 29Z" fill="#B14D1C" fill-rule="nonzero" />
  <path d="M10 28L11 28L11 29L10 29Z" fill="#B14D1C" fill-rule="nonzero" />
  <path d="M13 28L14 28L15 28L15 29L14 29L13 29Z" fill="#B14D1C" fill-rule="nonzero" />
  <path d="M16 28L17 28L17 29L16 29Z" fill="#B14D1C" fill-rule="nonzero" />
  <path d="M22 28L23 28L23 29L22 29Z" fill="#B14D1C" fill-rule="nonzero" />
  <path d="M25 28L26 28L26 29L25 29Z" fill="#B14D1C" fill-rule="nonzero" />
  <path d="M37 22L38 22L38 23L38 24L37 24L37 23Z" fill="#963C17" fill-rule="nonzero" />
  <path d="M3 23L4 23L4 24L3 24Z" fill="#963C17" fill-rule="nonzero" />
  <path d="M7 23L8 23L8 24L7 24Z" fill="#963C17" fill-rule="nonzero" />
  <path d="M11 23L12 23L13 23L14 23L14 24L13 24L12 24L11 24Z" fill="#963C17" fill-rule="nonzero" />
  <path d="M15 23L16 23L17 23L17 24L16 24L15 24Z" fill="#963C17" fill-rule="nonzero" />
  <path d="M20 23L21 23L22 23L22 24L21 24L20 24Z" fill="#963C17" fill-rule="nonzero" />
  <path d="M23 23L24 23L25 23L26 23L27 23L27 24L26 24L25 24L24 24L23 24Z" fill="#963C17" fill-rule="nonzero" />
  <path d="M30 23L31 23L31 24L30 24Z" fill="#963C17" fill-rule="nonzero" />
  <path d="M1 24L2 24L3 24L3 25L2 25L1 25Z" fill="#963C17" fill-rule="nonzero" />
  <path d="M27 24L28 24L28 25L27 25Z" fill="#963C17" fill-rule="nonzero" />
  <path d="M34 24L35 24L35 25L34 25Z" fill="#963C17" fill-rule="nonzero" />
  <path d="M39 24L40 24L40 25L40 26L39 26L39 25Z" fill="#963C17" fill-rule="nonzero" />
  <path d="M42 24L43 24L43 25L42 25Z" fill="#963C17" fill-rule="nonzero" />
  <path d="M45 24L46 24L46 25L45 25Z" fill="#963C17" fill-rule="nonzero" />
  <path d="M20 25L21 25L21 26L22 26L23 26L24 26L24 27L23 27L22 27L21 27L20 27L20 26Z" fill="#963C17" fill-rule="nonzero" />
  <path d="M28 25L29 25L29 26L29 27L28 27L28 26Z" fill="#963C17" fill-rule="nonzero" />
  <path d="M30 25L31 25L32 25L32 26L32 27L31 27L31 26L30 26Z" fill="#963C17" fill-rule="nonzero" />
  <path d="M35 25L36 25L37 25L37 26L36 26L35 26Z" fill="#963C17" fill-rule="nonzero" />
  <path d="M5 26L6 26L7 26L7 27L6 27L5 27Z" fill="#963C17" fill-rule="nonzero" />
  <path d="M8 26L9 26L9 27L8 27Z" fill="#963C17" fill-rule="nonzero" />
  <path d="M12 26L13 26L13 27L12 27Z" fill="#963C17" fill-rule="nonzero" />
  <path d="M16 26L17 26L18 26L19 26L19 27L18 27L17 27L16 27Z" fill="#963C17" fill-rule="nonzero" />
  <path d="M25 26L26 26L27 26L27 27L26 27L25 27Z" fill="#963C17" fill-rule="nonzero" />
  <path d="M43 26L44 26L44 27L43 27Z" fill="#963C17" fill-rule="nonzero" />
  <path d="M3 27L4 27L4 28L3 28Z" fill="#963C17" fill-rule="nonzero" />
  <path d="M19 27L20 27L20 28L19 28Z" fill="#963C17" fill-rule="nonzero" />
  <path d="M9 28L10 28L10 29L9 29Z" fill="#963C17" fill-rule="nonzero" />
  <path d="M19 24L20 24L20 25L19 25Z" fill="#EA992C" fill-rule="nonzero" />
  <path d="M32 27L33 27L33 28L34 28L35 28L36 28L37 28L38 28L39 28L40 28L41 28L42 28L43 28L43 29L42 29L41 29L40 29L39 29L38 29L37 29L36 29L35 29L34 29L33 29L32 29L31 29L30 29L29 29L29 30L28 30L28 31L29 31L29 32L28 32L27 32L27 31L27 30L27 29L27 28L28 28L29 28L30 28L31 28L32 28Z" fill="#EA992C" fill-rule="nonzero" />
  <path d="M0 28L1 28L1 29L2 29L2 30L1 30L0 30L0 29Z" fill="#EA992C" fill-rule="nonzero" />
  <path d="M20 28L21 28L21 29L22 29L23 29L23 30L22 30L21 30L20 30L20 29Z" fill="#EA992C" fill-rule="nonzero" />
  <path d="M47 28L48 28L48 29L48 30L48 31L48 32L48 33L47 33L46 33L46 32L46 31L46 30L45 30L44 30L44 29L45 29L46 29L47 29Z" fill="#EA992C" fill-rule="nonzero" />
  <path d="M4 29L5 29L6 29L7 29L8 29L9 29L10 29L10 30L9 30L8 30L7 30L6 30L5 30L4 30Z" fill="#EA992C" fill-rule="nonzero" />
  <path d="M15 29L16 29L16 30L15 30Z" fill="#EA992C" fill-rule="nonzero" />
  <path d="M2 30L3 30L3 31L4 31L5 31L5 32L4 32L3 32L2 32L1 32L1 33L1 34L1 35L1 36L0 36L0 35L0 34L0 33L0 32L0 31L1 31L2 31Z" fill="#EA992C" fill-rule="nonzero" />
  <path d="M11 30L12 30L13 30L14 30L14 31L13 31L12 31L11 31Z" fill="#EA992C" fill-rule="nonzero" />
  <path d="M17 30L18 30L19 30L19 31L19 32L18 32L18 31L17 31Z" fill="#EA992C" fill-rule="nonzero" />
  <path d="M33 30L34 30L34 31L35 31L36 31L36 32L36 33L35 33L34 33L34 32L33 32L33 31Z" fill="#EA992C" fill-rule="nonzero" />
  <path d="M38 30L39 30L40 30L41 30L42 30L43 30L43 31L44 31L45 31L45 32L44 32L43 32L42 32L41 32L41 31L40 31L40 32L39 32L38 32L37 32L37 31L38 31Z" fill="#EA992C" fill-rule="nonzero" />
  <path d="M8 31L9 31L10 31L10 32L9 32L8 32Z" fill="#EA992C" fill-rule="nonzero" />
  <path d="M14 31L15 31L15 32L14 32Z" fill="#EA992C" fill-rule="nonzero" />
  <path d="M3 33L4 33L5 33L6 33L6 34L5 34L5 35L5 36L4 36L3 36L2 36L2 35L3 35L4 35L4 34L3 34Z" fill="#EA992C" fill-rule="nonzero" />
  <path d="M9 33L10 33L10 34L9 34Z" fill="#EA992C" fill-rule="nonzero" />
  <path d="M30 33L31 33L31 34L32 34L33 34L34 34L35 34L36 34L37 34L37 33L38 33L38 34L39 34L40 34L41 34L42 34L43 34L44 34L45 34L46 34L47 34L48 34L48 35L47 35L46 35L45 35L44 35L43 35L42 35L41 35L40 35L39 35L38 35L37 35L36 35L35 35L34 35L33 35L32 35L31 35L30 35L29 35L28 35L27 35L27 34L28 34L29 34L30 34Z" fill="#EA992C" fill-rule="nonzero" />
  <path d="M13 34L14 34L15 34L16 34L16 35L15 35L14 35L13 35Z" fill="#EA992C" fill-rule="nonzero" />
  <path d="M17 34L18 34L18 35L17 35Z" fill="#EA992C" fill-rule="nonzero" />
  <path d="M19 34L20 34L21 34L21 35L20 35L19 35Z" fill="#EA992C" fill-rule="nonzero" />
  <path d="M7 26L8 26L8 27L9 27L9 26L10 26L11 26L12 26L12 27L11 27L11 28L10 28L9 28L8 28L7 28L6 28L6 29L5 29L4 29L3 29L2 29L1 29L1 28L0 28L0 27L1 27L2 27L2 28L3 28L4 28L5 28L5 27L6 27L7 27Z" fill="#742710" fill-rule="nonzero" />
  <path d="M13 26L14 26L15 26L16 26L16 27L15 27L14 27L14 28L13 28L12 28L12 27L13 27Z" fill="#742710" fill-rule="nonzero" />
  <path d="M19 26L20 26L20 27L19 27Z" fill="#742710" fill-rule="nonzero" />
  <path d="M18 27L19 27L19 28L18 28Z" fill="#742710" fill-rule="nonzero" />
  <path d="M20 27L21 27L22 27L22 28L21 28L20 28Z" fill="#742710" fill-rule="nonzero" />
  <path d="M23 27L24 27L25 27L25 28L24 28L23 28Z" fill="#742710" fill-rule="nonzero" />
  <path d="M27 27L28 27L29 27L30 27L31 27L32 27L32 28L31 28L30 28L29 28L28 28L27 28Z" fill="#742710" fill-rule="nonzero" />
  <path d="M34 27L35 27L36 27L37 27L38 27L38 28L37 28L36 28L35 28L34 28Z" fill="#742710" fill-rule="nonzero" />
  <path d="M39 27L40 27L41 27L42 27L43 27L43 28L42 28L41 28L40 28L39 28Z" fill="#742710" fill-rule="nonzero" />
  <path d="M43 28L44 28L45 28L46 28L47 28L47 29L46 29L45 29L44 29L43 29Z" fill="#742710" fill-rule="nonzero" />
  <path d="M21 28L22 28L22 29L21 29Z" fill="#E18220" fill-rule="nonzero" />
  <path d="M24 28L25 28L25 29L26 29L27 29L27 30L27 31L26 31L25 31L24 31L23 31L23 30L23 29L24 29Z" fill="#E18220" fill-rule="nonzero" />
  <path d="M2 29L3 29L4 29L4 30L5 30L5 31L4 31L3 31L3 30L2 30Z" fill="#E18220" fill-rule="nonzero" />
  <path d="M10 29L11 29L12 29L13 29L14 29L15 29L15 30L14 30L13 30L12 30L11 30L11 31L10 31L9 31L8 31L8 30L9 30L10 30Z" fill="#E18220" fill-rule="nonzero" />
  <path d="M16 29L17 29L18 29L19 29L20 29L20 30L21 30L22 30L22 31L21 31L20 31L19 31L19 30L18 30L17 30L17 31L18 31L18 32L19 32L19 33L20 33L20 32L21 32L22 32L22 31L23 31L23 32L23 33L24 33L24 34L25 34L25 33L26 33L26 32L27 32L28 32L29 32L30 32L31 32L32 32L32 33L33 33L34 33L35 33L36 33L37 33L37 32L38 32L39 32L39 33L40 33L41 33L42 33L42 32L43 32L44 32L45 32L45 31L44 31L43 31L43 30L42 30L41 30L41 29L42 29L43 29L44 29L44 30L45 30L46 30L46 31L46 32L46 33L47 33L48 33L48 34L47 34L46 34L45 34L44 34L43 34L42 34L41 34L40 34L39 34L38 34L38 33L37 33L37 34L36 34L35 34L34 34L33 34L32 34L31 34L31 33L30 33L30 34L29 34L29 33L28 33L27 33L27 34L26 34L25 34L25 35L24 35L23 35L22 35L22 34L21 34L20 34L19 34L19 35L18 35L18 34L17 34L17 35L16 35L16 34L15 34L14 34L13 34L13 35L12 35L11 35L10 35L9 35L8 35L7 35L6 35L5 35L5 34L6 34L6 33L6 32L7 32L8 32L9 32L10 32L10 33L9 33L9 34L10 34L10 33L11 33L11 32L11 31L12 31L12 32L13 32L14 32L15 32L15 31L16 31L16 30Z" fill="#E18220" fill-rule="nonzero" />
  <path d="M31 29L32 29L33 29L34 29L35 29L36 29L37 29L38 29L39 29L39 30L38 30L37 30L36 30L36 31L35 31L35 30L34 30L33 30L32 30L31 30Z" fill="#E18220" fill-rule="nonzero" />
  <path d="M28 30L29 30L30 30L31 30L31 31L30 31L29 31L28 31Z" fill="#E18220" fill-rule="nonzero" />
  <path d="M16 32L15 32L15 33L16 33Z" fill="#E18220" fill-rule="nonzero" />
  <path d="M1 32L2 32L2 33L1 33Z" fill="#E18220" fill-rule="nonzero" />
  <path d="M3 32L4 32L5 32L5 33L4 33L3 33Z" fill="#E18220" fill-rule="nonzero" />
  <path d="M2 33L3 33L3 34L4 34L4 35L3 35L2 35L2 36L1 36L1 35L1 34L2 34Z" fill="#E18220" fill-rule="nonzero" />
  <path d="M25 34L26 34L26 35L25 35Z" fill="#928F1E" fill-rule="nonzero" />
  <path d="M7 35L8 35L8 36L7 36Z" fill="#928F1E" fill-rule="nonzero" />
  <path d="M10 35L11 35L12 35L12 36L13 36L13 35L14 35L15 35L16 35L16 36L15 36L14 36L13 36L13 37L12 37L11 37L10 37L10 36Z" fill="#928F1E" fill-rule="nonzero" />
  <path d="M17 35L18 35L19 35L20 35L20 36L20 37L19 37L19 36L18 36L17 36Z" fill="#928F1E" fill-rule="nonzero" />
  <path d="M26 35L27 35L28 35L29 35L29 36L30 36L30 35L31 35L32 35L33 35L33 36L34 36L34 35L35 35L36 35L37 35L38 35L39 35L40 35L41 35L42 35L43 35L44 35L45 35L46 35L47 35L48 35L48 36L48 37L48 38L48 39L48 40L48 41L48 42L48 43L48 44L48 45L48 46L48 47L48 48L47 48L46 48L45 48L44 48L43 48L42 48L41 48L40 48L39 48L38 48L37 48L36 48L35 48L34 48L33 48L32 48L31 48L30 48L29 48L28 48L27 48L26 48L25 48L24 48L23 48L22 48L21 48L20 48L19 48L18 48L17 48L16 48L15 48L14 48L13 48L12 48L11 48L10 48L9 48L8 48L7 48L6 48L5 48L4 48L3 48L2 48L1 48L0 48L0 47L0 46L0 45L0 44L1 44L1 45L2 45L2 46L3 46L4 46L4 45L4 44L3 44L2 44L2 43L1 43L0 43L0 42L0 41L0 40L0 39L0 38L0 37L0 36L1 36L2 36L2 37L1 37L1 38L1 39L2 39L2 40L2 41L2 42L3 42L4 42L4 41L4 40L4 39L4 38L3 38L2 38L2 37L3 37L3 36L4 36L5 36L5 37L5 38L5 39L6 39L7 39L7 40L7 41L7 42L6 42L6 43L7 43L8 43L9 43L10 43L11 43L12 43L13 43L14 43L14 42L13 42L12 42L11 42L10 42L9 42L8 42L8 41L9 41L9 40L10 40L11 40L11 39L11 38L12 38L12 39L13 39L14 39L14 40L15 40L15 39L16 39L17 39L18 39L19 39L20 39L21 39L22 39L23 39L24 39L25 39L26 39L27 39L28 39L28 40L27 40L27 41L26 41L25 41L24 41L23 41L23 40L22 40L22 41L23 41L23 42L22 42L21 42L21 41L20 41L19 41L18 41L17 41L16 41L15 41L15 42L16 42L17 42L18 42L19 42L20 42L20 43L19 43L18 43L17 43L16 43L16 44L17 44L17 45L18 45L18 44L19 44L20 44L21 44L21 43L22 43L23 43L24 43L24 42L25 42L25 43L25 44L24 44L23 44L23 45L22 45L21 45L21 46L22 46L23 46L24 46L25 46L26 46L27 46L27 45L26 45L25 45L25 44L26 44L26 43L27 43L27 42L27 41L28 41L29 41L30 41L31 41L31 40L31 39L30 39L29 39L29 38L28 38L27 38L27 37L27 36L26 36Z" fill="#928F1E" fill-rule="nonzero" />
  <path d="M39 36L38 36L38 37L37 37L36 37L36 38L37 38L37 39L38 39L39 39L39 38L38 38L38 37L39 37Z" fill="#928F1E" fill-rule="nonzero" />
  <path d="M42 36L41 36L41 37L42 37Z" fill="#928F1E" fill-rule="nonzero" />
  <path d="M16 36L17 36L17 37L16 37Z" fill="#928F1E" fill-rule="nonzero" />
  <path d="M23 36L24 36L24 37L23 37Z" fill="#928F1E" fill-rule="nonzero" />
  <path d="M31 37L30 37L30 38L31 38L32 38L32 37Z" fill="#928F1E" fill-rule="nonzero" />
  <path d="M35 37L34 37L34 38L33 38L33 39L33 40L34 40L34 39L35 39L35 38Z" fill="#928F1E" fill-rule="nonzero" />
  <path d="M43 37L42 37L42 38L42 39L43 39L43 38L44 38L45 38L45 37L44 37Z" fill="#928F1E" fill-rule="nonzero" />
  <path d="M24 37L25 37L25 38L24 38Z" fill="#928F1E" fill-rule="nonzero" />
  <path d="M41 38L40 38L40 39L41 39Z" fill="#928F1E" fill-rule="nonzero" />
  <path d="M44 39L43 39L43 40L44 40Z" fill="#928F1E" fill-rule="nonzero" />
  <path d="M46 39L45 39L45 40L46 40Z" fill="#928F1E" fill-rule="nonzero" />
  <path d="M12 40L11 40L11 41L12 41Z" fill="#928F1E" fill-rule="nonzero" />
  <path d="M35 40L34 40L34 41L35 41L36 41L37 41L37 40L36 40Z" fill="#928F1E" fill-rule="nonzero" />
  <path d="M40 40L39 40L39 41L40 41L41 41L41 40Z" fill="#928F1E" fill-rule="nonzero" />
  <path d="M43 41L42 41L42 42L41 42L40 42L40 43L39 43L39 42L38 42L37 42L36 42L35 42L34 42L34 43L35 43L36 43L37 43L38 43L38 44L38 45L39 45L39 46L38 46L37 46L37 47L38 47L39 47L39 46L40 46L40 45L40 44L41 44L42 44L42 43L43 43L44 43L45 43L45 42L44 42L43 42Z" fill="#928F1E" fill-rule="nonzero" />
  <path d="M31 42L30 42L30 43L29 43L29 44L28 44L28 45L29 45L29 46L30 46L31 46L32 46L33 46L34 46L34 45L34 44L33 44L32 44L31 44L31 43L32 43L33 43L33 42L32 42Z" fill="#928F1E" fill-rule="nonzero" />
  <path d="M6 44L5 44L5 45L6 45L7 45L8 45L8 44L7 44Z" fill="#928F1E" fill-rule="nonzero" />
  <path d="M12 44L11 44L11 45L11 46L10 46L9 46L8 46L7 46L7 47L8 47L9 47L10 47L11 47L11 46L12 46L13 46L13 45L14 45L15 45L15 44L14 44L13 44Z" fill="#928F1E" fill-rule="nonzero" />
  <path d="M44 44L43 44L43 45L43 46L44 46L45 46L46 46L46 45L45 45L45 44Z" fill="#928F1E" fill-rule="nonzero" />
  <path d="M19 45L18 45L18 46L19 46Z" fill="#928F1E" fill-rule="nonzero" />
  <path d="M26 34L27 34L27 35L26 35Z" fill="#E0D430" fill-rule="nonzero" />
  <path d="M38 36L39 36L39 37L38 37Z" fill="#E0D430" fill-rule="nonzero" />
  <path d="M6 37L7 37L8 37L9 37L9 38L8 38L7 38L6 38Z" fill="#E0D430" fill-rule="nonzero" />
  <path d="M10 37L11 37L12 37L13 37L13 38L12 38L11 38L11 39L10 39L10 38Z" fill="#E0D430" fill-rule="nonzero" />
  <path d="M14 37L15 37L15 38L14 38Z" fill="#E0D430" fill-rule="nonzero" />
  <path d="M19 37L20 37L20 38L21 38L21 39L20 39L19 39L18 39L17 39L17 38L18 38L19 38Z" fill="#E0D430" fill-rule="nonzero" />
  <path d="M42 37L43 37L44 37L44 38L43 38L43 39L42 39L42 38Z" fill="#E0D430" fill-rule="nonzero" />
  <path d="M37 38L38 38L39 38L39 39L38 39L37 39Z" fill="#E0D430" fill-rule="nonzero" />
  <path d="M7 40L8 40L9 40L9 41L8 41L8 42L7 42L7 41Z" fill="#E0D430" fill-rule="nonzero" />
  <path d="M22 40L23 40L23 41L22 41Z" fill="#E0D430" fill-rule="nonzero" />
  <path d="M2 41L3 41L4 41L4 42L3 42L2 42Z" fill="#E0D430" fill-rule="nonzero" />
  <path d="M23 41L24 41L25 41L26 41L26 42L27 42L27 43L26 43L26 44L25 44L25 43L25 42L24 42L23 42Z" fill="#E0D430" fill-rule="nonzero" />
  <path d="M42 41L43 41L43 42L43 43L42 43L42 42Z" fill="#E0D430" fill-rule="nonzero" />
  <path d="M30 42L31 42L32 42L32 43L31 43L30 43Z" fill="#E0D430" fill-rule="nonzero" />
  <path d="M0 43L1 43L1 44L0 44Z" fill="#E0D430" fill-rule="nonzero" />
  <path d="M29 43L30 43L30 44L31 44L32 44L33 44L34 44L34 45L33 45L32 45L31 45L30 45L29 45L28 45L28 44L29 44Z" fill="#E0D430" fill-rule="nonzero" />
  <path d="M38 43L39 43L40 43L41 43L41 44L40 44L40 45L39 45L38 45L38 44Z" fill="#E0D430" fill-rule="nonzero" />
  <path d="M3 44L4 44L4 45L4 46L3 46L2 46L2 45L3 45Z" fill="#E0D430" fill-rule="nonzero" />
  <path d="M11 44L12 44L13 44L14 44L15 44L15 45L14 45L13 45L12 45L11 45Z" fill="#E0D430" fill-rule="nonzero" />
  <path d="M23 44L24 44L25 44L25 45L24 45L23 45Z" fill="#E0D430" fill-rule="nonzero" />
  <path d="M43 44L44 44L45 44L45 45L44 45L43 45Z" fill="#E0D430" fill-rule="nonzero" />
  <path d="M25 45L26 45L27 45L27 46L26 46L25 46Z" fill="#E0D430" fill-rule="nonzero" />
  <path d="M5 35L6 35L7 35L7 36L6 36L5 36Z" fill="#737511" fill-rule="nonzero" />
  <path d="M8 35L9 35L9 36L8 36Z" fill="#737511" fill-rule="nonzero" />
  <path d="M16 35L17 35L17 36L16 36Z" fill="#737511" fill-rule="nonzero" />
  <path d="M20 35L21 35L22 35L22 36L22 37L21 37L20 37L20 36Z" fill="#737511" fill-rule="nonzero" />
  <path d="M25 35L26 35L26 36L25 36Z" fill="#737511" fill-rule="nonzero" />
  <path d="M9 36L10 36L10 37L9 37Z" fill="#737511" fill-rule="nonzero" />
  <path d="M9 35L10 35L10 36L9 36Z" fill="#B6AF23" fill-rule="nonzero" />
  <path d="M12 35L13 35L13 36L12 36Z" fill="#B6AF23" fill-rule="nonzero" />
  <path d="M22 35L23 35L23 36L22 36Z" fill="#B6AF23" fill-rule="nonzero" />
  <path d="M24 35L25 35L25 36L24 36Z" fill="#B6AF23" fill-rule="nonzero" />
  <path d="M29 35L30 35L30 36L29 36Z" fill="#B6AF23" fill-rule="nonzero" />
  <path d="M2 36L3 36L3 37L2 37Z" fill="#B6AF23" fill-rule="nonzero" />
  <path d="M5 36L6 36L7 36L7 37L6 37L6 38L7 38L7 39L6 39L5 39L5 38L5 37Z" fill="#B6AF23" fill-rule="nonzero" />
  <path d="M15 36L16 36L16 37L15 37Z" fill="#B6AF23" fill-rule="nonzero" />
  <path d="M17 36L18 36L19 36L19 37L18 37L18 38L17 38L17 39L16 39L15 39L15 40L14 40L14 39L13 39L12 39L12 38L13 38L14 38L15 38L16 38L16 37L17 37Z" fill="#B6AF23" fill-rule="nonzero" />
  <path d="M25 36L26 36L26 37L26 38L27 38L28 38L29 38L29 39L30 39L31 39L31 40L30 40L29 40L29 41L28 41L27 41L27 40L28 40L28 39L27 39L26 39L25 39L25 38L25 37Z" fill="#B6AF23" fill-rule="nonzero" />
  <path d="M1 37L2 37L2 38L3 38L4 38L4 39L4 40L4 41L3 41L2 41L2 40L2 39L1 39L1 38Z" fill="#B6AF23" fill-rule="nonzero" />
  <path d="M21 37L22 37L23 37L24 37L24 38L23 38L23 39L22 39L21 39L21 38Z" fill="#B6AF23" fill-rule="nonzero" />
  <path d="M34 37L35 37L35 38L35 39L34 39L33 39L33 38L34 38Z" fill="#B6AF23" fill-rule="nonzero" />
  <path d="M7 39L8 39L9 39L10 39L11 39L11 40L10 40L9 40L8 40L7 40Z" fill="#B6AF23" fill-rule="nonzero" />
  <path d="M45 39L46 39L46 40L45 40Z" fill="#B6AF23" fill-rule="nonzero" />
  <path d="M11 40L12 40L12 41L11 41Z" fill="#B6AF23" fill-rule="nonzero" />
  <path d="M35 40L36 40L37 40L37 41L36 41L35 41Z" fill="#B6AF23" fill-rule="nonzero" />
  <path d="M39 40L40 40L41 40L41 41L40 41L39 41Z" fill="#B6AF23" fill-rule="nonzero" />
  <path d="M15 41L16 41L17 41L18 41L19 41L20 41L21 41L21 42L22 42L23 42L24 42L24 43L23 43L22 43L21 43L21 44L20 44L19 44L18 44L18 45L17 45L17 44L16 44L16 43L17 43L18 43L19 43L20 43L20 42L19 42L18 42L17 42L16 42L15 42Z" fill="#B6AF23" fill-rule="nonzero" />
  <path d="M26 41L27 41L27 42L26 42Z" fill="#B6AF23" fill-rule="nonzero" />
  <path d="M6 42L7 42L8 42L9 42L10 42L11 42L12 42L13 42L14 42L14 43L13 43L12 43L11 43L10 43L9 43L8 43L7 43L6 43Z" fill="#B6AF23" fill-rule="nonzero" />
  <path d="M32 42L33 42L33 43L32 43Z" fill="#B6AF23" fill-rule="nonzero" />
  <path d="M34 42L35 42L36 42L37 42L38 42L39 42L39 43L38 43L37 43L36 43L35 43L34 43Z" fill="#B6AF23" fill-rule="nonzero" />
  <path d="M40 42L41 42L42 42L42 43L42 44L41 44L41 43L40 43Z" fill="#B6AF23" fill-rule="nonzero" />
  <path d="M43 42L44 42L45 42L45 43L44 43L43 43Z" fill="#B6AF23" fill-rule="nonzero" />
  <path d="M1 43L2 43L2 44L3 44L3 45L2 45L1 45L1 44Z" fill="#B6AF23" fill-rule="nonzero" />
  <path d="M30 43L31 43L31 44L30 44Z" fill="#B6AF23" fill-rule="nonzero" />
  <path d="M5 44L6 44L7 44L8 44L8 45L7 45L6 45L5 45Z" fill="#B6AF23" fill-rule="nonzero" />
  <path d="M11 45L12 45L13 45L13 46L12 46L11 46Z" fill="#B6AF23" fill-rule="nonzero" />
  <path d="M18 45L19 45L19 46L18 46Z" fill="#B6AF23" fill-rule="nonzero" />
  <path d="M21 45L22 45L23 45L24 45L25 45L25 46L24 46L23 46L22 46L21 46Z" fill="#B6AF23" fill-rule="nonzero" />
  <path d="M29 45L30 45L31 45L32 45L33 45L34 45L34 46L33 46L32 46L31 46L30 46L29 46Z" fill="#B6AF23" fill-rule="nonzero" />
  <path d="M39 45L40 45L40 46L39 46Z" fill="#B6AF23" fill-rule="nonzero" />
  <path d="M43 45L44 45L45 45L46 45L46 46L45 46L44 46L43 46Z" fill="#B6AF23" fill-rule="nonzero" />
  <path d="M7 46L8 46L9 46L10 46L11 46L11 47L10 47L9 47L8 47L7 47Z" fill="#B6AF23" fill-rule="nonzero" />
  <path d="M37 46L38 46L39 46L39 47L38 47L37 47Z" fill="#B6AF23" fill-rule="nonzero" />
  <path d="M23 35L24 35L24 36L23 36Z" fill="#C7BB32" fill-rule="nonzero" />
  <path d="M33 35L34 35L34 36L33 36Z" fill="#C7BB32" fill-rule="nonzero" />
  <path d="M7 36L8 36L9 36L9 37L8 37L7 37Z" fill="#C7BB32" fill-rule="nonzero" />
  <path d="M13 36L14 36L15 36L15 37L14 37L14 38L13 38L13 37Z" fill="#C7BB32" fill-rule="nonzero" />
  <path d="M22 36L23 36L23 37L22 37Z" fill="#C7BB32" fill-rule="nonzero" />
  <path d="M24 36L25 36L25 37L24 37Z" fill="#C7BB32" fill-rule="nonzero" />
  <path d="M26 36L27 36L27 37L27 38L26 38L26 37Z" fill="#C7BB32" fill-rule="nonzero" />
  <path d="M41 36L42 36L42 37L41 37Z" fill="#C7BB32" fill-rule="nonzero" />
  <path d="M9 37L10 37L10 38L10 39L9 39L8 39L7 39L7 38L8 38L9 38Z" fill="#C7BB32" fill-rule="nonzero" />
  <path d="M15 37L16 37L16 38L15 38Z" fill="#C7BB32" fill-rule="nonzero" />
  <path d="M18 37L19 37L19 38L18 38Z" fill="#C7BB32" fill-rule="nonzero" />
  <path d="M20 37L21 37L21 38L20 38Z" fill="#C7BB32" fill-rule="nonzero" />
  <path d="M30 37L31 37L32 37L32 38L31 38L30 38Z" fill="#C7BB32" fill-rule="nonzero" />
  <path d="M36 37L37 37L38 37L38 38L37 38L36 38Z" fill="#C7BB32" fill-rule="nonzero" />
  <path d="M44 37L45 37L45 38L44 38Z" fill="#C7BB32" fill-rule="nonzero" />
  <path d="M23 38L24 38L25 38L25 39L24 39L23 39Z" fill="#C7BB32" fill-rule="nonzero" />
  <path d="M40 38L41 38L41 39L40 39Z" fill="#C7BB32" fill-rule="nonzero" />
  <path d="M33 39L34 39L34 40L33 40Z" fill="#C7BB32" fill-rule="nonzero" />
  <path d="M43 39L44 39L44 40L43 40Z" fill="#C7BB32" fill-rule="nonzero" />
  <path d="M29 40L30 40L31 40L31 41L30 41L29 41Z" fill="#C7BB32" fill-rule="nonzero" />
  <path d="M34 40L35 40L35 41L34 41Z" fill="#C7BB32" fill-rule="nonzero" />
</svg>