<svg width="128" height="128" viewBox="0 0 128 128" fill="none" xmlns="http://www.w3.org/2000/svg">
<path d="M53.3333 16H48V21.3333H53.3333V16Z" fill="#FFB8B8"/>
<path d="M58.6667 16H53.3333V21.3333H58.6667V16Z" fill="#FFB8B8"/>
<path d="M64 16H58.6667V21.3333H64V16Z" fill="#FFB8B8"/>
<path d="M69.3333 16H64V21.3333H69.3333V16Z" fill="#FFB8B8"/>
<path d="M53.3333 21.3334H48V26.6667H53.3333V21.3334Z" fill="#FFB8B8"/>
<path d="M58.6667 21.3334H53.3333V26.6667H58.6667V21.3334Z" fill="#FFB8B8"/>
<path d="M64 21.3334H58.6667V26.6667H64V21.3334Z" fill="#FFB8B8"/>
<path d="M69.3333 21.3334H64V26.6667H69.3333V21.3334Z" fill="#FFB8B8"/>
<path d="M42.6667 26.6666H37.3333V32H42.6667V26.6666Z" fill="#FFB8B8"/>
<path d="M48 26.6666H42.6667V32H48V26.6666Z" fill="#FFB8B8"/>
<path d="M53.3333 26.6666H48V32H53.3333V26.6666Z" fill="#FFB8B8"/>
<path d="M58.6667 26.6666H53.3333V32H58.6667V26.6666Z" fill="#FFB8B8"/>
<path d="M64 26.6666H58.6667V32H64V26.6666Z" fill="#FFB8B8"/>
<path d="M69.3333 26.6666H64V32H69.3333V26.6666Z" fill="#FFB8B8"/>
<path d="M74.6667 26.6666H69.3333V32H74.6667V26.6666Z" fill="#FFB8B8"/>
<path d="M80 26.6666H74.6667V32H80V26.6666Z" fill="#FFB8B8"/>
<path d="M85.3333 26.6666H80V32H85.3333V26.6666Z" fill="#FFB8B8"/>
<path d="M90.6667 26.6666H85.3333V32H90.6667V26.6666Z" fill="#FFB8B8"/>
<path d="M42.6667 32H37.3333V37.3333H42.6667V32Z" fill="#FFB8B8"/>
<path d="M48 32H42.6667V37.3333H48V32Z" fill="#FFB8B8"/>
<path d="M53.3333 32H48V37.3333H53.3333V32Z" fill="#FFB8B8"/>
<path d="M58.6667 32H53.3333V37.3333H58.6667V32Z" fill="#FFB8B8"/>
<path d="M64 32H58.6667V37.3333H64V32Z" fill="#FFFAFA"/>
<path d="M69.3333 32H64V37.3333H69.3333V32Z" fill="#FFB8B8"/>
<path d="M74.6667 32H69.3333V37.3333H74.6667V32Z" fill="#FFB8B8"/>
<path d="M80 32H74.6667V37.3333H80V32Z" fill="#FFB8B8"/>
<path d="M85.3333 32H80V37.3333H85.3333V32Z" fill="#FFB8B8"/>
<path d="M90.6667 32H85.3333V37.3333H90.6667V32Z" fill="#FFB8B8"/>
<path d="M32 37.3334H26.6667V42.6667H32V37.3334Z" fill="#FFB8B8"/>
<path d="M37.3333 37.3334H32V42.6667H37.3333V37.3334Z" fill="#FFB8B8"/>
<path d="M42.6667 37.3334H37.3333V42.6667H42.6667V37.3334Z" fill="#FFB8B8"/>
<path d="M48 37.3334H42.6667V42.6667H48V37.3334Z" fill="#FFFAFA"/>
<path d="M53.3333 37.3334H48V42.6667H53.3333V37.3334Z" fill="#FFB8B8"/>
<path d="M58.6667 37.3334H53.3333V42.6667H58.6667V37.3334Z" fill="#FFB8B8"/>
<path d="M64 37.3334H58.6667V42.6667H64V37.3334Z" fill="#FFB8B8"/>
<path d="M69.3333 37.3334H64V42.6667H69.3333V37.3334Z" fill="#FFB8B8"/>
<path d="M74.6667 37.3334H69.3333V42.6667H74.6667V37.3334Z" fill="#FFB8B8"/>
<path d="M80 37.3334H74.6667V42.6667H80V37.3334Z" fill="#FFB8B8"/>
<path d="M85.3333 37.3334H80V42.6667H85.3333V37.3334Z" fill="#FFFAFA"/>
<path d="M90.6667 37.3334H85.3333V42.6667H90.6667V37.3334Z" fill="#FFB8B8"/>
<path d="M96 37.3334H90.6667V42.6667H96V37.3334Z" fill="#FFB8B8"/>
<path d="M101.333 37.3334H96V42.6667H101.333V37.3334Z" fill="#FFB8B8"/>
<path d="M32 42.6666H26.6667V48H32V42.6666Z" fill="#FFB8B8"/>
<path d="M37.3333 42.6666H32V48H37.3333V42.6666Z" fill="#FFB8B8"/>
<path d="M42.6667 42.6666H37.3333V48H42.6667V42.6666Z" fill="#FFB8B8"/>
<path d="M48 42.6666H42.6667V48H48V42.6666Z" fill="#FFB8B8"/>
<path d="M53.3333 42.6666H48V48H53.3333V42.6666Z" fill="#FFB8B8"/>
<path d="M58.6667 42.6666H53.3333V48H58.6667V42.6666Z" fill="#FFB8B8"/>
<path d="M64 42.6666H58.6667V48H64V42.6666Z" fill="#FFB8B8"/>
<path d="M69.3333 42.6666H64V48H69.3333V42.6666Z" fill="#FFB8B8"/>
<path d="M74.6667 42.6666H69.3333V48H74.6667V42.6666Z" fill="#FFB8B8"/>
<path d="M80 42.6666H74.6667V48H80V42.6666Z" fill="#FFB8B8"/>
<path d="M85.3333 42.6666H80V48H85.3333V42.6666Z" fill="#FFB8B8"/>
<path d="M90.6667 42.6666H85.3333V48H90.6667V42.6666Z" fill="#FFB8B8"/>
<path d="M96 42.6666H90.6667V48H96V42.6666Z" fill="#FFB8B8"/>
<path d="M101.333 42.6666H96V48H101.333V42.6666Z" fill="#FFB8B8"/>
<path d="M32 48H26.6667V53.3333H32V48Z" fill="#FFB8B8"/>
<path d="M37.3333 48H32V53.3333H37.3333V48Z" fill="#FFB8B8"/>
<path d="M42.6667 48H37.3333V53.3333H42.6667V48Z" fill="#FFB8B8"/>
<path d="M48 48H42.6667V53.3333H48V48Z" fill="#FFB8B8"/>
<path d="M53.3333 48H48V53.3333H53.3333V48Z" fill="#FFB8B8"/>
<path d="M58.6667 48H53.3333V53.3333H58.6667V48Z" fill="#FFB8B8"/>
<path d="M64 48H58.6667V53.3333H64V48Z" fill="#FFB8B8"/>
<path d="M69.3333 48H64V53.3333H69.3333V48Z" fill="#FFB8B8"/>
<path d="M74.6667 48H69.3333V53.3333H74.6667V48Z" fill="#FFB8B8"/>
<path d="M80 48H74.6667V53.3333H80V48Z" fill="#FFFAFA"/>
<path d="M85.3333 48H80V53.3333H85.3333V48Z" fill="#FFB8B8"/>
<path d="M90.6667 48H85.3333V53.3333H90.6667V48Z" fill="#FFB8B8"/>
<path d="M96 48H90.6667V53.3333H96V48Z" fill="#FFB8B8"/>
<path d="M101.333 48H96V53.3333H101.333V48Z" fill="#FFB8B8"/>
<path d="M16 53.3334H10.6667V58.6667H16V53.3334Z" fill="#FFB8B8"/>
<path d="M32 53.3334H26.6667V58.6667H32V53.3334Z" fill="#FFB8B8"/>
<path d="M37.3333 53.3334H32V58.6667H37.3333V53.3334Z" fill="#FFB8B8"/>
<path d="M42.6667 53.3334H37.3333V58.6667H42.6667V53.3334Z" fill="#FFB8B8"/>
<path d="M48 53.3334H42.6667V58.6667H48V53.3334Z" fill="#FFB8B8"/>
<path d="M53.3333 53.3334H48V58.6667H53.3333V53.3334Z" fill="#FFFAFA"/>
<path d="M58.6667 53.3334H53.3333V58.6667H58.6667V53.3334Z" fill="#FFB8B8"/>
<path d="M64 53.3334H58.6667V58.6667H64V53.3334Z" fill="#FFB8B8"/>
<path d="M69.3333 53.3334H64V58.6667H69.3333V53.3334Z" fill="#FFB8B8"/>
<path d="M74.6667 53.3334H69.3333V58.6667H74.6667V53.3334Z" fill="#FFB8B8"/>
<path d="M80 53.3334H74.6667V58.6667H80V53.3334Z" fill="#FFB8B8"/>
<path d="M85.3333 53.3334H80V58.6667H85.3333V53.3334Z" fill="#FFB8B8"/>
<path d="M90.6667 53.3334H85.3333V58.6667H90.6667V53.3334Z" fill="#FFB8B8"/>
<path d="M96 53.3334H90.6667V58.6667H96V53.3334Z" fill="#FFB8B8"/>
<path d="M101.333 53.3334H96V58.6667H101.333V53.3334Z" fill="#FFB8B8"/>
<path d="M42.6667 58.6666H37.3333V64H42.6667V58.6666Z" fill="#FFB8B8"/>
<path d="M48 58.6666H42.6667V64H48V58.6666Z" fill="#FFB8B8"/>
<path d="M53.3333 58.6666H48V64H53.3333V58.6666Z" fill="#FFB8B8"/>
<path d="M58.6667 58.6666H53.3333V64H58.6667V58.6666Z" fill="#FFB8B8"/>
<path d="M64 58.6666H58.6667V64H64V58.6666Z" fill="#6F3025"/>
<path d="M69.3333 58.6666H64V64H69.3333V58.6666Z" fill="#6F3025"/>
<path d="M74.6667 58.6666H69.3333V64H74.6667V58.6666Z" fill="#FFB8B8"/>
<path d="M80 58.6666H74.6667V64H80V58.6666Z" fill="#FFB8B8"/>
<path d="M85.3333 58.6666H80V64H85.3333V58.6666Z" fill="#FFB8B8"/>
<path d="M90.6667 58.6666H85.3333V64H90.6667V58.6666Z" fill="#FFB8B8"/>
<path d="M42.6667 64H37.3333V69.3333H42.6667V64Z" fill="#FFB8B8"/>
<path d="M48 64H42.6667V69.3333H48V64Z" fill="#FFB8B8"/>
<path d="M53.3333 64H48V69.3333H53.3333V64Z" fill="#FFB8B8"/>
<path d="M58.6667 64H53.3333V69.3333H58.6667V64Z" fill="#FFB8B8"/>
<path d="M64 64H58.6667V69.3333H64V64Z" fill="#6F3025"/>
<path d="M69.3333 64H64V69.3333H69.3333V64Z" fill="#6F3025"/>
<path d="M74.6667 64H69.3333V69.3333H74.6667V64Z" fill="#FFB8B8"/>
<path d="M80 64H74.6667V69.3333H80V64Z" fill="#FFB8B8"/>
<path d="M85.3333 64H80V69.3333H85.3333V64Z" fill="#FFB8B8"/>
<path d="M90.6667 64H85.3333V69.3333H90.6667V64Z" fill="#FFB8B8"/>
<path d="M64 69.3334H58.6667V74.6667H64V69.3334Z" fill="#6F3025"/>
<path d="M69.3333 69.3334H64V74.6667H69.3333V69.3334Z" fill="#6F3025"/>
<path d="M21.3333 74.6666H16V80H21.3333V74.6666Z" fill="#FFB8B8"/>
<path d="M64 74.6666H58.6667V80H64V74.6666Z" fill="#6F3025"/>
<path d="M69.3333 74.6666H64V80H69.3333V74.6666Z" fill="#6F3025"/>
<path d="M96 74.6666H90.6667V80H96V74.6666Z" fill="#FFB8B8"/>
<path d="M10.6667 80H5.33334V85.3333H10.6667V80Z" fill="#FFB8B8"/>
<path d="M64 80H58.6667V85.3333H64V80Z" fill="#6F3025"/>
<path d="M69.3333 80H64V85.3333H69.3333V80Z" fill="#6F3025"/>
<path d="M37.3333 85.3334H32V90.6667H37.3333V85.3334Z" fill="#FFB8B8"/>
<path d="M64 85.3334H58.6667V90.6667H64V85.3334Z" fill="#6F3025"/>
<path d="M69.3333 85.3334H64V90.6667H69.3333V85.3334Z" fill="#6F3025"/>
<path d="M85.3333 85.3334H80V90.6667H85.3333V85.3334Z" fill="#FFB8B8"/>
<path d="M21.3333 90.6666H16V96H21.3333V90.6666Z" fill="#FFB8B8"/>
<path d="M58.6667 90.6666H53.3333V96H58.6667V90.6666Z" fill="#6F3025"/>
<path d="M64 90.6666H58.6667V96H64V90.6666Z" fill="#6F3025"/>
<path d="M69.3333 90.6666H64V96H69.3333V90.6666Z" fill="#6F3025"/>
<path d="M74.6667 90.6666H69.3333V96H74.6667V90.6666Z" fill="#6F3025"/>
<path d="M58.6667 96H53.3333V101.333H58.6667V96Z" fill="#6F3025"/>
<path d="M64 96H58.6667V101.333H64V96Z" fill="#6F3025"/>
<path d="M69.3333 96H64V101.333H69.3333V96Z" fill="#6F3025"/>
<path d="M74.6667 96H69.3333V101.333H74.6667V96Z" fill="#6F3025"/>
<path d="M58.6667 101.333H53.3333V106.667H58.6667V101.333Z" fill="#6F3025"/>
<path d="M64 101.333H58.6667V106.667H64V101.333Z" fill="#6F3025"/>
<path d="M69.3333 101.333H64V106.667H69.3333V101.333Z" fill="#6F3025"/>
<path d="M74.6667 101.333H69.3333V106.667H74.6667V101.333Z" fill="#6F3025"/>
<path d="M53.3333 10.6666H48V16H53.3333V10.6666Z" fill="black"/>
<path d="M58.6667 10.6666H53.3333V16H58.6667V10.6666Z" fill="black"/>
<path d="M64 10.6666H58.6667V16H64V10.6666Z" fill="black"/>
<path d="M69.3333 10.6666H64V16H69.3333V10.6666Z" fill="black"/>
<path d="M48 16H42.6667V21.3333H48V16Z" fill="black"/>
<path d="M74.6667 16H69.3333V21.3333H74.6667V16Z" fill="black"/>
<path d="M42.6667 21.3334H37.3333V26.6667H42.6667V21.3334Z" fill="black"/>
<path d="M48 21.3334H42.6667V26.6667H48V21.3334Z" fill="black"/>
<path d="M74.6667 21.3334H69.3333V26.6667H74.6667V21.3334Z" fill="black"/>
<path d="M80 21.3334H74.6667V26.6667H80V21.3334Z" fill="black"/>
<path d="M85.3333 21.3334H80V26.6667H85.3333V21.3334Z" fill="black"/>
<path d="M90.6667 21.3334H85.3333V26.6667H90.6667V21.3334Z" fill="black"/>
<path d="M37.3333 26.6666H32V32H37.3333V26.6666Z" fill="black"/>
<path d="M96 26.6666H90.6667V32H96V26.6666Z" fill="black"/>
<path d="M32 32H26.6667V37.3333H32V32Z" fill="black"/>
<path d="M37.3333 32H32V37.3333H37.3333V32Z" fill="black"/>
<path d="M96 32H90.6667V37.3333H96V32Z" fill="black"/>
<path d="M101.333 32H96V37.3333H101.333V32Z" fill="black"/>
<path d="M26.6667 37.3334H21.3333V42.6667H26.6667V37.3334Z" fill="black"/>
<path d="M106.667 37.3334H101.333V42.6667H106.667V37.3334Z" fill="black"/>
<path d="M26.6667 42.6666H21.3333V48H26.6667V42.6666Z" fill="black"/>
<path d="M106.667 42.6666H101.333V48H106.667V42.6666Z" fill="black"/>
<path d="M26.6667 48H21.3333V53.3333H26.6667V48Z" fill="black"/>
<path d="M106.667 48H101.333V53.3333H106.667V48Z" fill="black"/>
<path d="M26.6667 53.3334H21.3333V58.6667H26.6667V53.3334Z" fill="black"/>
<path d="M106.667 53.3334H101.333V58.6667H106.667V53.3334Z" fill="black"/>
<path d="M32 58.6666H26.6667V64H32V58.6666Z" fill="black"/>
<path d="M37.3333 58.6666H32V64H37.3333V58.6666Z" fill="black"/>
<path d="M96 58.6666H90.6667V64H96V58.6666Z" fill="black"/>
<path d="M101.333 58.6666H96V64H101.333V58.6666Z" fill="black"/>
<path d="M37.3333 64H32V69.3333H37.3333V64Z" fill="black"/>
<path d="M96 64H90.6667V69.3333H96V64Z" fill="black"/>
<path d="M42.6667 69.3334H37.3333V74.6667H42.6667V69.3334Z" fill="black"/>
<path d="M48 69.3334H42.6667V74.6667H48V69.3334Z" fill="black"/>
<path d="M53.3333 69.3334H48V74.6667H53.3333V69.3334Z" fill="black"/>
<path d="M58.6667 69.3334H53.3333V74.6667H58.6667V69.3334Z" fill="black"/>
<path d="M74.6667 69.3334H69.3333V74.6667H74.6667V69.3334Z" fill="black"/>
<path d="M80 69.3334H74.6667V74.6667H80V69.3334Z" fill="black"/>
<path d="M85.3333 69.3334H80V74.6667H85.3333V69.3334Z" fill="black"/>
<path d="M90.6667 69.3334H85.3333V74.6667H90.6667V69.3334Z" fill="black"/>
<path d="M58.6667 74.6666H53.3333V80H58.6667V74.6666Z" fill="black"/>
<path d="M74.6667 74.6666H69.3333V80H74.6667V74.6666Z" fill="black"/>
<path d="M58.6667 80H53.3333V85.3333H58.6667V80Z" fill="black"/>
<path d="M74.6667 80H69.3333V85.3333H74.6667V80Z" fill="black"/>
<path d="M58.6667 85.3334H53.3333V90.6667H58.6667V85.3334Z" fill="black"/>
<path d="M74.6667 85.3334H69.3333V90.6667H74.6667V85.3334Z" fill="black"/>
<path d="M53.3333 90.6666H48V96H53.3333V90.6666Z" fill="black"/>
<path d="M80 90.6666H74.6667V96H80V90.6666Z" fill="black"/>
<path d="M53.3333 96H48V101.333H53.3333V96Z" fill="black"/>
<path d="M80 96H74.6667V101.333H80V96Z" fill="black"/>
<path d="M53.3333 101.333H48V106.667H53.3333V101.333Z" fill="black"/>
<path d="M80 101.333H74.6667V106.667H80V101.333Z" fill="black"/>
<path d="M58.6667 106.667H53.3333V112H58.6667V106.667Z" fill="black"/>
<path d="M64 106.667H58.6667V112H64V106.667Z" fill="black"/>
<path d="M69.3333 106.667H64V112H69.3333V106.667Z" fill="black"/>
<path d="M74.6667 106.667H69.3333V112H74.6667V106.667Z" fill="black"/>
</svg>
