<svg xmlns="http://www.w3.org/2000/svg" width="48" height="48" viewBox="0 0 48 48">
  <path d="M0 0L1 0L2 0L3 0L4 0L5 0L6 0L7 0L8 0L9 0L10 0L11 0L12 0L13 0L13 1L13 2L13 3L13 4L13 5L13 6L13 7L13 8L13 9L13 10L13 11L13 12L13 13L13 14L13 15L13 16L13 17L13 18L13 19L13 20L13 21L13 22L13 23L13 24L13 25L12 25L11 25L10 25L9 25L8 25L7 25L6 25L5 25L4 25L3 25L2 25L1 25L0 25L0 24L0 23L0 22L0 21L0 20L0 19L0 18L0 17L0 16L0 15L0 14L0 13L0 12L0 11L0 10L0 9L0 8L0 7L0 6L0 5L0 4L0 3L0 2L0 1Z" fill="#FFF500" fill-rule="nonzero" />
  <path d="M13 0L14 0L15 0L15 1L15 2L15 3L15 4L15 5L15 6L15 7L15 8L15 9L15 10L15 11L15 12L15 13L15 14L15 15L15 16L15 17L15 18L15 19L15 20L15 21L15 22L15 23L15 24L15 25L16 25L17 25L18 25L19 25L20 25L21 25L22 25L23 25L24 25L25 25L26 25L27 25L28 25L29 25L30 25L31 25L32 25L33 25L34 25L35 25L36 25L37 25L38 25L39 25L40 25L41 25L42 25L43 25L44 25L45 25L46 25L47 25L48 25L48 26L48 27L47 27L46 27L45 27L44 27L43 27L42 27L41 27L41 28L41 29L41 30L41 31L41 32L41 33L41 34L41 35L41 36L42 36L43 36L44 36L45 36L46 36L47 36L48 36L48 37L48 38L47 38L46 38L45 38L44 38L43 38L42 38L41 38L41 39L41 40L41 41L41 42L41 43L41 44L41 45L41 46L41 47L41 48L40 48L39 48L39 47L39 46L39 45L39 44L38 44L37 44L36 44L35 44L34 44L33 44L32 44L31 44L30 44L29 44L28 44L27 44L26 44L25 44L24 44L23 44L22 44L21 44L20 44L19 44L18 44L17 44L16 44L15 44L15 45L15 46L15 47L15 48L14 48L13 48L13 47L13 46L13 45L13 44L13 43L13 42L13 41L13 40L13 39L13 38L13 37L13 36L13 35L13 34L13 33L13 32L13 31L13 30L13 29L13 28L13 27L12 27L11 27L10 27L9 27L8 27L7 27L6 27L5 27L4 27L3 27L2 27L1 27L0 27L0 26L0 25L1 25L2 25L3 25L4 25L5 25L6 25L7 25L8 25L9 25L10 25L11 25L12 25L13 25L13 24L13 23L13 22L13 21L13 20L13 19L13 18L13 17L13 16L13 15L13 14L13 13L13 12L13 11L13 10L13 9L13 8L13 7L13 6L13 5L13 4L13 3L13 2L13 1Z" fill="#000000" fill-rule="nonzero" />
  <path d="M16 27L15 27L15 28L15 29L15 30L15 31L15 32L15 33L15 34L15 35L15 36L15 37L15 38L15 39L15 40L15 41L15 42L16 42L17 42L18 42L19 42L20 42L21 42L22 42L23 42L24 42L25 42L26 42L27 42L28 42L29 42L30 42L31 42L32 42L33 42L34 42L35 42L36 42L37 42L38 42L39 42L39 41L39 40L39 39L39 38L39 37L39 36L39 35L39 34L39 33L39 32L39 31L39 30L39 29L39 28L39 27L38 27L37 27L36 27L35 27L34 27L33 27L32 27L31 27L30 27L29 27L28 27L27 27L26 27L25 27L24 27L23 27L22 27L21 27L20 27L19 27L18 27L17 27Z" fill="#000000" fill-rule="nonzero" />
  <path d="M41 27L42 27L43 27L44 27L45 27L46 27L47 27L48 27L48 28L48 29L48 30L48 31L48 32L48 33L48 34L48 35L48 36L47 36L46 36L45 36L44 36L43 36L42 36L41 36L41 35L41 34L41 33L41 32L41 31L41 30L41 29L41 28Z" fill="#001DEC" fill-rule="nonzero" />
</svg>